<svg
  width="250"
  height="107"
  viewBox="0 0 250 107"
  fill="none"
  xmlns="http://www.w3.org/2000/svg"
>
  <path
    d="M80.6328 85.1016H69.3125V105H41.8906V85.1016H0.898438V64.7109L43.6484 2.20312H69.3125V64.3594H80.6328V85.1016ZM41.8906 64.3594V52.4062C41.8906 50.1562 41.9609 47.1328 42.1016 43.3359C42.2891 39.4922 42.4297 37.4766 42.5234 37.2891H41.75C40.1562 40.8984 38.3516 44.2734 36.3359 47.4141L24.9453 64.3594H41.8906Z"
    fill="#333333"
  />
  <path
    d="M162.125 53.7422C162.125 71.9297 159.078 85.2656 152.984 93.75C146.891 102.188 137.562 106.406 125 106.406C112.719 106.406 103.461 102 97.2266 93.1875C90.9922 84.3281 87.875 71.1797 87.875 53.7422C87.875 35.4609 90.9219 22.0547 97.0156 13.5234C103.109 4.99219 112.438 0.726562 125 0.726562C137.234 0.726562 146.469 5.17969 152.703 14.0859C158.984 22.9453 162.125 36.1641 162.125 53.7422ZM115.508 53.7422C115.508 65.3672 116.234 73.3594 117.688 77.7188C119.141 82.0781 121.578 84.2578 125 84.2578C128.469 84.2578 130.906 82.0078 132.312 77.5078C133.766 73.0078 134.492 65.0859 134.492 53.7422C134.492 42.3516 133.766 34.3828 132.312 29.8359C130.859 25.2422 128.422 22.9453 125 22.9453C121.578 22.9453 119.141 25.1484 117.688 29.5547C116.234 33.9609 115.508 42.0234 115.508 53.7422Z"
    fill="#333333"
  />
  <path
    d="M249.383 85.1016H238.062V105H210.641V85.1016H169.648V64.7109L212.398 2.20312H238.062V64.3594H249.383V85.1016ZM210.641 64.3594V52.4062C210.641 50.1562 210.711 47.1328 210.852 43.3359C211.039 39.4922 211.18 37.4766 211.273 37.2891H210.5C208.906 40.8984 207.102 44.2734 205.086 47.4141L193.695 64.3594H210.641Z"
    fill="#333333"
  />
</svg>
