<svg
  width="1031"
  height="1461"
  viewBox="0 0 1031 1461"
  fill="none"
  xmlns="http://www.w3.org/2000/svg"
>
  <g opacity="0.1">
    <mask
      id="mask0"
      mask-type="alpha"
      maskUnits="userSpaceOnUse"
      x="0"
      y="0"
      width="1032"
      height="1461"
    >
      <rect
        x="1031"
        y="1461"
        width="1031"
        height="1461"
        transform="rotate(-180 1031 1461)"
        fill="#C4C4C4"
      />
    </mask>
    <g mask="url(#mask0)">
      <g opacity="0.5">
        <path
          d="M323.508 404.94L323.284 405.163L306.105 443.762L305.658 444.431L263.267 539.924L262.82 540.817L228.684 617.568L228.461 617.791L203.695 673.57L195.217 692.535L177.367 732.695L177.59 733.142L182.053 743.182L186.738 753.668L195.44 773.079L203.695 791.821L263.267 925.467L288.702 982.807L386.203 1201.91L806.105 1201.91L806.774 1200.34L1014.94 733.142L1014.72 732.695L806.105 263.708L386.426 263.708L385.757 265.27L323.508 404.94ZM372.816 1157.73L366.122 1142.78L726.007 1142.78L726.676 1141.22L908.291 733.142L908.068 732.695L726.23 323.726L366.346 323.726L373.039 308.777L746.979 308.777L935.734 733.142L746.756 1157.73L372.816 1157.73ZM193.432 711.946L200.125 696.997L229.353 696.997L245.417 733.142L229.353 769.286L200.125 769.286L193.432 754.337L208.603 754.337L217.974 733.142L208.603 711.946L193.432 711.946ZM201.91 692.758L208.603 677.809L254.788 677.809L279.331 733.142L254.788 788.474L208.603 788.474L201.91 773.302L234.038 773.302L251.888 733.142L234.038 692.981L201.91 692.981L201.91 692.758ZM355.859 1119.58L348.719 1103.51L673.798 1103.51L674.467 1101.95L838.456 733.142L838.233 732.695L673.798 362.994L348.719 362.994L355.859 346.707L696.109 346.707L867.908 733.142L696.109 1119.58L355.859 1119.58ZM210.388 673.793L217.082 658.844L280.223 658.844L313.244 733.142L280.223 807.439L217.082 807.439L210.388 792.49L259.474 792.49L285.801 733.142L259.474 673.793L210.388 673.793ZM346.935 1099.27L340.241 1084.1L648.363 1084.1L649.032 1082.76L804.543 733.142L804.32 732.695L648.363 382.182L340.241 382.182L346.935 367.01L669.112 367.01L832.209 733.142L669.335 1099.5L346.935 1099.5L346.935 1099.27ZM285.578 809.893L319.715 732.918L319.491 732.472L284.686 654.605L218.867 654.605L225.56 639.656L305.658 639.656L347.381 733.142L305.658 826.627L225.56 826.627L218.867 811.455L284.909 811.455L285.578 809.893ZM338.456 1080.09L330.647 1062.46L619.358 1062.46L620.027 1060.9L765.944 732.918L765.721 732.472L619.358 403.601L330.424 403.601L338.233 385.975L643.677 385.975L798.073 733.142L643.677 1080.31L338.456 1080.31L338.456 1080.09ZM311.013 829.081L353.851 733.142L353.628 732.695L310.344 635.864L227.345 635.864L234.262 620.692L331.317 620.692L381.517 733.365L331.317 846.038L234.262 846.038L227.568 830.866L310.567 830.866L311.013 829.081ZM328.862 1058.44L321.5 1042.16L592.361 1042.16L593.03 1040.59L729.8 732.918L729.576 732.472L592.361 423.905L321.5 423.905L328.862 407.617L614.895 407.617L759.697 732.918L614.895 1058.22L328.862 1058.22L328.862 1058.44ZM336.448 848.269L387.765 733.142L387.542 732.695L336.002 616.676L236.047 616.676L242.74 601.504L356.975 601.504L415.431 733.142L356.975 865.002L242.963 865.002L236.27 849.831L336.225 849.831L336.448 848.269ZM319.715 1038.14L313.021 1022.97L566.926 1022.97L567.595 1021.63L695.886 733.142L695.663 732.695L566.926 443.316L313.021 443.316L319.715 428.144L587.675 428.144L723.329 733.142L587.675 1038.14L319.715 1038.14ZM361.883 867.234L421.678 733.142L421.455 732.695L361.214 597.711L244.302 597.711L250.995 582.539L381.964 582.539L449.121 733.365L381.964 884.19L250.995 884.19L244.302 869.242L361.214 869.242L361.883 867.234ZM311.236 1018.95L303.873 1002.22L539.483 1002.22L540.152 1000.88L659.295 732.918L659.072 732.472L539.483 463.619L303.873 463.619L311.236 447.109L562.24 447.109L689.416 733.142L562.24 1018.95L311.236 1018.95ZM387.318 886.421L455.592 733.142L455.368 732.695L386.872 578.523L253.003 578.523L259.697 563.351L407.622 563.351L483.258 733.142L407.622 902.932L259.697 902.932L253.003 887.76L386.872 887.76L387.318 886.421ZM302.089 998.425L295.395 983.476L514.048 983.476L514.717 981.915L625.382 733.142L625.159 732.695L514.048 483.03L295.395 483.03L302.089 468.081L534.797 468.081L652.825 733.365L534.797 998.648L302.089 998.648L302.089 998.425ZM412.753 905.386L489.505 732.918L489.282 732.472L412.084 559.112L261.259 559.112L267.952 543.94L432.834 543.94L516.948 732.918L432.834 921.897L267.952 921.897L261.259 906.725L412.084 906.725L412.753 905.386ZM293.61 979.237L286.917 964.288L488.612 964.288L489.282 962.727L591.468 732.918L591.245 732.472L488.612 501.995L286.917 501.995L293.61 486.823L509.362 486.823L618.912 733.142L509.362 979.46L293.61 979.46L293.61 979.237ZM438.189 924.574L523.418 733.142L523.195 732.695L437.519 540.37L269.96 540.37L276.653 525.199L458.492 525.199L551.085 733.142L458.492 941.308L276.653 941.308L269.96 926.136L437.742 926.136L438.189 924.574ZM285.132 960.272L278.438 945.324L463.177 945.324L463.847 943.762L557.555 733.142L557.332 732.695L463.177 521.183L278.438 521.183L285.132 506.011L483.927 506.011L584.998 733.142L483.927 960.272L285.132 960.272ZM364.337 1138.54L357.644 1123.59L700.571 1123.59L701.241 1122.03L874.378 733.142L874.155 732.695L700.572 342.691L357.644 342.691L364.338 327.742L721.321 327.742L901.821 733.142L721.321 1138.54L364.337 1138.54ZM191.647 715.962L203.918 715.962L211.504 733.142L203.918 750.321L191.647 750.321L184.061 733.142L191.647 715.962ZM381.74 1177.59L374.601 1161.52L751.442 1161.52L752.111 1159.96L942.205 733.142L941.982 732.695L751.442 304.538L374.601 304.538L381.741 288.474L773.53 288.474L971.433 733.142L773.753 1177.81L381.74 1177.81L381.74 1177.59ZM801.419 267.501L1008.69 733.142L801.642 1198.56L391.111 1198.56L383.525 1181.6L778.215 1181.6L778.885 1180.04L977.68 733.142L977.457 732.695L778.215 284.681L383.525 284.681L391.111 267.724L801.419 267.724L801.419 267.501Z"
          fill="url(#paint0_linear)"
        />
        <path
          d="M661.973 1562.01L670.451 1542.83L671.12 1541.26L688.3 1503.11L688.969 1501.55L698.563 1480.13L698.786 1479.68L707.042 1461.17L707.711 1459.6L727.345 1415.65L797.18 1258.8L797.403 1258.58L1030.78 733.142L1030.56 732.695L670.451 -76.5419L661.303 -97.0685L-78.7684 -97.0686L-79.4377 -95.7298L-448.247 733.141L-448.023 733.588L-78.5454 1563.35L661.303 1563.35L661.973 1562.01ZM665.989 -72.7489L673.128 -56.6847L-24.3283 -56.6848L-24.9978 -55.123L-375.734 733.141L-375.511 733.588L-24.3285 1522.74L673.128 1522.74L665.989 1538.81L-46.4169 1538.81L-404.962 733.141L-46.6399 -72.749L665.989 -72.7489ZM376.163 245.859L159.518 732.918L159.741 733.365L376.832 1221.32L806.997 1221.32L800.304 1236.49L355.859 1236.49L131.852 732.695L355.859 229.348L800.304 229.348L806.997 244.52L376.832 244.52L376.163 245.859ZM674.913 -52.6686L681.83 -37.0506L1.77602 -37.0506L1.10671 -35.4889L-340.705 733.141L-340.482 733.588L1.77588 1503.11L681.83 1503.11L674.913 1518.73L-19.8662 1518.73L-369.264 733.141L-19.8661 -52.6687L674.913 -52.6686ZM350.728 226.894L125.382 733.142L125.605 733.588L351.397 1240.73L798.519 1240.73L791.825 1255.9L330.647 1255.9L98.1616 733.142L330.424 210.16L791.825 210.161L798.519 225.332L351.397 225.332L350.728 226.894ZM683.615 -33.0346L692.093 -13.8467L32.3428 -13.8468L31.6734 -12.285L-300.098 733.141L-299.875 733.588L32.3427 1480.13L692.093 1480.13L683.615 1499.09L6.23816 1499.09L-334.681 732.918L6.2383 -33.0346L683.615 -33.0346ZM325.292 207.706L91.4681 733.142L91.6912 733.588L325.962 1259.92L790.04 1259.92L783.347 1275.09L305.212 1275.09L64.025 733.142L304.989 191.196L783.347 191.196L790.041 206.368L325.962 206.367L325.292 207.706ZM693.878 -10.0537L700.572 5.11801L57.7778 5.11796L57.1085 6.4567L-265.962 732.918L-265.739 733.365L57.7777 1460.72L700.571 1460.72L693.878 1475.67L37.0281 1475.67L-293.628 732.695L37.0282 -10.2769L693.878 -10.2769L693.878 -10.0537ZM299.857 188.742L57.5546 733.142L57.7778 733.588L300.527 1278.88L781.562 1278.88L774.422 1294.72L278.661 1294.72L28.7728 733.142L278.661 171.562L774.422 171.562L781.562 187.403L300.527 187.403L299.857 188.742ZM702.356 9.13413L710.612 27.4295L87.6752 27.4295L87.0059 28.9913L-226.247 733.141L-226.024 733.588L87.6751 1438.63L710.388 1438.63L702.133 1456.93L62.4631 1456.93L-259.491 732.918L62.4633 9.13407L702.356 9.13413ZM273.53 168.884L22.3026 733.142L22.5256 733.588L274.199 1298.74L772.637 1298.74L765.944 1313.91L253.226 1313.91L-5.14055 733.142L253.226 152.374L765.944 152.374L772.638 167.546L273.976 167.546L273.53 168.884ZM712.173 31.4457L719.982 49.0716L116.234 49.0716L115.565 50.4103L-188.095 732.918L-187.872 733.365L116.457 1416.99L720.205 1416.99L712.396 1434.61L92.3605 1434.61L-219.777 732.918L92.1375 31.4456L712.173 31.4457ZM248.095 149.696L-11.3879 732.918L-11.1647 733.365L248.541 1317.93L764.159 1317.93L757.466 1333.1L227.791 1333.1L-39.054 733.142L227.791 133.186L757.466 133.186L764.159 148.135L248.541 148.135L248.095 149.696ZM731.138 74.0605L738.501 90.3479L171.566 90.3478L170.897 91.9097L-114.244 733.142L-114.021 733.588L171.566 1375.71L738.501 1375.71L731.138 1392L148.809 1392L-144.364 732.918L149.032 74.0605L731.138 74.0605ZM222.437 130.732L-45.5243 733.142L-45.3012 733.588L223.106 1336.89L755.681 1336.89L748.987 1351.84L202.356 1351.84L-72.9675 732.918L202.356 114.221L748.987 114.221L755.681 129.393L223.106 129.393L222.437 130.732ZM740.286 94.3639L747.202 110.205L197.671 110.205L197.001 111.767L-79.4378 733.142L-79.2146 733.588L197.894 1356.08L747.202 1356.08L740.286 1371.7L176.029 1371.7L-107.997 732.918L176.029 94.3638L740.286 94.3639ZM729.353 70.0445L144.346 70.0445L143.677 71.3831L-150.611 732.918L-150.388 733.365L144.346 1396.24L729.353 1396.24L721.767 1413.2L120.919 1413.2L-181.624 733.141L120.919 53.0876L721.767 53.0876L729.353 70.0445ZM808.782 1217.75L381.517 1217.75L165.988 733.142L381.517 248.536L808.782 248.536L1024.31 733.142L808.782 1217.75ZM-74.0831 1559.34L-441.776 733.141L-74.083 -93.2756L656.841 -93.2755L664.204 -76.765L-51.1022 -76.7651L-51.7716 -75.2033L-411.433 733.141L-411.209 733.588L-51.1023 1542.83L664.204 1542.83L656.841 1559.34L-74.0831 1559.34Z"
          fill="url(#paint1_linear)"
        />
      </g>
    </g>
  </g>
  <defs>
    <linearGradient
      id="paint0_linear"
      x1="1164.94"
      y1="733.075"
      x2="14.7642"
      y2="733.074"
      gradientUnits="userSpaceOnUse"
    >
      <stop stop-color="#18181A" />
      <stop offset="1" stop-color="#18181A" stop-opacity="0" />
    </linearGradient>
    <linearGradient
      id="paint1_linear"
      x1="859.24"
      y1="733.072"
      x2="-289.439"
      y2="733.072"
      gradientUnits="userSpaceOnUse"
    >
      <stop stop-color="#18181A" />
      <stop offset="1" stop-color="#18181A" stop-opacity="0" />
    </linearGradient>
  </defs>
</svg>
