<svg width="273" height="168" viewBox="0 0 273 168" fill="none" xmlns="http://www.w3.org/2000/svg">
<mask id="mask0" mask-type="alpha" maskUnits="userSpaceOnUse" x="0" y="0" width="273" height="168">
<rect width="273" height="168" rx="5" fill="#D6DAE0"/>
</mask>
<g mask="url(#mask0)">
<g opacity="0.2">
<rect x="71" y="70" width="132" height="28" rx="5" stroke="white" stroke-width="5"/>
<rect x="61" y="60" width="152" height="48" rx="5" stroke="white" stroke-width="5"/>
<rect x="51" y="50" width="172" height="68" rx="5" stroke="white" stroke-width="5"/>
<rect x="41" y="40" width="192" height="88" rx="5" stroke="white" stroke-width="5"/>
<rect x="31" y="30" width="212" height="108" rx="5" stroke="white" stroke-width="5"/>
<rect x="21" y="20" width="232" height="128" rx="5" stroke="white" stroke-width="5"/>
<rect x="11" y="10" width="252" height="148" rx="5" stroke="white" stroke-width="5"/>
<rect x="1" width="272" height="168" rx="5" stroke="white" stroke-width="5"/>
</g>
<g opacity="0.25">
<path d="M137 168H268C270.761 168 273 165.761 273 163V84" stroke="white" stroke-width="5"/>
<path d="M137 158H258C260.761 158 263 155.761 263 153V84" stroke="white" stroke-width="5"/>
<path d="M137 148H248C250.761 148 253 145.761 253 143V84" stroke="white" stroke-width="5"/>
<path d="M137 138H238C240.761 138 243 135.761 243 133V84" stroke="white" stroke-width="5"/>
<path d="M137 128H228C230.761 128 233 125.761 233 123V84" stroke="white" stroke-width="5"/>
<path d="M137 118H218C220.761 118 223 115.761 223 113V84" stroke="white" stroke-width="5"/>
<path d="M137 108H208C210.761 108 213 105.761 213 103V84" stroke="white" stroke-width="5"/>
<path d="M137 98H198C200.761 98 203 95.7614 203 93V84" stroke="white" stroke-width="5"/>
</g>
</g>
</svg>
