<svg width="89" height="168" viewBox="0 0 89 168" fill="none" xmlns="http://www.w3.org/2000/svg">
<g clip-path="url(#clip0)">
<path d="M68.5157 13.7639L77.1181 5.06032L105.759 5.06032L82.7855 28.0338L68.5157 13.7639Z" fill="url(#paint0_linear)" stroke="#A3B6D9" stroke-width="10" stroke-miterlimit="10" stroke-linejoin="round"/>
<path d="M11.9421 13.0554L19.8361 5.06027L48.4771 5.06027L26.212 27.3253L11.9421 13.0554Z" fill="url(#paint1_linear)" stroke="#A3B6D9" stroke-width="10" stroke-miterlimit="10" stroke-linejoin="round"/>
<path d="M5.06015 19.9374L5.06015 5.06029L19.8361 5.06029L11.9421 13.0555L5.06015 19.9374Z" fill="url(#paint2_linear)" stroke="#A3B6D9" stroke-width="10" stroke-miterlimit="10" stroke-linejoin="round"/>
<path d="M5.06024 48.4772L5.06024 19.9374L11.9422 13.0555L26.212 27.3254L5.06024 48.4772Z" fill="url(#paint3_linear)" stroke="#A3B6D9" stroke-width="10" stroke-miterlimit="10" stroke-linejoin="round"/>
<path d="M12.6506 69.5277L40.5831 41.5952L54.853 27.3253L68.5156 13.7639L82.7855 28.0337L54.853 55.9663L41.2916 69.5277L26.9205 83.8988L12.6506 69.5277Z" fill="url(#paint4_linear)" stroke="#A3B6D9" stroke-width="10" stroke-miterlimit="10" stroke-linejoin="round"/>
<path d="M5.06021 77.1182L5.06021 48.4772L26.212 27.3254L40.5831 13.0555L48.4771 5.06033L77.118 5.06033L68.5156 13.764L54.853 27.3254L40.5831 41.5953L12.6506 69.5278L5.06021 77.1182Z" fill="url(#paint5_linear)" stroke="#A3B6D9" stroke-width="10" stroke-miterlimit="10" stroke-linejoin="round"/>
<path d="M5.06015 105.759L5.06015 77.1181L12.6505 69.5277L26.9204 83.8988L13.3589 97.4602L5.06015 105.759Z" fill="url(#paint6_linear)" stroke="#A3B6D9" stroke-width="10" stroke-miterlimit="10" stroke-linejoin="round"/>
<path d="M62.3421 162.94L70.6409 154.742L84.2023 141.08L126.405 98.8772L140.067 85.3157L154.337 70.9446L162.94 62.3422L162.94 90.9832L140.776 113.248L126.405 127.518L90.9831 162.94L62.3421 162.94Z" fill="url(#paint7_linear)" stroke="#A3B6D9" stroke-width="10" stroke-miterlimit="10" stroke-linejoin="round"/>
<path d="M69.9325 126.81L84.2023 112.439L97.7638 98.8772L112.135 84.6073L125.696 70.9446L140.067 85.3157L126.405 98.8772L84.2023 141.08L69.9325 126.81Z" fill="url(#paint8_linear)" stroke="#A3B6D9" stroke-width="10" stroke-miterlimit="10" stroke-linejoin="round"/>
<path d="M5.16141 162.94L41.9999 126.101L55.5614 112.439L69.9325 98.1687L83.4939 84.6073L97.7638 70.2362L111.426 56.6748L162.94 5.16153L162.94 33.8025L153.629 43.0121L125.696 70.9446L112.135 84.6073L97.7638 98.8772L56.2698 140.371L41.9999 154.742L33.7012 162.94L5.16141 162.94Z" fill="url(#paint9_linear)" stroke="#A3B6D9" stroke-width="10" stroke-miterlimit="10" stroke-linejoin="round"/>
<path d="M69.2241 70.2362L83.4939 55.9663L97.0554 42.4049L111.426 28.0338L124.988 14.4724L139.359 28.7422L111.426 56.6748L97.7638 70.2362L83.4939 84.6073L69.2241 70.2362Z" fill="url(#paint10_linear)" stroke="#A3B6D9" stroke-width="10" stroke-miterlimit="10" stroke-linejoin="round"/>
<path d="M13.359 126.101L27.6289 111.73L41.2915 98.1687L55.5614 83.8988L69.224 70.2362L83.4939 84.6072L69.9325 98.1687L55.5614 112.439L41.9999 126.101L27.6288 140.371L13.359 126.101Z" fill="url(#paint11_linear)" stroke="#A3B6D9" stroke-width="10" stroke-miterlimit="10" stroke-linejoin="round"/>
<path d="M5.06023 162.94L5.06023 134.4L13.359 126.101L27.6289 140.371L5.16144 162.94L5.06023 162.94Z" fill="url(#paint12_linear)" stroke="#A3B6D9" stroke-width="10" stroke-miterlimit="10" stroke-linejoin="round"/>
<path d="M5.06015 134.4L5.06015 105.759L13.3589 97.4603L26.9204 83.8988L41.2915 69.5277L54.8529 55.9663L105.759 5.06027L134.4 5.06027L124.988 14.4723L111.426 28.0338L97.0553 42.4049L83.4939 55.9663L69.224 70.2362L55.5614 83.8988L41.2915 98.1687L27.6288 111.73L13.3589 126.101L5.06015 134.4Z" fill="url(#paint13_linear)" stroke="#A3B6D9" stroke-width="10" stroke-miterlimit="10" stroke-linejoin="round"/>
<path d="M33.7012 162.94L42 154.742L56.2699 140.371L69.9325 126.81L84.2024 141.08L70.641 154.742L62.3422 162.94L33.7012 162.94Z" fill="url(#paint14_linear)" stroke="#A3B6D9" stroke-width="10" stroke-miterlimit="10" stroke-linejoin="round"/>
<path d="M90.983 162.94L98.4722 155.451L90.983 162.94Z" fill="url(#paint15_linear)" stroke="#A3B6D9" stroke-width="10" stroke-miterlimit="10" stroke-linejoin="round"/>
<path d="M90.9831 162.94L98.4723 155.451L126.405 127.518L140.776 141.788L119.624 162.94L90.9831 162.94Z" fill="url(#paint16_linear)" stroke="#A3B6D9" stroke-width="10" stroke-miterlimit="10" stroke-linejoin="round"/>
<path d="M90.983 162.94L98.4722 155.451L90.983 162.94Z" fill="url(#paint17_linear)" stroke="#A3B6D9" stroke-width="10" stroke-miterlimit="10" stroke-linejoin="round"/>
<path d="M5 163L5.00001 4.99998L84 4.99999L84 163L5 163Z" stroke="#A3B6D9" stroke-width="10" stroke-miterlimit="10" stroke-linejoin="round"/>
</g>
<defs>
<linearGradient id="paint0_linear" x1="87.1373" y1="28.0338" x2="87.1374" y2="5.06032" gradientUnits="userSpaceOnUse">
<stop stop-color="white"/>
<stop offset="1" stop-color="white" stop-opacity="0.1"/>
</linearGradient>
<linearGradient id="paint1_linear" x1="30.2096" y1="27.3253" x2="30.2096" y2="5.06027" gradientUnits="userSpaceOnUse">
<stop stop-color="white"/>
<stop offset="1" stop-color="white" stop-opacity="0.1"/>
</linearGradient>
<linearGradient id="paint2_linear" x1="12.4481" y1="19.9374" x2="12.4481" y2="5.06029" gradientUnits="userSpaceOnUse">
<stop stop-color="white"/>
<stop offset="1" stop-color="white" stop-opacity="0.1"/>
</linearGradient>
<linearGradient id="paint3_linear" x1="15.6361" y1="48.4772" x2="15.6361" y2="13.0555" gradientUnits="userSpaceOnUse">
<stop stop-color="white"/>
<stop offset="1" stop-color="white" stop-opacity="0.1"/>
</linearGradient>
<linearGradient id="paint4_linear" x1="47.7181" y1="83.8988" x2="47.7181" y2="13.7639" gradientUnits="userSpaceOnUse">
<stop stop-color="white"/>
<stop offset="1" stop-color="white" stop-opacity="0.1"/>
</linearGradient>
<linearGradient id="paint5_linear" x1="41.0891" y1="77.1182" x2="41.0891" y2="5.06033" gradientUnits="userSpaceOnUse">
<stop stop-color="white"/>
<stop offset="1" stop-color="white" stop-opacity="0.1"/>
</linearGradient>
<linearGradient id="paint6_linear" x1="15.9903" y1="105.759" x2="15.9903" y2="69.5277" gradientUnits="userSpaceOnUse">
<stop stop-color="white"/>
<stop offset="1" stop-color="white" stop-opacity="0.1"/>
</linearGradient>
<linearGradient id="paint7_linear" x1="112.641" y1="162.94" x2="112.641" y2="62.3422" gradientUnits="userSpaceOnUse">
<stop stop-color="white"/>
<stop offset="1" stop-color="white" stop-opacity="0.1"/>
</linearGradient>
<linearGradient id="paint8_linear" x1="105" y1="141.08" x2="105" y2="70.9446" gradientUnits="userSpaceOnUse">
<stop stop-color="white"/>
<stop offset="1" stop-color="white" stop-opacity="0.1"/>
</linearGradient>
<linearGradient id="paint9_linear" x1="84.0505" y1="162.94" x2="84.0506" y2="5.16151" gradientUnits="userSpaceOnUse">
<stop stop-color="white"/>
<stop offset="1" stop-color="white" stop-opacity="0.1"/>
</linearGradient>
<linearGradient id="paint10_linear" x1="104.292" y1="84.6073" x2="104.292" y2="14.4724" gradientUnits="userSpaceOnUse">
<stop stop-color="white"/>
<stop offset="1" stop-color="white" stop-opacity="0.1"/>
</linearGradient>
<linearGradient id="paint11_linear" x1="48.4264" y1="140.371" x2="48.4264" y2="70.2361" gradientUnits="userSpaceOnUse">
<stop stop-color="white"/>
<stop offset="1" stop-color="white" stop-opacity="0.1"/>
</linearGradient>
<linearGradient id="paint12_linear" x1="16.3446" y1="162.94" x2="16.3446" y2="126.101" gradientUnits="userSpaceOnUse">
<stop stop-color="white"/>
<stop offset="1" stop-color="white" stop-opacity="0.1"/>
</linearGradient>
<linearGradient id="paint13_linear" x1="69.73" y1="134.4" x2="69.73" y2="5.06027" gradientUnits="userSpaceOnUse">
<stop stop-color="white"/>
<stop offset="1" stop-color="white" stop-opacity="0.1"/>
</linearGradient>
<linearGradient id="paint14_linear" x1="58.9518" y1="162.94" x2="58.9518" y2="126.81" gradientUnits="userSpaceOnUse">
<stop stop-color="white"/>
<stop offset="1" stop-color="white" stop-opacity="0.1"/>
</linearGradient>
<linearGradient id="paint15_linear" x1="94.7276" y1="162.94" x2="94.7276" y2="155.451" gradientUnits="userSpaceOnUse">
<stop stop-color="white"/>
<stop offset="1" stop-color="white" stop-opacity="0.1"/>
</linearGradient>
<linearGradient id="paint16_linear" x1="115.879" y1="162.94" x2="115.879" y2="127.518" gradientUnits="userSpaceOnUse">
<stop stop-color="white"/>
<stop offset="1" stop-color="white" stop-opacity="0.1"/>
</linearGradient>
<linearGradient id="paint17_linear" x1="94.7276" y1="162.94" x2="94.7276" y2="155.451" gradientUnits="userSpaceOnUse">
<stop stop-color="white"/>
<stop offset="1" stop-color="white" stop-opacity="0.1"/>
</linearGradient>
<clipPath id="clip0">
<rect width="89" height="168" fill="white" transform="translate(89 168) rotate(-180)"/>
</clipPath>
</defs>
</svg>
