<svg width="89" height="168" viewBox="0 0 89 168" fill="none" xmlns="http://www.w3.org/2000/svg">
<g clip-path="url(#clip0)">
<path d="M84 163L163 163L163 5L84 5L84 163Z" fill="url(#paint0_linear)" stroke="#A3B6D9" stroke-width="10" stroke-miterlimit="10" stroke-linejoin="round"/>
<path d="M84 5L5 5L5 163H84L84 5Z" fill="url(#paint1_linear)" stroke="#A3B6D9" stroke-width="10" stroke-miterlimit="10" stroke-linejoin="round"/>
<path d="M163 143.756H84V163H163V143.756Z" stroke="#A3B6D9" stroke-width="10" stroke-miterlimit="10" stroke-linejoin="round"/>
<path d="M163 123.5L84 123.5V163H163V123.5Z" stroke="#A3B6D9" stroke-width="10" stroke-miterlimit="10" stroke-linejoin="round"/>
<path d="M163 5L84 5L84 123.5L163 123.5V5Z" stroke="#A3B6D9" stroke-width="10" stroke-miterlimit="10" stroke-linejoin="round"/>
<path d="M84 5L5 5L5 24.2436L84 24.2436V5Z" stroke="#A3B6D9" stroke-width="10" stroke-miterlimit="10" stroke-linejoin="round"/>
<path d="M84 5L5 5L5 44.5L84 44.5V5Z" stroke="#A3B6D9" stroke-width="10" stroke-miterlimit="10" stroke-linejoin="round"/>
<path d="M43.4872 85.0128H5L5 163H43.4872L43.4872 85.0128Z" stroke="#A3B6D9" stroke-width="10" stroke-miterlimit="10" stroke-linejoin="round"/>
<path d="M23.2308 105.269H5L5 163H23.2308L23.2308 105.269Z" stroke="#A3B6D9" stroke-width="10" stroke-miterlimit="10" stroke-linejoin="round"/>
<path d="M63.7436 64.7565L5 64.7565L5 163H63.7436L63.7436 64.7565Z" stroke="#A3B6D9" stroke-width="10" stroke-miterlimit="10" stroke-linejoin="round"/>
<path d="M84 44.5L5 44.5L5 163H84L84 44.5Z" stroke="#A3B6D9" stroke-width="10" stroke-miterlimit="10" stroke-linejoin="round"/>
</g>
<defs>
<linearGradient id="paint0_linear" x1="123.5" y1="163" x2="123.5" y2="5" gradientUnits="userSpaceOnUse">
<stop stop-color="white"/>
<stop offset="1" stop-color="white" stop-opacity="0.1"/>
</linearGradient>
<linearGradient id="paint1_linear" x1="44.5" y1="5" x2="44.5" y2="163" gradientUnits="userSpaceOnUse">
<stop stop-color="white"/>
<stop offset="1" stop-color="white" stop-opacity="0.1"/>
</linearGradient>
<clipPath id="clip0">
<rect width="89" height="168" fill="white"/>
</clipPath>
</defs>
</svg>
