<svg width="186" height="50" fill="none" xmlns="http://www.w3.org/2000/svg">
  <path
    d="M16.58 10.88c-.49-.73-1.54-1.12-2.58-1.12-1.4 0-3 .66-3 2.37 0 1.7 1.32 2.4 3.38 2.4v1.38c-.24 0-.52 0-.8.04-1.92.17-3.46 1.04-3.46 3.16 0 2.19 1.68 3.27 3.7 3.27 2.03 0 3.39-1.36 3.39-3.65v-4.2h3.07v1.38h-1.6v2.78c0 3-1.65 5.11-4.86 5.11-3.28 0-5.37-2.01-5.37-4.65 0-2.09 1.15-3.44 3.07-4.04-1.36-.41-2.1-1.52-2.1-2.95 0-2.57 2.2-3.79 4.65-3.79 1.67 0 3.07.53 3.8 1.5l-1.29 1z"
    fill="hsl(0, 0%, 100%)"
  />
  <path d="M15.08 23h-1.89v12.06h1.89V23z" fill="hsl(0, 0%, 100%)" />
  <path
    d="M14.24 0C8.1 0 4.68 2.81 2.9 5.14A14.37 14.37 0 000 13.41c0 5.53 2.23 9.07 4.12 11.09.7.73 1.43 1.32 2.06 1.84.73.59 1.46 1.18 1.57 1.6.2 1.14.38 2.81.42 4.51.03 1.08.49 1.7.87 2.02.7.59 1.57.59 1.85.55h3.25v-1.87h-3.46s-.28 0-.45-.1c-.18-.15-.18-.46-.21-.63-.04-1.84-.21-3.58-.46-4.83-.2-1.08-1.15-1.8-2.23-2.71-.6-.49-1.26-1-1.89-1.67-1.57-1.74-3.56-4.86-3.56-9.8 0-3.2 2.24-11.53 12.36-11.53 9.67 0 12.22 7.5 12.22 11.5 0 3.68-1.05 6.74-3.07 9.14-.42.48-.98.97-1.54 1.49-1.3 1.18-2.62 2.4-2.97 4.07-.42 2.11-.28 6.87-.28 7.08v.18c0 .8-.24 1.14-.76 1.14h-7.37c-.2 0-1.36.04-2.13.77-.45.41-.66 1-.66 1.67 0 1.8 1.74 2.43 2.93 2.43h7.64c.74 0 .74 1.14 0 1.14H10.1a2.38 2.38 0 00-2.41 2.47c0 .66.24 1.22.7 1.63.73.7 1.85.77 2.3.77h9.77v-1.88H10.12c-.73 0-.73-1.14 0-1.14h7.89c.49 0 1.33-.14 1.92-.7.45-.45.7-1.04.7-1.7 0-.7-.25-1.25-.7-1.7-.84-.77-2.02-.7-2.37-.7h-7.44c-.73 0-.73-1.15 0-1.15h8.52c.49 0 .87-.2 1.22-.52.77-.73.66-1.98.66-2.78 0-.34-.14-4.8.21-6.63.21-1.08 1.26-2.02 2.38-3.03.59-.52 1.18-1.07 1.67-1.66 2.34-2.71 3.56-6.22 3.56-10.36C28.34 8.76 25.41 0 14.24 0zM35.78 31.55V5.73h3.87v25.82h-3.87zM43.38 5.73h7.5c3.12 0 5.35.35 6.68 1.01a4.75 4.75 0 012.5 3.51c.36 1.67.53 4.45.53 8.37 0 3.93-.17 6.74-.52 8.38a4.75 4.75 0 01-2.51 3.5c-1.33.67-3.53 1.01-6.67 1.01h-7.5V5.73zm7.26 22.48c2.1 0 3.53-.14 4.3-.45.73-.31 1.22-1.04 1.46-2.26.21-1.21.35-3.5.35-6.84s-.1-5.6-.35-6.81c-.24-1.22-.73-1.98-1.46-2.3-.74-.3-2.17-.45-4.23-.45h-3.35v19.15h3.28v-.04zM62.8 31.55V5.73h14.93v3.34H66.7v7.78h9.53v3.34H66.7v8.02h11.03v3.34H62.79zM96.44 31.55l-1.96-6.53h-9.21l-1.92 6.53h-3.91l7.92-25.82h5.13l7.93 25.82h-3.98zm-6.5-21.9h-.17l-3.56 12.07h7.26L89.95 9.66zM113.16 31.69c-1.02.1-1.96.14-2.86.14-2.73 0-4.75-.35-6-1.08a5.59 5.59 0 01-2.56-3.75c-.42-1.77-.63-4.59-.63-8.38 0-3.78.21-6.56.63-8.37.42-1.8 1.3-3.06 2.55-3.79 1.26-.73 3.28-1.07 6-1.07.91 0 1.85.07 2.87.17.97.1 1.81.24 2.44.42v3.09c-1.54-.21-2.97-.35-4.33-.35-2.06 0-3.49.21-4.3.6-.8.4-1.32 1.24-1.56 2.5a41 41 0 00-.39 6.73 41 41 0 00.39 6.75c.24 1.25.77 2.11 1.57 2.5.8.41 2.23.59 4.3.59 1.74 0 3.24-.1 4.42-.35v3.16c-.7.28-1.53.38-2.54.49zM132.18 31.55l-3.5-9.94h-6.03v9.94h-3.87V5.73h10.15c2 0 3.5.32 4.5.98a4.55 4.55 0 012 2.64c.3 1.1.45 2.57.45 4.34 0 1.84-.21 3.37-.66 4.62a4.42 4.42 0 01-2.73 2.68l3.84 10.52h-4.15v.04zm-1.75-13.69a2.29 2.29 0 001.22-1.39c.18-.63.28-1.56.28-2.78 0-1.25-.1-2.19-.28-2.78a2.04 2.04 0 00-1.15-1.35 6.6 6.6 0 00-2.86-.46h-5.03v9.25h4.9a7.87 7.87 0 002.92-.49zM138.67 31.55V5.73h14.94v3.34h-11.03v7.78h9.53v3.34h-9.53v8.02h11.03v3.34h-14.94zM175.39 31.55l-4.57-19.74h-.14l-4.61 19.74h-4.89L155.5 5.73h3.95l4.3 20.96h.17l4.78-20.96h4.22l4.82 20.96h.2l4.16-20.96h3.88l-5.7 25.82h-4.88zM38.64 38.08c.63 0 1.11.1 1.43.35.31.24.56.56.66 1 .1.42.18 1.01.18 1.71s-.07 1.25-.18 1.67c-.1.41-.31.76-.66 1.04-.35.24-.84.38-1.47.38h-1.36v3.1h-1.53v-9.25h2.93zm-.39 4.73c.35 0 .6-.04.77-.14.14-.1.25-.24.28-.49a7.1 7.1 0 000-2.15.76.76 0 00-.28-.49c-.14-.1-.38-.14-.73-.14h-1.01v3.37h.97v.04zM46.42 44.37h-3.17c0 .6.03.97.06 1.22.07.24.18.38.35.45.18.07.5.1.95.1.42 0 .97-.03 1.64-.1v1.15c-.21.07-.53.1-.91.13-.38.04-.73.07-1.08.07-.77 0-1.33-.1-1.68-.34a1.7 1.7 0 01-.7-1.05c-.1-.48-.14-1.18-.14-2.12 0-.93.04-1.63.14-2.11.1-.5.32-.84.67-1.08.35-.25.87-.35 1.6-.35.74 0 1.22.1 1.54.35.31.24.49.55.6 1 .06.46.1 1.19.1 2.16v.52h.03zm-2.86-2.64c-.14.07-.21.24-.25.45-.03.21-.06.6-.06 1.11h1.81c0-.52-.03-.9-.07-1.1-.03-.25-.14-.39-.24-.46-.1-.07-.32-.1-.56-.1-.28-.04-.5 0-.63.1zM48.3 47.12a1.3 1.3 0 01-.62-1.01 11.5 11.5 0 01-.14-2.23c0-1.04.03-1.77.14-2.25.1-.46.31-.8.63-.98.35-.2.87-.27 1.6-.27.73 0 1.3.1 1.6.27.36.21.57.52.64.98.1.45.14 1.21.14 2.25 0 1.05-.04 1.78-.14 2.23-.1.45-.32.8-.63 1-.35.21-.88.28-1.6.28-.74 0-1.3-.07-1.61-.27zM50.59 46c.1-.1.2-.27.24-.55.03-.28.03-.8.03-1.57 0-.76 0-1.28-.03-1.56-.04-.28-.1-.49-.24-.55-.11-.1-.35-.14-.67-.14-.31 0-.56.03-.66.14-.1.1-.21.27-.25.55-.03.28-.03.8-.03 1.56 0 .77 0 1.29.03 1.57.04.28.1.48.25.55.1.1.35.14.66.14.32.04.56-.03.67-.14zM53.58 40.44h1.32l.07.84h.1c.18-.63.7-.94 1.47-.94.46 0 .84.1 1.09.31.24.21.41.56.52 1.05.1.48.17 1.21.17 2.15s-.03 1.63-.14 2.15c-.1.53-.28.87-.52 1.08-.24.21-.6.31-1.08.31-.77 0-1.26-.27-1.47-.86h-.07v3.37h-1.46v-9.46zm2.96 5.5c.1-.07.21-.28.25-.56.03-.28.07-.8.07-1.5 0-.73-.04-1.21-.07-1.49-.04-.28-.1-.45-.25-.56-.1-.06-.35-.13-.62-.13-.25 0-.42.03-.56.13-.14.1-.21.25-.28.5-.07.23-.07.76-.07 1.55 0 .66.03 1.12.07 1.4.03.3.14.52.24.62.1.1.32.17.6.17.3 0 .52-.03.62-.14zM59.55 47.29v-9.97H61v9.97h-1.46zM66.91 44.37h-3.18c0 .6.04.97.07 1.22.07.24.18.38.35.45.18.07.5.1.94.1.42 0 .98-.03 1.65-.1v1.15c-.21.07-.53.1-.91.13-.39.04-.74.07-1.08.07-.77 0-1.33-.1-1.68-.34a1.7 1.7 0 01-.7-1.05c-.1-.48-.14-1.18-.14-2.12 0-.93.04-1.63.14-2.11.1-.5.32-.84.67-1.08.34-.25.87-.35 1.6-.35.73 0 1.22.1 1.54.35.31.24.49.55.59 1 .07.46.1 1.19.1 2.16v.52h.04zm-2.86-2.64c-.14.07-.21.24-.25.45-.03.21-.07.6-.07 1.11h1.82c0-.52-.04-.9-.07-1.1-.04-.25-.14-.39-.25-.46-.1-.07-.31-.1-.55-.1-.32-.04-.53 0-.63.1zM75.6 39.75c-.17.1-.42.1-.56-.03-.24-.35-.77-.53-1.18-.53-.7 0-1.4.28-1.4 1.12 0 .83.6 1.1 1.64 1.1.2 0 .35.11.35.32v.8c0 .2-.18.31-.35.31h-.45c-.88.14-1.71.6-1.71 1.57 0 1.07.8 1.63 1.81 1.63.98 0 1.6-.7 1.6-1.88v-2.43c0-.2.18-.31.39-.31h1.82c.24 0 .38.1.38.31v.8c0 .2-.18.31-.38.31h-.53v1.36c0 1.98-1.15 3.33-3.28 3.33-2.2 0-3.6-1.32-3.6-3.05 0-1.12.77-1.92 1.65-2.44a1.82 1.82 0 01-1.09-1.7c0-1.7 1.47-2.54 3.15-2.54 1.11 0 2.02.35 2.54 1.01.1.14.04.31-.07.42l-.73.52zM82.2 47.29v-7.82h-1.85v-1.42h5.23v1.42h-1.85v7.82H82.2zM90.54 44.37h-3.18c0 .6.04.97.07 1.22.07.24.18.38.35.45.18.07.5.1.94.1.42 0 .98-.03 1.64-.1v1.15c-.2.07-.52.1-.9.13-.39.04-.74.07-1.08.07-.77 0-1.33-.1-1.68-.34A1.7 1.7 0 0186 46c-.1-.48-.14-1.18-.14-2.12 0-.93.04-1.63.14-2.11.1-.5.32-.84.67-1.08.34-.25.87-.35 1.6-.35.73 0 1.22.1 1.54.35.31.24.48.55.59 1 .07.46.1 1.19.1 2.16v.52h.04zm-2.86-2.64c-.14.07-.21.24-.25.45-.03.21-.07.6-.07 1.11h1.82c0-.52-.04-.9-.07-1.1-.04-.25-.14-.39-.25-.46-.1-.07-.31-.1-.55-.1-.32-.04-.53 0-.63.1zM93.86 47.4c-.67 0-1.16-.11-1.47-.35-.31-.25-.52-.6-.63-1.08-.1-.49-.14-1.18-.14-2.09 0-.9.07-1.6.18-2.08.1-.49.31-.87.62-1.08.32-.24.77-.34 1.4-.34.28 0 .52.03.8.06.28.04.5.07.63.14v1.15c-.38-.07-.73-.1-1.05-.1-.34 0-.59.03-.76.14-.14.1-.25.3-.32.62-.07.31-.07.8-.07 1.53s.04 1.22.07 1.53c.07.31.18.52.32.62.14.1.42.14.76.14a6 6 0 001.09-.1v1.15c-.42.1-.91.13-1.43.13zM99.61 43.54c0-.6-.03-1.01-.07-1.25-.03-.25-.1-.39-.2-.46-.11-.06-.28-.1-.56-.1s-.5.07-.63.17c-.14.1-.21.32-.25.56-.03.24-.03.7-.03 1.29v3.57H96.4v-9.97h1.47v3.93h.07c.1-.31.31-.56.56-.7.24-.14.56-.2.97-.2.46 0 .77.1 1.02.27.24.18.38.42.48.77.08.35.11.8.11 1.42v4.48h-1.47v-3.78zM105.65 43.54c0-.6-.03-1.01-.07-1.25-.03-.25-.1-.39-.2-.46-.11-.06-.29-.1-.56-.1-.28 0-.5.07-.63.17-.14.1-.21.32-.25.56-.03.24-.03.7-.03 1.29v3.57h-1.47v-6.84h1.33l.07.87h.07c.1-.35.31-.6.56-.73.24-.14.59-.24 1-.24.46 0 .81.1 1.02.27.24.18.38.45.45.8.07.35.1.84.1 1.46v4.45h-1.46v-3.82h.07zM109.1 47.12c-.34-.21-.55-.53-.62-1.01-.1-.45-.14-1.22-.14-2.23 0-1.04.03-1.77.14-2.25.1-.46.31-.8.63-.98.35-.2.87-.27 1.6-.27.74 0 1.3.1 1.6.27.32.18.57.52.64.98.1.45.14 1.21.14 2.25 0 1.05-.04 1.78-.14 2.23-.1.45-.32.8-.63 1-.35.21-.87.28-1.6.28-.74 0-1.3-.07-1.61-.27zm2.28-1.12c.1-.1.2-.27.24-.55.04-.28.04-.8.04-1.57 0-.76 0-1.28-.04-1.56-.03-.28-.1-.49-.24-.55-.1-.1-.35-.14-.67-.14-.31 0-.55.03-.66.14-.1.1-.2.27-.24.55-.04.28-.04.8-.04 1.56 0 .77 0 1.29.04 1.57.03.28.1.48.24.55.1.1.35.14.66.14.32 0 .56-.03.67-.14zM114.38 47.29v-9.97h1.46v9.97h-1.46zM117.83 47.12c-.34-.21-.55-.53-.62-1.01-.1-.45-.14-1.22-.14-2.23 0-1.04.03-1.77.14-2.25.1-.46.31-.8.62-.98.35-.2.88-.27 1.6-.27.74 0 1.3.1 1.61.27.32.18.56.52.63.98.1.45.14 1.21.14 2.25 0 1.05-.03 1.78-.14 2.23-.1.45-.31.8-.63 1-.34.21-.87.28-1.6.28-.73 0-1.26-.07-1.6-.27zm2.3-1.12c.11-.1.22-.27.25-.55.04-.28.04-.8.04-1.57 0-.76 0-1.28-.04-1.56-.03-.28-.1-.49-.24-.55-.1-.1-.35-.14-.67-.14-.31 0-.55.03-.66.14-.1.1-.2.27-.24.55-.04.28-.04.8-.04 1.56 0 .77 0 1.29.04 1.57.03.28.1.48.24.55.1.1.35.14.66.14.32.04.53-.03.67-.14zM124.15 49.93a13.5 13.5 0 01-.84-.1v-1.15l1.5.03c.46 0 .77-.03.95-.13a.6.6 0 00.35-.5c.07-.23.07-.65.07-1.24v-.35h-.07c-.1.31-.28.52-.53.66-.24.14-.56.2-.9.2-.5 0-.84-.1-1.09-.3-.24-.21-.42-.56-.52-1.05-.1-.48-.14-1.18-.14-2.12 0-.93.07-1.63.17-2.15.1-.49.28-.87.56-1.04.25-.21.63-.31 1.09-.31.76 0 1.25.3 1.46.93h.07l.07-.83h1.36v5.98c0 .93-.03 1.63-.14 2.12-.1.48-.31.83-.7 1.07-.34.25-.9.35-1.67.35-.35 0-.7-.03-1.05-.07zm1.71-4.06c.14-.1.21-.25.25-.5.07-.23.1-.76.1-1.55 0-.7-.03-1.15-.07-1.43a1.04 1.04 0 00-.24-.59c-.14-.1-.32-.14-.6-.14-.31 0-.52.04-.63.1-.1.07-.2.25-.24.53-.03.27-.07.76-.07 1.49 0 .7.04 1.18.07 1.46.03.28.1.49.24.56.11.07.32.13.63.13.25.07.42.04.56-.06zM130.22 49.93a13.5 13.5 0 01-.83-.1v-1.19c.52.04 1.04.04 1.5.04.45 0 .77-.04.94-.14.17-.1.31-.24.35-.49.03-.24.07-.62.07-1.21v-.45h-.1c-.18.59-.7.9-1.47.9-.49 0-.84-.1-1.08-.28a1.4 1.4 0 01-.46-.87c-.07-.38-.1-.97-.1-1.7v-3.96h1.46v3.72c0 .62 0 1.04.04 1.28.03.25.1.39.2.45.11.07.29.1.57.1.28 0 .48-.06.63-.16.13-.1.2-.32.24-.56.03-.24.03-.7.03-1.29v-3.54h1.47v5.98c0 .93-.03 1.63-.14 2.12-.1.48-.31.83-.66 1.07-.35.25-.91.35-1.64.35-.35 0-.67-.03-1.02-.07zM142.3 39.75c-.17.1-.42.1-.56-.03-.24-.35-.77-.53-1.18-.53-.7 0-1.4.28-1.4 1.12 0 .83.6 1.1 1.64 1.1.21 0 .35.11.35.32v.8c0 .2-.18.31-.35.31h-.42c-.87.14-1.7.6-1.7 1.57 0 1.07.8 1.63 1.8 1.63.98 0 1.61-.7 1.61-1.88v-2.43c0-.2.18-.31.39-.31h1.81c.25 0 .38.1.38.31v.8c0 .2-.17.31-.38.31h-.52v1.36c0 1.98-1.16 3.33-3.28 3.33-2.2 0-3.6-1.32-3.6-3.05 0-1.12.77-1.92 1.64-2.44a1.82 1.82 0 01-1.08-1.7c0-1.7 1.47-2.54 3.14-2.54 1.12 0 2.03.35 2.55 1.01.1.14.03.31-.07.42l-.77.52zM147.43 38.08h2.9c.63 0 1.12.1 1.46.35.32.24.56.56.67 1 .1.42.17 1.01.17 1.71s-.07 1.25-.17 1.67c-.1.41-.32.76-.67 1.04-.34.24-.83.38-1.46.38h-1.36v3.1h-1.54v-9.25zm2.51 4.73c.35 0 .6-.04.77-.14.14-.1.25-.24.28-.49a7.08 7.08 0 000-2.15.76.76 0 00-.28-.49c-.14-.1-.38-.14-.73-.14h-1.01v3.37h.97v.04zM156.9 46.46h-.08c-.1.34-.31.59-.56.73-.24.13-.6.24-1.01.24-.45 0-.8-.1-1.01-.28a1.23 1.23 0 01-.46-.8c-.07-.35-.1-.83-.1-1.46v-4.45h1.47v3.76c0 .62 0 1.04.03 1.25.03.24.1.38.21.45.1.07.28.1.56.1s.49-.07.63-.17.2-.31.24-.59c.04-.28.07-.7.07-1.29v-3.57h1.47v6.84h-1.37l-.1-.76zM159.72 40.44h1.32l.07 1.19h.1c.15-.49.36-.8.6-1.01.28-.18.63-.28 1.05-.28v1.53c-.42 0-.73.07-.98.2a1.2 1.2 0 00-.52.7c-.1.32-.18.77-.18 1.36v3.16h-1.46v-6.85zM163.8 40.44h1.33l.07.84h.1c.18-.63.7-.94 1.47-.94.45 0 .84.1 1.08.31.25.21.42.56.52 1.05.1.48.18 1.21.18 2.15s-.04 1.63-.14 2.15c-.1.53-.28.87-.53 1.08-.24.21-.59.31-1.08.31-.77 0-1.25-.27-1.46-.86h-.07v3.37h-1.47v-9.46zm2.97 5.5c.1-.07.2-.28.24-.56.04-.28.07-.8.07-1.5 0-.73-.03-1.21-.07-1.49-.03-.28-.1-.45-.24-.56-.1-.06-.35-.13-.63-.13-.24 0-.42.03-.56.13-.1.1-.2.25-.28.5-.07.23-.07.76-.07 1.55 0 .66.04 1.12.07 1.4.04.3.14.52.25.62.1.1.31.17.59.17.31 0 .52-.03.63-.14zM170.4 47.12a1.3 1.3 0 01-.63-1.01c-.1-.45-.14-1.22-.14-2.23 0-1.04.03-1.77.14-2.25.1-.46.31-.8.63-.98.31-.17.87-.27 1.6-.27.74 0 1.3.1 1.6.27.36.21.57.52.64.98.1.45.14 1.21.14 2.25 0 1.05-.04 1.78-.14 2.23-.1.45-.32.8-.63 1-.35.21-.87.28-1.6.28-.77 0-1.3-.07-1.61-.27zm2.27-1.12c.1-.1.2-.27.24-.55.04-.28.04-.8.04-1.57 0-.76 0-1.28-.04-1.56-.03-.28-.1-.49-.24-.55-.1-.1-.35-.14-.67-.14-.31 0-.56.03-.66.14-.1.1-.2.27-.24.55-.04.28-.04.8-.04 1.56 0 .77 0 1.29.04 1.57.03.28.1.48.24.55.1.1.35.14.66.14.32.04.53-.03.67-.14zM176.47 47.36a6.78 6.78 0 01-.94-.14v-1.18c.66.07 1.19.1 1.64.1.28 0 .49-.03.63-.07.14-.03.2-.14.28-.24.03-.1.07-.28.07-.49 0-.24 0-.41-.04-.52-.03-.1-.07-.17-.14-.2-.07-.04-.2-.08-.38-.11l-1.19-.17c-.38-.07-.63-.21-.77-.52a3.47 3.47 0 01-.2-1.43c0-.76.17-1.32.55-1.6.39-.31.91-.45 1.64-.45.28 0 .6.04.91.07.31.03.6.1.77.14v1.15a10.9 10.9 0 00-1.5-.1c-.35 0-.6.03-.74.13-.13.1-.2.31-.2.63 0 .2 0 .38.03.48.04.1.07.18.14.21.07.04.17.07.35.1l1.01.14c.25.04.49.1.66.21.18.1.32.32.42.6.1.27.14.65.14 1.17 0 .8-.17 1.4-.49 1.67-.34.32-.87.45-1.57.45-.38 0-.73 0-1.08-.03zM185.13 44.37h-3.18c0 .6.04.97.07 1.22.07.24.18.38.35.45.17.07.49.1.94.1.42 0 .98-.03 1.64-.1v1.15c-.2.07-.52.1-.9.13-.39.04-.74.07-1.09.07-.76 0-1.32-.1-1.67-.34a1.7 1.7 0 01-.7-1.05c-.1-.48-.14-1.18-.14-2.12 0-.93.04-1.63.14-2.11.1-.5.31-.84.66-1.08.35-.25.88-.35 1.6-.35.74 0 1.23.1 1.54.35.32.24.5.55.6 1 .07.46.1 1.19.1 2.16v.52h.04zm-2.87-2.64c-.13.07-.2.24-.24.45-.03.21-.07.6-.07 1.11h1.82c0-.52-.04-.9-.07-1.1-.04-.25-.14-.39-.25-.46-.1-.07-.31-.1-.56-.1-.31-.04-.48 0-.63.1z"
    fill="hsl(0, 0%, 100%)"
  />
</svg>
