<svg
  width="187"
  height="36"
  viewBox="0 0 187 36"
  fill="none"
  xmlns="http://www.w3.org/2000/svg"
>
  <path
    d="M12.999 10.8629C12.6644 10.3611 11.9476 10.0982 11.2308 10.0982C10.275 10.0982 9.17582 10.5522 9.17582 11.7231C9.17582 12.8939 10.0838 13.3718 11.4936 13.3718V14.3276C11.3263 14.3276 11.1352 14.3276 10.944 14.3515C9.62982 14.471 8.57846 15.0683 8.57846 16.5259C8.57846 18.0312 9.7254 18.772 11.1113 18.772C12.4972 18.772 13.4291 17.8401 13.4291 16.263V13.3718H15.5318V14.3276H14.4326V16.2392C14.4326 18.2941 13.3096 19.7517 11.1113 19.7517C8.86519 19.7517 7.43152 18.3658 7.43152 16.5498C7.43152 15.1161 8.22004 14.1842 9.53424 13.778C8.60235 13.4913 8.10057 12.7266 8.10057 11.747C8.10057 9.97877 9.60593 9.14246 11.2785 9.14246C12.4255 9.14246 13.3813 9.50087 13.8831 10.1699L12.999 10.8629Z"
    fill="#000333"
  />
  <path
    d="M11.111 19.8471C8.88884 19.8471 7.33569 18.4851 7.33569 16.5497C7.33569 15.2116 8.00474 14.2558 9.24726 13.7779C8.43484 13.4195 7.98085 12.7027 7.98085 11.7708C7.98085 9.78752 9.74905 9.07068 11.2544 9.07068C12.4491 9.07068 13.4288 9.45299 13.9545 10.1459L14.0023 10.2176L12.9748 11.03L12.927 10.9584C12.6403 10.5282 11.9712 10.2415 11.2544 10.2415C10.5137 10.2415 9.29505 10.576 9.29505 11.7708C9.29505 12.7982 10.0358 13.3239 11.5172 13.3239H11.6128V14.447H11.5172C11.35 14.447 11.1588 14.447 10.9677 14.4709C9.91631 14.5664 8.67379 14.9965 8.67379 16.5497C8.67379 17.8639 9.62957 18.7002 11.111 18.7002C12.473 18.7002 13.3332 17.7683 13.3332 16.2868V13.2761H15.6271V14.4231H14.528V16.2391C14.528 18.4851 13.2616 19.8471 11.111 19.8471ZM11.2544 9.23794C9.82073 9.23794 8.172 9.90699 8.172 11.7469C8.172 12.7027 8.67379 13.3956 9.534 13.6823L9.82073 13.7779L9.534 13.8496C8.1959 14.2797 7.50296 15.2116 7.50296 16.5258C7.50296 18.3657 8.98442 19.656 11.111 19.656C13.1421 19.656 14.3368 18.3896 14.3368 16.2391V14.2319H15.436V13.4673H13.5244V16.2152C13.5244 17.8161 12.5925 18.8197 11.111 18.8197C9.5101 18.8197 8.48263 17.9117 8.48263 16.478C8.48263 15.1638 9.34284 14.3514 10.9438 14.2319C11.111 14.208 11.2544 14.208 11.4217 14.208V13.4434C9.89241 13.4195 9.10389 12.8221 9.10389 11.6991C9.10389 10.5044 10.1791 9.97867 11.2544 9.97867C11.9951 9.97867 12.6881 10.2654 13.0226 10.6955L13.7394 10.122C13.2377 9.57247 12.3536 9.23794 11.2544 9.23794Z"
    fill="#000333"
  />
  <path d="M11.9713 19.2261H10.681V27.5175H11.9713V19.2261Z" fill="#000333" />
  <path
    d="M11.3979 3.38391C7.19247 3.38391 4.8508 5.31937 3.63218 6.92031C2.17461 8.83188 1.64893 11.1258 1.64893 12.6072C1.64893 16.4065 3.17818 18.8437 4.46849 20.2296C4.94638 20.7314 5.44817 21.1376 5.87827 21.496C6.38006 21.9022 6.88184 22.3084 6.95353 22.5952C7.09689 23.3837 7.21637 24.5306 7.24026 25.7015C7.26415 26.4422 7.57478 26.8723 7.83763 27.0873C8.31552 27.4936 8.91288 27.4936 9.10404 27.4697H11.3262V26.1794H9.08014H8.98457C8.98457 26.1794 8.79341 26.1794 8.67394 26.1077C8.55446 26.0121 8.55446 25.797 8.53057 25.6776C8.50667 24.4112 8.3872 23.2164 8.21994 22.3562C8.07657 21.6155 7.43142 21.1137 6.69068 20.4924C6.28448 20.1579 5.83048 19.7995 5.40038 19.3455C4.30123 18.1508 2.93923 16.0003 2.93923 12.6311C2.93923 10.4328 4.46849 4.69811 11.3979 4.69811C18.0167 4.69811 19.761 9.85935 19.761 12.6072C19.761 15.1401 19.0442 17.2428 17.6583 18.8915C17.3716 19.226 16.9893 19.5606 16.6069 19.919C15.7228 20.7314 14.8148 21.5677 14.5759 22.7146C14.2892 24.1722 14.3847 27.4458 14.3847 27.5891V27.7086C14.3847 28.2582 14.2175 28.4971 13.8591 28.4971L8.8173 28.521C8.67394 28.521 7.88541 28.5449 7.35973 29.0467C7.0491 29.3334 6.90574 29.7396 6.90574 30.1936C6.90574 31.4362 8.10047 31.8663 8.91288 31.8663H9.15183H14.1458C14.6476 31.8663 14.6476 32.6548 14.1458 32.6548H8.55446C8.14825 32.6548 7.78984 32.7743 7.43142 33.0849C7.19247 33.2999 6.90574 33.6823 6.90574 34.3513C6.90574 34.8053 7.073 35.1876 7.38363 35.4743C7.88541 35.9522 8.65004 36 8.96067 36C9.00846 36 9.05625 36 9.08014 36H15.6512V34.638H12.4493H8.57836C8.07657 34.638 8.07657 33.8495 8.57836 33.8495H13.5484H13.7635H13.7874H13.9785C14.3131 33.8495 14.8865 33.7539 15.2927 33.3716C15.6034 33.061 15.7706 32.6548 15.7706 32.2008C15.7706 31.7229 15.6034 31.3406 15.2927 31.03C14.7193 30.5043 13.9069 30.5521 13.6679 30.5521H8.8173H8.55446C8.05268 30.5521 8.05268 29.7635 8.55446 29.7635H9.55804H14.3847C14.7193 29.7635 14.9821 29.6202 15.2211 29.4051C15.7467 28.9033 15.6751 28.0431 15.6751 27.4936C15.6751 27.2546 15.5795 24.1961 15.8184 22.9297C15.9618 22.189 16.6786 21.5438 17.4433 20.8509C17.8495 20.4924 18.2557 20.1101 18.5902 19.7039C20.1911 17.8401 21.0274 15.4268 21.0274 12.5833C21.0752 9.40535 19.0442 3.38391 11.3979 3.38391Z"
    fill="#000333"
  />
  <path d="M33.8284 33.7769V7.32263H37.7805V33.7769H33.8284Z" fill="#000333" />
  <path
    d="M41.5905 7.32263H49.2455C52.4143 7.32263 54.693 7.67868 56.046 8.35517C57.399 9.03166 58.2535 10.2422 58.6095 11.9512C58.9656 13.6603 59.1436 16.5087 59.1436 20.532C59.1436 24.5553 58.9656 27.4393 58.6095 29.1127C58.2535 30.8217 57.399 32.0323 56.046 32.7088C54.693 33.3853 52.4499 33.7413 49.2455 33.7413H41.5905V7.32263ZM48.9962 30.3589C51.1325 30.3589 52.5923 30.2165 53.3756 29.896C54.1233 29.5756 54.6218 28.8279 54.871 27.5817C55.0846 26.3356 55.2271 23.9856 55.2271 20.5676C55.2271 17.1495 55.1202 14.8352 54.871 13.5891C54.6218 12.3429 54.1233 11.5596 53.3756 11.2392C52.6279 10.9187 51.1681 10.7763 49.0674 10.7763H45.6494V30.3945H48.9962V30.3589Z"
    fill="#000333"
  />
  <path
    d="M61.4221 33.7769V7.32263H76.6609V10.7407H65.3742V18.7161H75.0943V22.1342H65.3742V30.3589H76.6253V33.7769H61.4221Z"
    fill="#000333"
  />
  <path
    d="M95.7096 33.7769L93.7158 27.0833H84.3161L82.3578 33.7769H78.3701L86.4524 7.32263H91.7219L99.8042 33.7769H95.7096ZM89.0871 11.346H88.9091L85.2774 23.7008H92.6832L89.0871 11.346Z"
    fill="#000333"
  />
  <path
    d="M112.764 33.9192C111.732 34.026 110.77 34.0616 109.845 34.0616C107.067 34.0616 105.002 33.7056 103.721 32.9579C102.439 32.2102 101.549 30.9284 101.121 29.1126C100.694 27.2967 100.48 24.4127 100.48 20.5318C100.48 16.6509 100.694 13.8025 101.121 11.9511C101.549 10.0996 102.439 8.81788 103.721 8.07018C105.002 7.32248 107.067 6.96643 109.845 6.96643C110.77 6.96643 111.732 7.03764 112.764 7.14445C113.761 7.25127 114.616 7.39369 115.256 7.57171V10.7405C113.69 10.5269 112.23 10.3845 110.841 10.3845C108.741 10.3845 107.281 10.5981 106.462 10.9898C105.643 11.417 105.109 12.2715 104.86 13.5533C104.611 14.8351 104.468 17.185 104.468 20.4606C104.468 23.7363 104.611 26.0862 104.86 27.3679C105.109 28.6497 105.643 29.5398 106.462 29.9315C107.281 30.3587 108.741 30.5368 110.841 30.5368C112.622 30.5368 114.153 30.4299 115.363 30.1807V33.4207C114.651 33.7056 113.797 33.8124 112.764 33.9192Z"
    fill="#000333"
  />
  <path
    d="M132.169 33.7769L128.608 23.594H128.395H122.484V33.7769H118.532V7.32263H128.893C130.923 7.32263 132.454 7.64307 133.486 8.31956C134.519 8.99605 135.195 9.88617 135.516 11.0255C135.836 12.1649 135.979 13.6603 135.979 15.4761C135.979 17.3632 135.765 18.9298 135.302 20.2115C134.839 21.4933 133.913 22.419 132.525 22.9531L136.441 33.7413H132.169V33.7769ZM130.424 19.7487C131.065 19.4282 131.457 18.9654 131.67 18.3245C131.848 17.6836 131.955 16.7223 131.955 15.4761C131.955 14.1943 131.848 13.233 131.67 12.6277C131.492 11.9869 131.101 11.524 130.495 11.2392C129.89 10.9187 128.893 10.7763 127.576 10.7763H122.449V20.2115H127.433C128.786 20.2115 129.783 20.0335 130.424 19.7487Z"
    fill="#000333"
  />
  <path
    d="M138.827 33.7769V7.32263H154.03V10.7407H142.779V18.7161H152.499V22.1342H142.779V30.3589H154.03V33.7769H138.827Z"
    fill="#000333"
  />
  <path
    d="M176.247 33.7769L171.548 13.5535H171.405L166.705 33.7769H161.721L155.917 7.32263H159.94L164.32 28.7923H164.498L169.376 7.32263H173.684L178.597 28.7923H178.811L183.048 7.32263H187L181.196 33.7769H176.247Z"
    fill="#000333"
  />
</svg>
