<svg
  width="1200"
  height="630"
  viewBox="0 0 1200 630"
  fill="none"
  xmlns="http://www.w3.org/2000/svg"
>
  <path
    d="M125.48 226.646C122.445 222.107 115.942 219.73 109.439 219.73C100.768 219.73 90.7972 223.836 90.7972 234.426C90.7972 245.016 99.0343 249.339 111.823 249.339V257.983C110.306 257.983 108.572 257.983 106.838 258.2C94.9157 259.28 85.3781 264.683 85.3781 277.867C85.3781 291.482 95.7828 298.182 108.355 298.182C120.928 298.182 129.381 289.753 129.381 275.489V249.339H148.457V257.983H138.486V275.273C138.486 293.86 128.298 307.043 108.355 307.043C87.9792 307.043 74.9733 294.508 74.9733 278.083C74.9733 265.115 82.1266 256.687 94.0487 253.013C85.5948 250.419 81.0428 243.503 81.0428 234.642C81.0428 218.649 94.699 211.085 109.873 211.085C120.277 211.085 128.948 214.327 133.5 220.378L125.48 226.646Z"
    fill="#466CB2"
  />
  <path d="M116.152 302.074H104.447V377.068H116.152V302.074Z" fill="#466CB2" />
  <path
    d="M110.951 159C72.8001 159 51.5571 176.506 40.5021 190.986C27.2794 208.276 22.5106 229.024 22.5106 242.423C22.5106 276.787 36.3835 298.831 48.0889 311.366C52.4242 315.905 56.9762 319.579 60.878 322.821C65.4301 326.495 69.9822 330.169 70.6325 332.762C71.933 339.894 73.0169 350.268 73.2336 360.858C73.4504 367.558 76.2683 371.448 78.6528 373.393C82.9881 377.067 88.4072 377.067 90.1413 376.851H110.3V365.181H88.8407C88.8407 365.181 87.1066 365.181 86.0228 364.532C84.939 363.668 84.939 361.723 84.7222 360.642C84.5054 349.188 83.4216 338.381 81.9042 330.601C80.6037 323.901 74.751 319.363 68.0313 313.744C64.3463 310.718 60.2277 307.476 56.3259 303.37C46.5715 292.564 34.2159 273.113 34.2159 242.423C34.2159 222.54 48.0889 170.671 110.951 170.671C170.995 170.671 186.819 217.353 186.819 242.207C186.819 265.116 180.316 284.135 167.743 299.047C165.142 302.073 161.674 305.099 158.206 308.34C150.185 315.689 141.948 323.253 139.781 333.627C137.179 346.81 138.046 376.419 138.046 377.716V378.796C138.046 383.767 136.529 385.928 133.278 385.928H87.5401C86.2396 385.928 79.0863 386.144 74.3175 390.683C71.4995 393.276 70.1989 396.951 70.1989 401.057C70.1989 412.295 81.0372 416.185 88.4072 416.185H135.879C140.431 416.185 140.431 423.317 135.879 423.317H85.1557C81.4707 423.317 78.2192 424.398 74.9678 427.208C72.8001 429.153 70.1989 432.611 70.1989 438.662C70.1989 442.768 71.7163 446.226 74.5342 448.82C79.0863 453.142 86.0228 453.575 88.8407 453.575C89.2743 453.575 89.7078 453.575 89.9246 453.575H149.535V441.904H85.3725C80.8204 441.904 80.8204 434.772 85.3725 434.772H134.361C137.396 434.772 142.599 433.907 146.284 430.449C149.101 427.64 150.619 423.966 150.619 419.86C150.619 415.537 149.101 412.079 146.284 409.27C141.081 404.515 133.711 404.947 131.543 404.947H85.3725C80.8204 404.947 80.8204 397.815 85.3725 397.815H138.263C141.298 397.815 143.682 396.518 145.85 394.573C150.619 390.035 149.969 382.254 149.969 377.283C149.969 375.122 149.101 347.459 151.269 336.004C152.57 329.304 159.073 323.469 166.009 317.201C169.694 313.96 173.379 310.502 176.414 306.828C190.937 289.97 198.524 268.142 198.524 242.423C198.524 213.463 180.316 159 110.951 159Z"
    fill="#466CB2"
  />
  <path d="M244.695 355.239V194.66H268.756V355.239H244.695Z" fill="#333333" />
  <path
    d="M291.95 194.66H338.554C357.846 194.66 371.719 196.821 379.956 200.928C388.193 205.034 393.396 212.382 395.563 222.756C397.731 233.13 398.815 250.42 398.815 274.841C398.815 299.263 397.731 316.769 395.563 326.927C393.396 337.301 388.193 344.649 379.956 348.755C371.719 352.862 358.063 355.023 338.554 355.023H291.95V194.66V194.66ZM337.037 334.491C350.043 334.491 358.93 333.627 363.699 331.682C368.251 329.736 371.286 325.198 372.803 317.634C374.104 310.069 374.971 295.805 374.971 275.058C374.971 254.31 374.32 240.262 372.803 232.698C371.286 225.133 368.251 220.379 363.699 218.434C359.147 216.489 350.259 215.624 337.47 215.624H316.661V334.707H337.037V334.491Z"
    fill="#333333"
  />
  <path
    d="M412.472 355.239V194.66H505.247V215.408H436.749V263.819H495.926V284.567H436.749V334.491H505.247V355.239H412.472Z"
    fill="#333333"
  />
  <path
    d="M621.433 355.239L609.294 314.608H552.068L540.146 355.239H515.868L565.074 194.66H596.938L646.144 355.239H621.433ZM581.114 219.082H580.03L557.92 294.076H603.008L581.114 219.082Z"
    fill="#333333"
  />
  <path
    d="M725.264 356.103C718.978 356.752 713.125 356.968 707.489 356.968C690.581 356.968 678.009 354.807 670.205 350.268C662.402 345.73 656.983 337.949 654.382 326.927C651.78 315.905 650.48 298.399 650.48 274.841C650.48 251.284 651.78 233.994 654.382 222.756C656.983 211.518 662.402 203.737 670.205 199.199C678.009 194.66 690.581 192.499 707.489 192.499C713.125 192.499 718.978 192.931 725.264 193.58C731.333 194.228 736.536 195.092 740.437 196.173V215.408C730.9 214.111 722.012 213.247 713.558 213.247C700.769 213.247 691.882 214.543 686.896 216.921C681.911 219.514 678.659 224.701 677.142 232.482C675.625 240.262 674.757 254.526 674.757 274.409C674.757 294.292 675.625 308.557 677.142 316.337C678.659 324.117 681.911 329.52 686.896 331.898C691.882 334.491 700.769 335.572 713.558 335.572C724.397 335.572 733.718 334.923 741.088 333.411V353.078C736.752 354.807 731.55 355.455 725.264 356.103Z"
    fill="#466CB2"
  />
  <path
    d="M843.4 355.239L821.724 293.428H820.206H784.223V355.239H760.162V194.66H823.241C835.597 194.66 844.917 196.605 851.204 200.712C857.49 204.818 861.608 210.221 863.559 217.137C865.51 224.053 866.377 233.13 866.377 244.152C866.377 255.607 865.077 265.116 862.259 272.896C859.441 280.677 853.805 286.296 845.351 289.538L869.195 355.023H843.4V355.239ZM832.562 270.087C836.464 268.142 838.848 265.332 840.149 261.442C841.232 257.552 841.883 251.716 841.883 244.152C841.883 236.372 841.232 230.536 840.149 226.862C839.065 222.972 836.68 220.163 832.995 218.434C829.31 216.489 823.241 215.624 815.221 215.624H784.006V273.113H814.354C822.807 272.896 828.877 271.816 832.562 270.087Z"
    fill="#466CB2"
  />
  <path
    d="M883.719 355.239V194.66H976.494V215.408H907.996V263.819H967.173V284.567H907.996V334.491H976.494V355.239H883.719Z"
    fill="#466CB2"
  />
  <path
    d="M1111.76 355.239L1083.36 232.482H1082.49L1053.88 355.239H1023.53L988.2 194.66H1012.69L1039.36 324.982H1040.44L1070.14 194.66H1096.37L1126.28 324.982H1127.58L1153.37 194.66H1177.44L1142.1 355.239H1111.76Z"
    fill="#466CB2"
  />
  <path
    d="M244.478 395.87H262.47C266.371 395.87 269.406 396.518 271.357 398.031C273.308 399.544 274.825 401.489 275.475 404.299C276.126 406.892 276.559 410.566 276.559 414.889C276.559 419.211 276.126 422.669 275.475 425.263C274.825 427.856 273.525 430.017 271.357 431.746C269.189 433.259 266.155 434.124 262.253 434.124H253.799V453.359H244.261V395.87H244.478ZM260.085 425.263C262.253 425.263 263.77 425.047 264.854 424.398C265.721 423.75 266.371 422.885 266.588 421.372C266.805 420.076 267.022 417.698 267.022 414.673C267.022 411.647 266.805 409.486 266.588 407.973C266.371 406.676 265.721 405.596 264.854 404.947C263.987 404.299 262.47 404.083 260.302 404.083H254.016V425.047H260.085V425.263Z"
    fill="#333333"
  />
  <path
    d="M310.808 434.988H291.082C291.082 438.662 291.299 441.04 291.516 442.552C291.949 444.065 292.6 444.93 293.684 445.362C294.767 445.794 296.718 446.01 299.536 446.01C302.137 446.01 305.606 445.794 309.724 445.362V452.494C308.424 452.926 306.473 453.142 304.088 453.358C301.704 453.575 299.536 453.791 297.369 453.791C292.6 453.791 289.131 453.142 286.964 451.629C284.796 450.117 283.279 447.955 282.629 445.146C281.978 442.12 281.761 437.798 281.761 431.962C281.761 426.127 281.978 421.805 282.629 418.779C283.279 415.753 284.579 413.592 286.747 412.079C288.915 410.566 292.166 409.918 296.718 409.918C301.27 409.918 304.305 410.566 306.256 412.079C308.207 413.592 309.291 415.537 309.941 418.347C310.375 421.156 310.591 425.695 310.591 431.746V434.988H310.808ZM293.033 418.563C292.166 418.995 291.733 420.076 291.516 421.372C291.299 422.669 291.082 425.047 291.082 428.288H302.354C302.354 425.047 302.137 422.669 301.921 421.372C301.704 419.86 301.054 418.995 300.403 418.563C299.753 418.131 298.452 417.914 296.935 417.914C295.201 417.698 293.9 417.914 293.033 418.563Z"
    fill="#333333"
  />
  <path
    d="M322.514 452.062C320.346 450.765 319.046 448.82 318.612 445.794C317.962 442.985 317.745 438.23 317.745 431.963C317.745 425.479 317.962 420.94 318.612 417.915C319.262 415.105 320.563 412.944 322.514 411.863C324.681 410.566 327.933 410.134 332.485 410.134C337.037 410.134 340.505 410.783 342.456 411.863C344.624 413.16 345.924 415.105 346.358 417.915C347.008 420.724 347.225 425.479 347.225 431.963C347.225 438.446 347.008 442.985 346.358 445.794C345.708 448.604 344.407 450.765 342.456 452.062C340.289 453.359 337.037 453.791 332.485 453.791C327.933 453.791 324.465 453.359 322.514 452.062ZM336.604 445.146C337.254 444.498 337.904 443.417 338.121 441.688C338.338 439.959 338.338 436.717 338.338 431.963C338.338 427.208 338.338 423.966 338.121 422.237C337.904 420.508 337.471 419.211 336.604 418.779C335.953 418.131 334.436 417.915 332.485 417.915C330.534 417.915 329.017 418.131 328.367 418.779C327.716 419.427 327.066 420.508 326.849 422.237C326.632 423.966 326.632 427.208 326.632 431.963C326.632 436.717 326.632 439.959 326.849 441.688C327.066 443.417 327.499 444.714 328.367 445.146C329.017 445.794 330.534 446.01 332.485 446.01C334.436 446.227 335.953 445.794 336.604 445.146Z"
    fill="#333333"
  />
  <path
    d="M355.245 410.566H363.482L363.916 415.753H364.566C365.65 411.863 368.901 409.918 373.67 409.918C376.488 409.918 378.873 410.566 380.39 411.863C381.907 413.16 382.991 415.321 383.642 418.347C384.292 421.372 384.725 425.911 384.725 431.746C384.725 437.582 384.509 441.904 383.858 445.146C383.208 448.388 382.124 450.549 380.607 451.846C379.089 453.142 376.922 453.791 373.887 453.791C369.118 453.791 366.083 452.062 364.783 448.388H364.349V469.352H355.245V410.566V410.566ZM373.67 444.714C374.321 444.281 374.971 442.985 375.188 441.256C375.404 439.527 375.621 436.285 375.621 431.962C375.621 427.424 375.404 424.398 375.188 422.669C374.971 420.94 374.537 419.86 373.67 419.211C373.02 418.779 371.503 418.347 369.769 418.347C368.251 418.347 367.167 418.563 366.3 419.211C365.433 419.86 365 420.724 364.566 422.237C364.133 423.75 364.133 426.992 364.133 431.962C364.133 436.069 364.349 438.878 364.566 440.607C364.783 442.552 365.433 443.849 366.084 444.498C366.734 445.146 368.034 445.578 369.769 445.578C371.719 445.578 373.02 445.362 373.67 444.714Z"
    fill="#333333"
  />
  <path d="M392.312 453.142V391.115H401.416V453.142H392.312Z" fill="#333333" />
  <path
    d="M438.049 434.988H418.324C418.324 438.662 418.54 441.04 418.757 442.552C419.191 444.065 419.841 444.93 420.925 445.362C422.009 445.794 423.96 446.01 426.778 446.01C429.379 446.01 432.847 445.794 436.965 445.362V452.494C435.665 452.926 433.714 453.142 431.33 453.358C428.945 453.575 426.778 453.791 424.61 453.791C419.841 453.791 416.373 453.142 414.205 451.629C412.037 450.117 410.52 447.955 409.87 445.146C409.22 442.12 409.003 437.798 409.003 431.962C409.003 426.127 409.22 421.805 409.87 418.779C410.52 415.753 411.821 413.592 413.988 412.079C416.156 410.566 419.407 409.918 423.96 409.918C428.512 409.918 431.546 410.566 433.497 412.079C435.448 413.592 436.532 415.537 437.182 418.347C437.616 421.156 437.833 425.695 437.833 431.746V434.988H438.049ZM420.275 418.563C419.408 418.995 418.974 420.076 418.757 421.372C418.54 422.669 418.324 425.047 418.324 428.288H429.595C429.595 425.047 429.379 422.669 429.162 421.372C428.945 419.86 428.295 418.995 427.645 418.563C426.994 418.131 425.694 417.914 424.176 417.914C422.225 417.698 420.925 417.914 420.275 418.563Z"
    fill="#333333"
  />
  <path
    d="M492.024 406.244C490.94 406.892 489.423 406.892 488.556 406.028C487.039 403.866 483.787 402.786 481.186 402.786C476.851 402.786 472.515 404.515 472.515 409.702C472.515 414.889 476.2 416.617 482.703 416.617C484.004 416.617 484.871 417.266 484.871 418.563V423.533C484.871 424.83 483.787 425.479 482.703 425.479H479.885C474.466 426.343 469.264 429.153 469.264 435.204C469.264 441.904 474.249 445.362 480.536 445.362C486.605 445.362 490.507 441.039 490.507 433.691V418.563C490.507 417.266 491.591 416.617 492.891 416.617H504.163C505.68 416.617 506.547 417.266 506.547 418.563V423.533C506.547 424.83 505.464 425.479 504.163 425.479H500.911V433.907C500.911 446.226 493.758 454.655 480.536 454.655C466.879 454.655 458.209 446.442 458.209 435.636C458.209 428.72 462.978 423.75 468.397 420.508C464.061 418.563 461.677 414.456 461.677 409.918C461.677 399.328 470.781 394.141 481.186 394.141C488.122 394.141 493.758 396.302 497.01 400.408C497.66 401.273 497.226 402.353 496.576 403.002L492.024 406.244Z"
    fill="#466CB2"
  />
  <path
    d="M532.993 453.142V404.515H521.504V395.654H554.019V404.515H542.531V453.142H532.993Z"
    fill="#333333"
  />
  <path
    d="M584.8 434.988H565.074C565.074 438.662 565.291 441.04 565.508 442.552C565.941 444.065 566.591 444.93 567.675 445.362C568.759 445.794 570.71 446.01 573.528 446.01C576.129 446.01 579.597 445.794 583.716 445.362V452.494C582.415 452.926 580.464 453.142 578.08 453.358C575.695 453.575 573.528 453.791 571.36 453.791C566.591 453.791 563.123 453.142 560.955 451.629C558.788 450.117 557.27 447.955 556.62 445.146C555.97 442.12 555.753 437.798 555.753 431.962C555.753 426.127 555.97 421.805 556.62 418.779C557.27 415.753 558.571 413.592 560.739 412.079C562.906 410.566 566.158 409.918 570.71 409.918C575.262 409.918 578.297 410.566 580.248 412.079C582.198 413.592 583.282 415.537 583.933 418.347C584.366 421.156 584.583 425.695 584.583 431.746V434.988H584.8ZM567.025 418.563C566.158 418.995 565.724 420.076 565.508 421.372C565.291 422.669 565.074 425.047 565.074 428.288H576.346C576.346 425.047 576.129 422.669 575.912 421.372C575.696 419.86 575.045 418.995 574.395 418.563C573.745 418.131 572.444 417.914 570.927 417.914C568.976 417.698 567.675 417.914 567.025 418.563Z"
    fill="#333333"
  />
  <path
    d="M605.392 453.791C601.274 453.791 598.239 453.142 596.288 451.63C594.337 450.117 593.037 447.956 592.386 444.93C591.736 441.904 591.519 437.582 591.519 431.963C591.519 426.343 591.953 422.021 592.603 418.995C593.253 415.969 594.554 413.592 596.505 412.295C598.456 410.783 601.274 410.134 605.175 410.134C606.91 410.134 608.427 410.35 610.161 410.566C611.895 410.783 613.196 410.999 614.063 411.431V418.563C611.678 418.131 609.511 417.915 607.56 417.915C605.392 417.915 603.875 418.131 602.791 418.779C601.924 419.427 601.274 420.724 600.84 422.669C600.407 424.614 600.407 427.64 600.407 432.179C600.407 436.717 600.623 439.743 600.84 441.688C601.274 443.633 601.924 444.93 602.791 445.578C603.658 446.227 605.392 446.443 607.56 446.443C609.727 446.443 611.895 446.227 614.28 445.794V452.926C611.678 453.575 608.644 453.791 605.392 453.791Z"
    fill="#333333"
  />
  <path
    d="M641.159 429.801C641.159 426.127 640.942 423.534 640.725 422.021C640.508 420.508 640.075 419.643 639.425 419.211C638.774 418.779 637.69 418.563 635.956 418.563C634.222 418.563 632.922 418.995 632.055 419.643C631.188 420.292 630.754 421.588 630.537 423.101C630.32 424.614 630.32 427.424 630.32 431.098V453.358H621.216V391.331H630.32V415.753H630.754C631.404 413.808 632.705 412.295 634.222 411.431C635.74 410.566 637.69 410.134 640.292 410.134C643.11 410.134 645.06 410.782 646.578 411.863C648.095 412.944 648.962 414.456 649.613 416.618C650.046 418.779 650.263 421.588 650.263 425.479V453.358H641.159V429.801V429.801Z"
    fill="#333333"
  />
  <path
    d="M678.659 429.801C678.659 426.127 678.442 423.534 678.225 422.021C678.009 420.508 677.575 419.644 676.925 419.211C676.274 418.779 675.191 418.563 673.456 418.563C671.722 418.563 670.422 418.995 669.555 419.644C668.688 420.292 668.254 421.589 668.037 423.101C667.821 424.614 667.821 427.424 667.821 431.098V453.359H658.716V410.783H666.954L667.387 416.186H667.821C668.471 414.024 669.771 412.512 671.289 411.647C672.806 410.783 674.974 410.134 677.575 410.134C680.393 410.134 682.561 410.783 683.861 411.863C685.379 412.944 686.246 414.673 686.679 416.834C687.113 418.995 687.33 422.021 687.33 425.911V453.575H678.225V429.801H678.659Z"
    fill="#333333"
  />
  <path
    d="M700.119 452.062C697.951 450.765 696.651 448.82 696.217 445.794C695.567 442.985 695.35 438.23 695.35 431.963C695.35 425.479 695.567 420.94 696.217 417.915C696.867 415.105 698.168 412.944 700.119 411.863C702.287 410.566 705.538 410.134 710.09 410.134C714.642 410.134 718.11 410.783 720.061 411.863C722.012 412.944 723.53 415.105 723.963 417.915C724.613 420.724 724.83 425.479 724.83 431.963C724.83 438.446 724.613 442.985 723.963 445.794C723.313 448.604 722.012 450.765 720.061 452.062C717.894 453.359 714.642 453.791 710.09 453.791C705.538 453.791 702.07 453.359 700.119 452.062ZM714.209 445.146C714.859 444.498 715.509 443.417 715.726 441.688C715.943 439.959 715.943 436.717 715.943 431.963C715.943 427.208 715.943 423.966 715.726 422.237C715.509 420.508 715.076 419.211 714.209 418.779C713.558 418.131 712.041 417.915 710.09 417.915C708.139 417.915 706.622 418.131 705.972 418.779C705.321 419.427 704.671 420.508 704.454 422.237C704.237 423.966 704.237 427.208 704.237 431.963C704.237 436.717 704.237 439.959 704.454 441.688C704.671 443.417 705.105 444.714 705.972 445.146C706.622 445.794 708.139 446.01 710.09 446.01C712.041 446.01 713.558 445.794 714.209 445.146Z"
    fill="#333333"
  />
  <path d="M732.85 453.142V391.115H741.955V453.142H732.85Z" fill="#333333" />
  <path
    d="M754.311 452.062C752.143 450.765 750.842 448.82 750.409 445.794C749.758 442.985 749.542 438.23 749.542 431.963C749.542 425.479 749.758 420.94 750.409 417.915C751.059 415.105 752.36 412.944 754.311 411.863C756.478 410.566 759.73 410.134 764.282 410.134C768.834 410.134 772.302 410.783 774.253 411.863C776.204 412.944 777.721 415.105 778.155 417.915C778.805 420.724 779.022 425.479 779.022 431.963C779.022 438.446 778.805 442.985 778.155 445.794C777.504 448.604 776.204 450.765 774.253 452.062C772.085 453.359 768.834 453.791 764.282 453.791C759.73 453.791 756.478 453.359 754.311 452.062ZM768.617 445.146C769.267 444.498 769.918 443.417 770.134 441.688C770.351 439.959 770.351 436.717 770.351 431.963C770.351 427.208 770.351 423.966 770.134 422.237C769.918 420.508 769.484 419.211 768.617 418.779C767.967 418.131 766.449 417.915 764.499 417.915C762.548 417.915 761.03 418.131 760.38 418.779C759.73 419.427 759.079 420.508 758.863 422.237C758.646 423.966 758.646 427.208 758.646 431.963C758.646 436.717 758.646 439.959 758.863 441.688C759.079 443.417 759.513 444.714 760.38 445.146C761.03 445.794 762.548 446.01 764.499 446.01C766.449 446.227 767.75 445.794 768.617 445.146Z"
    fill="#333333"
  />
  <path
    d="M793.545 469.568C791.377 469.352 789.643 469.136 788.342 468.919V461.787L797.663 462.003C800.481 462.003 802.432 461.787 803.516 461.139C804.6 460.707 805.467 459.626 805.684 458.113C806.117 456.6 806.117 454.007 806.117 450.333V448.172H805.684C805.033 450.117 803.949 451.413 802.432 452.278C800.915 453.142 798.964 453.575 796.796 453.575C793.762 453.575 791.594 452.926 790.076 451.63C788.559 450.333 787.475 448.172 786.825 445.146C786.175 442.12 785.958 437.798 785.958 431.963C785.958 426.127 786.391 421.805 787.042 418.563C787.692 415.537 788.776 413.16 790.51 412.079C792.027 410.783 794.412 410.134 797.23 410.134C801.999 410.134 805.033 412.079 806.334 415.969H806.767L807.201 410.783H815.655V447.956C815.655 453.791 815.438 458.113 814.788 461.139C814.137 464.165 812.837 466.326 810.452 467.839C808.285 469.352 804.817 470 800.048 470C797.88 470 795.712 469.784 793.545 469.568ZM804.166 444.281C805.033 443.633 805.467 442.769 805.684 441.256C806.117 439.743 806.334 436.501 806.334 431.53C806.334 427.208 806.117 424.398 805.9 422.669C805.684 420.94 805.033 419.644 804.383 418.995C803.516 418.347 802.432 418.131 800.698 418.131C798.747 418.131 797.447 418.347 796.796 418.779C796.146 419.211 795.496 420.292 795.279 422.021C795.062 423.75 794.845 426.776 794.845 431.314C794.845 435.637 795.062 438.662 795.279 440.391C795.496 442.12 795.929 443.417 796.796 443.849C797.447 444.281 798.747 444.714 800.698 444.714C802.215 445.146 803.299 444.93 804.166 444.281Z"
    fill="#333333"
  />
  <path
    d="M831.262 469.568C829.094 469.351 827.36 469.135 826.06 468.919V461.571C829.311 461.787 832.563 461.787 835.381 461.787C838.198 461.787 840.149 461.571 841.233 460.923C842.317 460.274 843.184 459.41 843.401 457.897C843.618 456.384 843.834 454.007 843.834 450.333V447.523H843.184C842.1 451.197 838.849 453.142 834.08 453.142C831.045 453.142 828.878 452.494 827.36 451.413C825.843 450.117 824.976 448.388 824.542 446.01C824.109 443.633 823.892 439.959 823.892 435.42V410.782H832.996V433.907C832.996 437.798 832.996 440.391 833.213 441.904C833.43 443.417 833.863 444.281 834.513 444.714C835.164 445.146 836.248 445.362 837.982 445.362C839.716 445.362 841.016 444.93 841.884 444.281C842.751 443.633 843.184 442.336 843.401 440.823C843.618 439.311 843.618 436.501 843.618 432.827V410.782H852.722V447.955C852.722 453.791 852.505 458.113 851.855 461.139C851.204 464.165 849.904 466.326 847.736 467.839C845.569 469.351 842.1 470 837.548 470C835.381 470 833.43 469.784 831.262 469.568Z"
    fill="#333333"
  />
  <path
    d="M906.263 406.244C905.179 406.892 903.662 406.892 902.794 406.028C901.277 403.866 898.026 402.786 895.424 402.786C891.089 402.786 886.754 404.515 886.754 409.702C886.754 414.889 890.439 416.617 896.942 416.617C898.242 416.617 899.109 417.266 899.109 418.563V423.533C899.109 424.83 898.026 425.479 896.942 425.479H894.341C888.921 426.343 883.719 429.153 883.719 435.204C883.719 441.904 888.705 445.362 894.991 445.362C901.06 445.362 904.962 441.039 904.962 433.691V418.563C904.962 417.266 906.046 416.617 907.347 416.617H918.618C920.136 416.617 921.003 417.266 921.003 418.563V423.533C921.003 424.83 919.919 425.479 918.618 425.479H915.367V433.907C915.367 446.226 908.214 454.655 894.991 454.655C881.335 454.655 872.664 446.442 872.664 435.636C872.664 428.72 877.433 423.75 882.852 420.508C878.517 418.563 876.132 414.456 876.132 409.918C876.132 399.328 885.236 394.141 895.641 394.141C902.578 394.141 908.214 396.302 911.465 400.408C912.115 401.273 911.682 402.353 911.031 403.002L906.263 406.244Z"
    fill="#466CB2"
  />
  <path
    d="M938.127 395.87H956.119C960.021 395.87 963.055 396.518 965.223 398.031C967.174 399.544 968.691 401.489 969.342 404.299C969.992 406.892 970.425 410.566 970.425 414.889C970.425 419.211 969.992 422.669 969.342 425.263C968.691 427.856 967.391 430.017 965.223 431.746C963.055 433.259 960.021 434.124 956.119 434.124H947.665V453.359H938.127V395.87V395.87ZM953.735 425.263C955.902 425.263 957.419 425.047 958.503 424.398C959.37 423.75 960.021 422.885 960.237 421.372C960.454 420.076 960.671 417.698 960.671 414.673C960.671 411.647 960.454 409.486 960.237 407.973C960.021 406.676 959.37 405.596 958.503 404.947C957.636 404.299 956.119 404.083 953.951 404.083H947.665V425.047H953.735V425.263Z"
    fill="#333333"
  />
  <path
    d="M996.87 447.956H996.436C995.786 450.117 994.486 451.63 992.968 452.494C991.451 453.359 989.283 454.007 986.682 454.007C983.864 454.007 981.696 453.359 980.396 452.278C978.879 451.197 978.011 449.468 977.578 447.307C977.144 445.146 976.928 442.12 976.928 438.23V410.566H986.032V433.908C986.032 437.798 986.032 440.391 986.249 441.688C986.465 443.201 986.899 444.065 987.549 444.498C988.199 444.93 989.283 445.146 991.017 445.146C992.751 445.146 994.052 444.714 994.919 444.065C995.786 443.417 996.22 442.12 996.436 440.391C996.653 438.662 996.87 436.069 996.87 432.395V410.134H1005.97V452.71H997.52L996.87 447.956Z"
    fill="#333333"
  />
  <path
    d="M1014.43 410.566H1022.67L1023.1 417.915H1023.75C1024.62 414.889 1025.92 412.944 1027.43 411.647C1029.17 410.566 1031.34 409.918 1033.94 409.918V419.427C1031.34 419.427 1029.38 419.86 1027.87 420.724C1026.35 421.589 1025.27 423.101 1024.62 425.047C1023.97 426.992 1023.53 429.801 1023.53 433.475V453.142H1014.43V410.566Z"
    fill="#333333"
  />
  <path
    d="M1039.79 410.566H1048.03L1048.46 415.753H1049.11C1050.19 411.863 1053.45 409.918 1058.21 409.918C1061.03 409.918 1063.42 410.566 1064.93 411.863C1066.45 413.16 1067.54 415.321 1068.19 418.347C1068.84 421.372 1069.27 425.911 1069.27 431.746C1069.27 437.582 1069.05 441.904 1068.4 445.146C1067.75 448.388 1066.67 450.549 1065.15 451.846C1063.63 453.142 1061.47 453.791 1058.43 453.791C1053.66 453.791 1050.63 452.062 1049.33 448.388H1048.89V469.352H1039.79V410.566V410.566ZM1058.21 444.714C1058.86 444.281 1059.52 442.985 1059.73 441.256C1059.95 439.527 1060.17 436.285 1060.17 431.962C1060.17 427.424 1059.95 424.398 1059.73 422.669C1059.52 420.94 1059.08 419.86 1058.21 419.211C1057.56 418.779 1056.05 418.347 1054.31 418.347C1052.8 418.347 1051.71 418.563 1050.84 419.211C1050.19 419.86 1049.54 420.724 1049.11 422.237C1048.68 423.75 1048.68 426.992 1048.68 431.962C1048.68 436.069 1048.89 438.878 1049.11 440.607C1049.33 442.552 1049.98 443.849 1050.63 444.498C1051.28 445.146 1052.58 445.578 1054.31 445.578C1056.26 445.578 1057.56 445.362 1058.21 444.714Z"
    fill="#333333"
  />
  <path
    d="M1080.76 452.062C1078.59 450.765 1077.29 448.82 1076.86 445.794C1076.21 442.985 1075.99 438.23 1075.99 431.963C1075.99 425.479 1076.21 420.94 1076.86 417.915C1077.51 415.105 1078.81 412.944 1080.76 411.863C1082.71 410.783 1086.18 410.134 1090.73 410.134C1095.28 410.134 1098.75 410.783 1100.7 411.863C1102.87 413.16 1104.17 415.105 1104.6 417.915C1105.25 420.724 1105.47 425.479 1105.47 431.963C1105.47 438.446 1105.25 442.985 1104.6 445.794C1103.95 448.604 1102.65 450.765 1100.7 452.062C1098.53 453.359 1095.28 453.791 1090.73 453.791C1085.96 453.791 1082.71 453.359 1080.76 452.062ZM1094.85 445.146C1095.5 444.498 1096.15 443.417 1096.37 441.688C1096.58 439.959 1096.58 436.717 1096.58 431.963C1096.58 427.208 1096.58 423.966 1096.37 422.237C1096.15 420.508 1095.72 419.211 1094.85 418.779C1094.2 418.131 1092.68 417.915 1090.73 417.915C1088.78 417.915 1087.26 418.131 1086.61 418.779C1085.96 419.427 1085.31 420.508 1085.09 422.237C1084.88 423.966 1084.88 427.208 1084.88 431.963C1084.88 436.717 1084.88 439.959 1085.09 441.688C1085.31 443.417 1085.74 444.714 1086.61 445.146C1087.26 445.794 1088.78 446.01 1090.73 446.01C1092.68 446.227 1093.98 445.794 1094.85 445.146Z"
    fill="#333333"
  />
  <path
    d="M1118.48 453.575C1116.31 453.358 1114.36 453.142 1112.62 452.71V445.362C1116.74 445.794 1119.99 446.01 1122.81 446.01C1124.54 446.01 1125.85 445.794 1126.71 445.578C1127.58 445.362 1128.01 444.714 1128.45 444.065C1128.66 443.417 1128.88 442.336 1128.88 441.04C1128.88 439.527 1128.88 438.446 1128.66 437.798C1128.45 437.149 1128.23 436.717 1127.8 436.501C1127.36 436.285 1126.5 436.069 1125.41 435.853L1118.04 434.772C1115.66 434.34 1114.14 433.475 1113.27 431.53C1112.41 429.801 1111.97 426.775 1111.97 422.669C1111.97 417.914 1113.06 414.457 1115.44 412.728C1117.82 410.782 1121.08 409.918 1125.63 409.918C1127.36 409.918 1129.31 410.134 1131.26 410.35C1133.22 410.566 1134.95 410.999 1136.03 411.215V418.347C1133 417.914 1129.75 417.698 1126.71 417.698C1124.54 417.698 1123.03 417.914 1122.16 418.563C1121.29 419.211 1120.86 420.508 1120.86 422.453C1120.86 423.75 1120.86 424.83 1121.08 425.479C1121.29 426.127 1121.51 426.559 1121.94 426.775C1122.38 426.992 1123.03 427.208 1124.11 427.424L1130.4 428.288C1131.91 428.504 1133.43 428.937 1134.52 429.585C1135.6 430.233 1136.47 431.53 1137.12 433.259C1137.77 434.988 1137.98 437.365 1137.98 440.607C1137.98 445.578 1136.9 449.252 1134.95 450.981C1132.78 452.926 1129.53 453.791 1125.19 453.791C1122.81 453.791 1120.64 453.791 1118.48 453.575Z"
    fill="#333333"
  />
  <path
    d="M1172.23 434.988H1152.51C1152.51 438.662 1152.72 441.04 1152.94 442.552C1153.37 444.065 1154.03 444.93 1155.11 445.362C1156.19 445.794 1158.14 446.01 1160.96 446.01C1163.56 446.01 1167.03 445.794 1171.15 445.362V452.494C1169.85 452.926 1167.9 453.142 1165.51 453.358C1163.13 453.575 1160.96 453.791 1158.79 453.791C1154.03 453.791 1150.56 453.142 1148.39 451.629C1146.22 450.117 1144.7 447.955 1144.05 445.146C1143.4 442.12 1143.19 437.798 1143.19 431.962C1143.19 426.127 1143.4 421.805 1144.05 418.779C1144.7 415.753 1146 413.592 1148.17 412.079C1150.34 410.566 1153.59 409.918 1158.14 409.918C1162.7 409.918 1165.73 410.566 1167.68 412.079C1169.63 413.592 1170.72 415.537 1171.37 418.347C1171.8 421.156 1172.02 425.695 1172.02 431.746V434.988H1172.23ZM1154.46 418.563C1153.59 418.995 1153.16 420.076 1152.94 421.372C1152.72 422.669 1152.51 425.047 1152.51 428.288H1163.78C1163.78 425.047 1163.56 422.669 1163.35 421.372C1163.13 419.86 1162.48 418.995 1161.83 418.563C1161.18 418.131 1159.88 417.914 1158.36 417.914C1156.41 417.698 1155.33 417.914 1154.46 418.563Z"
    fill="#333333"
  />
</svg>
