<svg
  width="335"
  height="260"
  viewBox="0 0 335 260"
  fill="none"
  xmlns="http://www.w3.org/2000/svg"
>
  <path
    opacity="0.1"
    d="M39.5183 233.785C39.5183 233.785 23.5142 199.808 50.1491 178.793C76.7839 157.779 27.9357 136.443 45.5614 110.346C63.187 84.248 123.114 105.401 121.603 57.0524C120.093 8.7037 170.451 -4.39073 187.07 10.2146C203.688 24.8199 205.972 96.0083 253.678 88.3657C301.385 80.7231 346.204 181.598 307.931 233.65L39.5183 233.785Z"
    fill="#2A94F4"
  />
  <path
    d="M158.878 215.952L158.328 222.554C158.323 223.893 157.931 225.815 158.295 227.105L158.867 229.133C159.337 230.799 158.086 232.452 156.355 232.446C151.87 232.429 144.204 232.442 142.228 232.445C141.905 232.445 141.588 232.227 141.561 231.905C141.394 229.982 146.947 228.695 151.13 227.075C154.316 225.841 154.146 220.114 153.753 216.77C153.605 215.506 154.659 214.431 155.926 214.536C156.975 214.624 158.882 214.898 158.878 215.952Z"
    fill="#FAB9AF"
  />
  <path
    d="M191.907 214.709L194.176 222.243C194.277 222.576 194.426 222.892 194.621 223.18L196.229 225.569C197.25 227.085 196.515 229.157 194.767 229.691C194.767 229.691 191.523 230.832 188.18 231.931C184.758 233.055 180.453 232.116 180.453 231.212C180.453 229.206 182.324 230.798 185.458 228.703C186.508 228.001 187.592 227.266 188.558 226.507C191.255 224.389 188.9 219.029 187.249 216.01C186.655 214.925 187.286 213.577 188.495 213.319L189.277 213.152C190.425 212.908 191.569 213.585 191.907 214.709Z"
    fill="#FAB9AF"
  />
  <path
    d="M152.884 151.235C149.027 151.012 152.252 151.97 148.426 151.583C149.044 158.542 143.073 165.815 144.9 175.344C147.847 190.703 153.986 220.054 153.986 220.054C155.508 220.72 157.056 220.888 158.632 220.495C158.632 220.495 159.098 207.548 159.383 193.605C159.656 180.233 159.73 165.946 160.582 161.271C161.018 158.878 161.575 155.505 162.164 151.796C159.071 151.651 155.991 151.415 152.884 151.235Z"
    fill="#FAB9AF"
  />
  <path
    d="M182.254 166.949C183.016 162.208 179.645 156.834 180.331 151.583C174.664 151.677 173.167 151.9 167.503 151.924C164.941 151.934 169.665 151.182 167.128 151.033C166.755 160.322 160.819 170.948 166.34 180.622C177.383 199.972 188.982 220.089 188.982 220.089C190.476 220.15 191.832 219.608 193.091 218.652C193.091 218.652 191.155 209.88 188.356 199.637C185.154 187.918 181.098 174.135 182.254 166.949Z"
    fill="#FAB9AF"
  />
  <path
    d="M146.226 143.331C146.226 143.331 140.725 170.839 143.476 178.541H161.63V160.936L164.38 178.541H183.634C183.634 178.541 186.935 151.033 180.334 142.78L146.226 143.331Z"
    fill="#0B4870"
  />
  <path
    d="M152.363 82.0237C151.5 83.103 150.753 84.28 150.367 84.6723C150.206 84.836 149.643 85.1427 149.487 85.2429C149.025 85.5375 148.265 85.9198 148.029 86.4139L147.004 88.4737C146.526 89.4774 145.678 90.0073 144.674 89.5288C143.588 89.0106 143.536 87.8472 144.176 86.8279L144.869 85.3744C145.382 84.558 145.478 83.5895 145.619 82.6356C145.906 80.6956 147.291 78.9012 148.537 77.566C149.318 76.728 150.862 76.7235 152.917 76.8302C153.927 76.8826 155.476 77.2654 154.452 78.0213C153.592 78.6549 150.472 78.6982 149.952 81.7346C149.927 81.8837 149.889 82.2715 150.054 82.3566C150.547 82.6099 151.167 81.5442 151.664 81.1172C152.362 80.5178 153.041 80.4644 153.328 80.7001C153.632 80.9494 152.979 81.2531 152.363 82.0237Z"
    fill="#FAB9AF"
  />
  <path
    d="M135.98 115.399C139.72 113.493 145.338 93.4126 147.602 88.9056C147.909 88.2957 147.717 87.5523 147.149 87.1741C146.806 86.9454 146.43 86.7122 146.123 86.5662C145.82 86.4221 145.481 86.2907 145.183 86.1854C144.717 86.0212 144.201 86.1839 143.911 86.5833C141.633 89.7159 131.836 103.34 128.326 110.654C128.326 110.654 128.205 119.361 135.98 115.399Z"
    fill="#FFBE55"
  />
  <path
    d="M144.994 143.552L152.605 90.064L173.14 87.2451L183.821 143.166L144.994 143.552Z"
    fill="#FAB9AF"
  />
  <path
    d="M144.209 142.19L152.607 90.064L173.142 87.2451L184.178 142.287C184.386 143.321 183.715 144.325 182.68 144.522C178.856 145.246 169.634 146.76 159.314 146.76C151.609 146.76 147.279 145.262 145.309 144.313C144.51 143.929 144.068 143.065 144.209 142.19Z"
    fill="#FFBE55"
  />
  <path
    d="M161.044 65.4414C165.627 65.4414 167.336 68.7039 167.424 74.7395C167.457 76.9998 166.44 79.2394 165.622 80.6692C165.014 81.7314 164.847 82.9894 165.194 84.1634L166.2 87.57C166.884 90.7298 165.384 92.4633 163.168 93.0923C162.071 93.404 160.756 93.1623 159.798 92.5433C158.659 91.807 158.565 90.2236 158.776 88.8834L159.036 87.9119C159.386 86.6035 158.628 85.1933 157.305 84.9037C153.776 84.1322 153.271 80.4532 152.325 74.7395C151.34 68.7845 156.461 65.4414 161.044 65.4414Z"
    fill="#FAB9AF"
  />
  <path
    d="M164.897 74.8511C164.897 76.2507 165.418 77.3849 166.765 77.3849C168.112 77.3849 168.977 75.4605 168.977 74.0609C168.977 72.6613 168.112 72.3174 166.765 72.3174C165.418 72.3174 164.897 73.4515 164.897 74.8511Z"
    fill="#FAB9AF"
  />
  <path
    d="M165.456 80.9932C165.456 80.9932 162.033 85.6996 157.774 85.0615C157.774 85.0615 158.658 85.4845 158.873 86.172C158.873 86.172 162.919 85.8729 165.456 80.9932Z"
    fill="#E8948B"
  />
  <path
    d="M181.111 192.259C178.606 193.031 176.725 194.578 175.52 196.858C174.314 199.137 174.095 201.564 174.867 204.069C175.64 206.576 177.187 208.458 179.466 209.661C181.745 210.866 184.171 211.085 186.676 210.313C187.669 210.007 188.565 209.578 189.359 209.03C190.566 208.198 191.539 207.089 192.268 205.714C193.473 203.434 193.693 201.008 192.921 198.503C192.149 196 190.602 194.119 188.321 192.91C186.039 191.707 183.613 191.487 181.111 192.259Z"
    fill="#2A94F4"
  />
  <g opacity="0.08">
    <g opacity="0.08">
      <path
        opacity="0.08"
        d="M188.323 192.913C186.042 191.709 183.616 191.489 181.114 192.26C180.306 192.509 179.564 192.84 178.887 193.25C180.677 193.078 182.417 193.43 184.081 194.308C186.362 195.517 187.909 197.398 188.681 199.901C189.453 202.406 189.233 204.832 188.028 207.112C187.299 208.487 186.326 209.596 185.119 210.429C184.97 210.531 184.817 210.628 184.661 210.722C185.327 210.658 186 210.524 186.679 210.315C187.672 210.009 188.567 209.58 189.361 209.032C190.568 208.2 191.541 207.091 192.271 205.716C193.476 203.436 193.695 201.01 192.923 198.505C192.152 196.003 190.605 194.121 188.323 192.913Z"
        fill="#0B4870"
      />
    </g>
  </g>
  <path
    d="M189.388 111.695C182.307 108.301 174.128 107.995 165.078 110.784C156.03 113.574 149.399 118.443 145.37 125.257C141.867 131.181 140.879 137.811 142.433 144.965C142.695 146.171 143.457 147.22 144.522 147.843C145.587 148.466 146.874 148.614 148.052 148.251L153.441 146.59C155.591 145.926 156.897 143.755 156.477 141.539C155.732 137.609 156.212 134.263 157.944 131.31C160.041 127.735 163.736 125.112 168.926 123.511C174.1 121.916 178.619 122.073 182.354 123.978C186.075 125.878 188.754 129.414 190.318 134.488C192.474 141.481 191.923 146.81 188.681 150.326C185.267 154.028 179.091 157.226 170.312 159.837L167.98 160.556C165.652 161.274 164.343 163.751 165.06 166.079L171.32 186.389C171.668 187.517 172.434 188.441 173.477 188.993C174.519 189.544 175.715 189.657 176.843 189.309L182.308 187.624C182.749 187.488 183.153 187.29 183.514 187.04C185.059 185.974 185.81 183.988 185.229 182.101L181.174 168.947C181.124 168.784 181.214 168.608 181.374 168.554C191.475 165.141 198.603 160.468 202.558 154.661C206.765 148.486 207.416 140.549 204.495 131.068C201.585 121.627 196.502 115.108 189.388 111.695Z"
    fill="#2A94F4"
  />
  <g opacity="0.08">
    <g opacity="0.08">
      <path
        opacity="0.08"
        d="M189.389 111.695C182.308 108.301 174.129 107.995 165.079 110.784C159.477 112.511 154.802 115.037 151.097 118.327C153.389 117.104 155.906 116.067 158.646 115.223C167.696 112.432 175.875 112.739 182.956 116.133C190.071 119.546 195.154 126.065 198.064 135.508C200.986 144.988 200.334 152.926 196.128 159.101C194.913 160.884 193.397 162.56 191.59 164.126C196.434 161.427 200.108 158.263 202.56 154.663C206.767 148.488 207.418 140.551 204.496 131.07C201.586 121.627 196.503 115.108 189.389 111.695Z"
        fill="#0B4870"
      />
    </g>
  </g>
  <path
    d="M173.024 87.3789C173.024 87.3789 186.117 94.4298 195.182 107.021C204.247 119.611 186.117 133.209 175.542 136.231C164.967 139.253 163.96 135.728 173.024 129.684C182.089 123.64 194.175 119.611 188.132 112.56C182.089 105.51 171.01 94.9334 171.01 94.9334L173.024 87.3789Z"
    fill="#FFBE55"
  />
  <path
    d="M163.483 131.16C164.864 131.12 166.245 130.929 166.793 130.971C167.022 130.988 167.619 131.219 167.798 131.274C168.32 131.436 169.103 131.769 169.633 131.629L171.867 131.08C172.942 130.796 173.895 131.101 174.178 132.176C174.485 133.341 173.631 134.132 172.439 134.302L170.882 134.713C169.927 134.849 169.127 135.402 168.308 135.911C166.642 136.946 164.378 137.048 162.553 136.96C161.409 136.905 160.407 135.729 159.161 134.093C158.548 133.288 157.839 131.858 159.078 132.152C160.117 132.398 162.166 134.751 164.819 133.186C164.95 133.109 165.27 132.887 165.228 132.706C165.103 132.167 163.889 132.382 163.242 132.278C162.334 132.133 161.854 131.649 161.849 131.278C161.843 130.886 162.497 131.188 163.483 131.16Z"
    fill="#FAB9AF"
  />
  <path
    d="M151.147 102.107C151.147 102.107 140.009 114.051 135.047 115.912C130.085 117.773 128.528 111.161 152.697 90.0635L151.147 102.107Z"
    fill="#FFBE55"
  />
  <path
    d="M321.387 251.404H29.7039C24.4691 251.404 20.2258 247.16 20.2258 241.925C20.2258 236.69 24.4696 232.446 29.7039 232.446H321.387C326.621 232.446 330.865 236.69 330.865 241.925C330.865 247.16 326.621 251.404 321.387 251.404Z"
    fill="#D3D3D3"
  />
  <path
    d="M167.284 72.3168C167.284 72.3168 166.798 77.2841 166.567 78.2823C166.336 79.28 165.456 80.104 165.456 80.104C165.456 80.104 166.031 78.5608 165.946 77.5752C165.86 76.5896 166.21 72.6673 165.456 72.4105C164.703 72.1531 163.353 72.1959 163.203 70.0102C163.053 67.8244 160.545 68.253 160.031 68.4242C159.517 68.5955 160.246 67.8884 160.246 67.8884L157.867 68.467L159.046 67.5454L157.417 68.467L156.046 67.8239L156.496 68.3598L154.91 68.0385L153.624 69.0029C153.624 69.0029 152.866 72.0866 152.211 73.6011C152.211 73.6011 149.917 68.467 151.931 64.9094C153.946 61.3517 158.36 63.3663 160.803 62.1233C163.246 60.8803 170.929 64.1534 168.63 72.8894C168.629 72.8894 168.146 72.4855 167.284 72.3168Z"
    fill="#0B4870"
  />
  <path
    d="M158.428 227.573L151.726 226.77C151.726 226.77 139.589 229.733 141.218 232.446L141.775 233.316H157.59C157.59 233.317 161.581 231.645 158.428 227.573Z"
    fill="#0B4870"
  />
  <path
    d="M195.22 223.486L188.57 224.648C188.57 224.648 177.802 230.982 180.143 233.112L180.927 233.785L196.072 229.228C196.072 229.228 199.412 226.477 195.22 223.486Z"
    fill="#0B4870"
  />
  <path
    d="M125.809 75.8395C138.769 75.8395 149.275 68.01 149.275 58.3519C149.275 48.6937 138.769 40.8643 125.809 40.8643C112.849 40.8643 102.344 48.6937 102.344 58.3519C102.344 68.01 112.849 75.8395 125.809 75.8395Z"
    fill="#FFBE55"
  />
  <path
    d="M143.761 67.2676L146.101 73.8254L139.544 70.5462L143.761 67.2676Z"
    fill="#FFBE55"
  />
  <path
    d="M118.383 59.3148C119.395 59.3148 120.215 58.4945 120.215 57.4826C120.215 56.4707 119.395 55.6504 118.383 55.6504C117.372 55.6504 116.551 56.4707 116.551 57.4826C116.551 58.4945 117.372 59.3148 118.383 59.3148Z"
    fill="white"
  />
  <path
    d="M123.301 59.3148C124.313 59.3148 125.133 58.4945 125.133 57.4826C125.133 56.4707 124.313 55.6504 123.301 55.6504C122.289 55.6504 121.469 56.4707 121.469 57.4826C121.469 58.4945 122.289 59.3148 123.301 59.3148Z"
    fill="white"
  />
  <path
    d="M128.315 59.3148C129.327 59.3148 130.147 58.4945 130.147 57.4826C130.147 56.4707 129.327 55.6504 128.315 55.6504C127.303 55.6504 126.483 56.4707 126.483 57.4826C126.483 58.4945 127.303 59.3148 128.315 59.3148Z"
    fill="white"
  />
  <path
    d="M133.234 59.3148C134.246 59.3148 135.066 58.4945 135.066 57.4826C135.066 56.4707 134.246 55.6504 133.234 55.6504C132.223 55.6504 131.402 56.4707 131.402 57.4826C131.402 58.4945 132.223 59.3148 133.234 59.3148Z"
    fill="white"
  />
  <path
    opacity="0.4"
    d="M65.4676 223.723C65.4676 223.723 32.902 194.058 0.336914 216.282C0.336914 216.282 16.3168 195.839 39.281 198.887C62.2451 201.936 65.4676 223.723 65.4676 223.723Z"
    fill="#2A94F4"
  />
  <path
    opacity="0.4"
    d="M64.4712 224.918C64.4712 224.918 60.235 181.068 21.1792 175.687C21.1792 175.687 46.7449 171.257 61.7242 188.929C76.7029 206.601 64.4712 224.918 64.4712 224.918Z"
    fill="#2A94F4"
  />
  <path
    d="M64.7573 224.728C64.7573 224.728 49.4976 183.403 10.3586 188.144C10.3586 188.144 33.9538 177.349 52.9386 190.625C71.9234 203.901 64.7573 224.728 64.7573 224.728Z"
    fill="#0B4870"
  />
  <path
    d="M78.8125 224.639C78.8125 229.238 75.0844 232.967 70.4852 232.967H57.6794C53.0806 232.967 49.3521 229.238 49.3521 224.639C49.3521 220.039 53.0801 216.311 57.6794 216.311H70.4852C75.0844 216.311 78.8125 220.039 78.8125 224.639Z"
    fill="#2A94F4"
  />
  <path
    d="M313.079 229.276C313.079 231.098 311.602 232.576 309.78 232.576H297.054C295.232 232.576 293.755 231.098 293.755 229.276V199.581C293.755 197.758 295.232 196.281 297.054 196.281H309.78C311.602 196.281 313.079 197.758 313.079 199.581V229.276Z"
    fill="#2A94F4"
  />
  <path
    opacity="0.4"
    d="M304.944 162.099C304.944 162.099 294.526 183.278 309.876 186.884C325.225 190.491 325.668 174.516 324.095 167.932C322.522 161.349 346.878 143.649 326.79 127.991C306.701 112.333 291.046 154.022 304.944 162.099Z"
    fill="#2A94F4"
  />
  <path
    opacity="0.4"
    d="M285.546 173.595C285.546 173.595 285.056 187.532 294.202 185.761C303.348 183.99 299.721 175.272 297.28 172.104C294.839 168.936 303.685 153.501 289.068 149.924C274.451 146.346 276.101 172.605 285.546 173.595Z"
    fill="#2A94F4"
  />
  <path
    d="M287.104 160.458L298.416 196.281"
    stroke="#4D4D4D"
    stroke-width="1.0643"
    stroke-miterlimit="10"
  />
  <path
    d="M293.703 167.753L291.307 173.768L285.848 170.761"
    stroke="#4D4D4D"
    stroke-width="1.0643"
    stroke-miterlimit="10"
  />
  <path
    d="M317.212 140.19L307.509 196.282"
    stroke="#4D4D4D"
    stroke-width="1.0643"
    stroke-miterlimit="10"
  />
  <path
    d="M322.906 148.674L314.867 153.752L309.709 146.789"
    stroke="#4D4D4D"
    stroke-width="1.0643"
    stroke-miterlimit="10"
  />
  <path
    d="M320.705 160.437L312.666 165.514L307.509 158.552"
    stroke="#4D4D4D"
    stroke-width="1.0643"
    stroke-miterlimit="10"
  />
  <path
    d="M252.971 208.594C259.771 208.594 265.283 203.081 265.283 196.281C265.283 189.481 259.771 183.968 252.971 183.968C246.171 183.968 240.659 189.481 240.659 196.281C240.659 203.081 246.171 208.594 252.971 208.594Z"
    fill="#FFBE55"
  />
  <path
    d="M87.3154 136.818C93.5904 136.818 98.6773 131.73 98.6773 125.455C98.6773 119.179 93.5904 114.092 87.3154 114.092C81.0403 114.092 75.9534 119.179 75.9534 125.455C75.9534 131.73 81.0403 136.818 87.3154 136.818Z"
    fill="#2A94F4"
  />
  <path
    opacity="0.4"
    d="M102.875 176.218L82.981 187.705L94.4671 207.601L114.361 196.114L102.875 176.218Z"
    fill="#2A94F4"
  />
  <path d="M70.7546 166.284L82.8634 146.76L102.385 158.87" fill="#FFBE55" />
  <path
    opacity="0.4"
    d="M253.07 144.191L233.176 155.678L244.662 175.573L264.556 164.086L253.07 144.191Z"
    fill="#2A94F4"
  />
  <path d="M227.574 137.521L239.683 117.997L259.205 130.107" fill="#FFBE55" />
</svg>
