<svg width="168" height="168" viewBox="0 0 168 168" fill="none" xmlns="http://www.w3.org/2000/svg">
<path d="M162.94 5.06024L84 84L5.06024 5.06024H162.94Z" fill="url(#paint0_linear)" stroke="white" stroke-width="10" stroke-miterlimit="10" stroke-linejoin="round"/>
<path d="M132.578 5.06024L84 53.6386L35.4217 5.06024H132.578Z" stroke="white" stroke-width="10" stroke-miterlimit="10" stroke-linejoin="round"/>
<path d="M102.217 5.06024L84 23.2771L65.7831 5.06024H102.217Z" stroke="white" stroke-width="10" stroke-miterlimit="10" stroke-linejoin="round"/>
<path d="M162.94 5.06024V162.94H84V84L162.94 5.06024Z" fill="url(#paint1_linear)" stroke="white" stroke-width="10" stroke-miterlimit="10" stroke-linejoin="round"/>
<path d="M162.94 35.4217V162.94H104.241V94.1205L162.94 35.4217Z" stroke="white" stroke-width="10" stroke-miterlimit="10" stroke-linejoin="round"/>
<path d="M162.94 65.7831V162.94H124.482V104.241L162.94 65.7831Z" stroke="white" stroke-width="10" stroke-miterlimit="10" stroke-linejoin="round"/>
<path d="M162.94 96.1446V162.94H144.723V114.361L162.94 96.1446Z" stroke="white" stroke-width="10" stroke-miterlimit="10" stroke-linejoin="round"/>
<path d="M84 84V162.94H5.06024V5.06024L84 84Z" fill="url(#paint2_linear)" stroke="white" stroke-width="10" stroke-miterlimit="10" stroke-linejoin="round"/>
<path d="M63.759 94.1205V162.94H5.06024V35.4217L63.759 94.1205Z" stroke="white" stroke-width="10" stroke-miterlimit="10" stroke-linejoin="round"/>
<path d="M43.5181 104.241V162.94H5.06024V65.7831L43.5181 104.241Z" stroke="white" stroke-width="10" stroke-miterlimit="10" stroke-linejoin="round"/>
<path d="M23.2771 114.361V162.94H5.06024V96.1446L23.2771 114.361Z" stroke="white" stroke-width="10" stroke-miterlimit="10" stroke-linejoin="round"/>
<defs>
<linearGradient id="paint0_linear" x1="84" y1="5.06024" x2="84" y2="84" gradientUnits="userSpaceOnUse">
<stop stop-color="#333333"/>
<stop offset="1" stop-color="#333333" stop-opacity="0.1"/>
</linearGradient>
<linearGradient id="paint1_linear" x1="123.47" y1="5.06024" x2="123.47" y2="162.94" gradientUnits="userSpaceOnUse">
<stop stop-color="#333333"/>
<stop offset="1" stop-color="#333333" stop-opacity="0.1"/>
</linearGradient>
<linearGradient id="paint2_linear" x1="44.5301" y1="5.06024" x2="44.5301" y2="162.94" gradientUnits="userSpaceOnUse">
<stop stop-color="#333333"/>
<stop offset="1" stop-color="#333333" stop-opacity="0.1"/>
</linearGradient>
</defs>
</svg>
