<svg width="168" height="168" fill="none" xmlns="http://www.w3.org/2000/svg">
  <g
    clip-path="url(#clip0)"
    stroke="#fff"
    stroke-width="10"
    stroke-miterlimit="10"
    stroke-linejoin="round"
  >
    <path
      d="M162.94 162.94V5.06H5.06v157.88h157.88z"
      fill="url(#paint0_angular)"
    />
    <path d="M24.29 162.94V84H5.06v78.94h19.23z" />
    <path
      d="M44.53 162.94V84H5.06v78.94h39.47zM162.94 162.94v-18.22h-57.69v18.22h57.69z"
    />
    <path d="M162.94 162.94v-38.46H85.01v38.46h77.93z" />
    <path d="M162.94 162.94v-58.7H64.77v58.7h98.17z" />
    <path
      d="M162.94 162.94V84H44.53v78.94h118.41zM162.94 84V5.06h-19.23V84h19.23z"
    />
    <path
      d="M162.94 84V5.06h-39.47V84h39.47zM82.99 43.52V5.06H5.06v38.46h77.93z"
    />
    <path d="M62.75 23.28V5.06H5.06v18.22h57.69z" />
    <path d="M103.23 63.76V5.06H5.06v58.7h98.17z" />
    <path d="M123.47 84V5.06H5.06V84h118.41z" />
  </g>
  <defs>
    <radialGradient
      id="paint0_angular"
      cx="0"
      cy="0"
      r="1"
      gradientUnits="userSpaceOnUse"
      gradientTransform="rotate(-180 42 42) scale(78.9398)"
    >
      <stop stop-color="#18181A" />
      <stop offset="1" stop-color="#18181A" stop-opacity=".1" />
    </radialGradient>
    <clipPath id="clip0">
      <path fill="#fff" transform="rotate(90 84 84)" d="M0 0h168v168H0z" />
    </clipPath>
  </defs>
</svg>
