<svg width="168" height="168" fill="none" xmlns="http://www.w3.org/2000/svg"><path d="M84 5H5v79h79V5z" fill="url(#paint0_linear)" stroke="#fff" stroke-width="10" stroke-miterlimit="10" stroke-linejoin="round"/><path d="M163 5H84v79h79V5z" fill="url(#paint1_linear)" stroke="#fff" stroke-width="10" stroke-miterlimit="10" stroke-linejoin="round"/><path d="M84 84H5v79h79V84z" fill="url(#paint2_linear)" stroke="#fff" stroke-width="10" stroke-miterlimit="10" stroke-linejoin="round"/><path d="M63.8 104.2H5V163h58.7v-58.7z" fill="url(#paint3_linear)" stroke="#fff" stroke-width="10" stroke-miterlimit="10" stroke-linejoin="round"/><path d="M43.5 124.5H5.1v38.4h38.4v-38.4z" fill="url(#paint4_linear)" stroke="#fff" stroke-width="10" stroke-miterlimit="10" stroke-linejoin="round"/><path d="M23.3 144.7H5V163h18.2v-18.2z" fill="url(#paint5_linear)" stroke="#fff" stroke-width="10" stroke-miterlimit="10" stroke-linejoin="round"/><path d="M63.8 5H5v58.8h58.7V5z" fill="url(#paint6_linear)" stroke="#fff" stroke-width="10" stroke-miterlimit="10" stroke-linejoin="round"/><path d="M43.5 5H5.1v38.5h38.4V5.1z" fill="url(#paint7_linear)" stroke="#fff" stroke-width="10" stroke-miterlimit="10" stroke-linejoin="round"/><path d="M23.3 5H5v18.3h18.2V5z" fill="url(#paint8_linear)" stroke="#fff" stroke-width="10" stroke-miterlimit="10" stroke-linejoin="round"/><path d="M163 5h-58.8v58.8H163V5z" fill="url(#paint9_linear)" stroke="#fff" stroke-width="10" stroke-miterlimit="10" stroke-linejoin="round"/><path d="M163 5h-38.5v38.5h38.4V5.1z" fill="url(#paint10_linear)" stroke="#fff" stroke-width="10" stroke-miterlimit="10" stroke-linejoin="round"/><path d="M163 5h-18.3v18.3H163V5z" fill="url(#paint11_linear)" stroke="#fff" stroke-width="10" stroke-miterlimit="10" stroke-linejoin="round"/><path d="M163 84H84v79h79V84z" fill="url(#paint12_linear)" stroke="#fff" stroke-width="10" stroke-miterlimit="10" stroke-linejoin="round"/><path d="M163 104.2h-58.8V163H163v-58.7z" fill="url(#paint13_linear)" stroke="#fff" stroke-width="10" stroke-miterlimit="10" stroke-linejoin="round"/><path d="M163 124.5h-38.5v38.4h38.4v-38.4z" fill="url(#paint14_linear)" stroke="#fff" stroke-width="10" stroke-miterlimit="10" stroke-linejoin="round"/><path d="M163 144.7h-18.3V163H163v-18.2z" fill="url(#paint15_linear)" stroke="#fff" stroke-width="10" stroke-miterlimit="10" stroke-linejoin="round"/><defs><linearGradient id="paint0_linear" x1="44.5" y1="5.1" x2="44.5" y2="84" gradientUnits="userSpaceOnUse"><stop stop-color="#000333"/><stop offset="1" stop-color="#000333" stop-opacity=".1"/></linearGradient><linearGradient id="paint1_linear" x1="123.5" y1="5.1" x2="123.5" y2="84" gradientUnits="userSpaceOnUse"><stop stop-color="#000333"/><stop offset="1" stop-color="#000333" stop-opacity=".1"/></linearGradient><linearGradient id="paint2_linear" x1="44.5" y1="84" x2="44.5" y2="162.9" gradientUnits="userSpaceOnUse"><stop stop-color="#000333"/><stop offset="1" stop-color="#000333" stop-opacity=".1"/></linearGradient><linearGradient id="paint3_linear" x1="34.4" y1="104.2" x2="34.4" y2="162.9" gradientUnits="userSpaceOnUse"><stop stop-color="#000333"/><stop offset="1" stop-color="#000333" stop-opacity=".1"/></linearGradient><linearGradient id="paint4_linear" x1="24.3" y1="124.5" x2="24.3" y2="162.9" gradientUnits="userSpaceOnUse"><stop stop-color="#000333"/><stop offset="1" stop-color="#000333" stop-opacity=".1"/></linearGradient><linearGradient id="paint5_linear" x1="14.2" y1="144.7" x2="14.2" y2="162.9" gradientUnits="userSpaceOnUse"><stop stop-color="#000333"/><stop offset="1" stop-color="#000333" stop-opacity=".1"/></linearGradient><linearGradient id="paint6_linear" x1="34.4" y1="5.1" x2="34.4" y2="63.8" gradientUnits="userSpaceOnUse"><stop stop-color="#000333"/><stop offset="1" stop-color="#000333" stop-opacity=".1"/></linearGradient><linearGradient id="paint7_linear" x1="24.3" y1="5.1" x2="24.3" y2="43.5" gradientUnits="userSpaceOnUse"><stop stop-color="#000333"/><stop offset="1" stop-color="#000333" stop-opacity=".1"/></linearGradient><linearGradient id="paint8_linear" x1="14.2" y1="5.1" x2="14.2" y2="23.3" gradientUnits="userSpaceOnUse"><stop stop-color="#000333"/><stop offset="1" stop-color="#000333" stop-opacity=".1"/></linearGradient><linearGradient id="paint9_linear" x1="133.6" y1="5.1" x2="133.6" y2="63.8" gradientUnits="userSpaceOnUse"><stop stop-color="#000333"/><stop offset="1" stop-color="#000333" stop-opacity=".1"/></linearGradient><linearGradient id="paint10_linear" x1="143.7" y1="5.1" x2="143.7" y2="43.5" gradientUnits="userSpaceOnUse"><stop stop-color="#000333"/><stop offset="1" stop-color="#000333" stop-opacity=".1"/></linearGradient><linearGradient id="paint11_linear" x1="153.8" y1="5.1" x2="153.8" y2="23.3" gradientUnits="userSpaceOnUse"><stop stop-color="#000333"/><stop offset="1" stop-color="#000333" stop-opacity=".1"/></linearGradient><linearGradient id="paint12_linear" x1="123.5" y1="84" x2="123.5" y2="162.9" gradientUnits="userSpaceOnUse"><stop stop-color="#000333"/><stop offset="1" stop-color="#000333" stop-opacity=".1"/></linearGradient><linearGradient id="paint13_linear" x1="133.6" y1="104.2" x2="133.6" y2="162.9" gradientUnits="userSpaceOnUse"><stop stop-color="#000333"/><stop offset="1" stop-color="#000333" stop-opacity=".1"/></linearGradient><linearGradient id="paint14_linear" x1="143.7" y1="124.5" x2="143.7" y2="162.9" gradientUnits="userSpaceOnUse"><stop stop-color="#000333"/><stop offset="1" stop-color="#000333" stop-opacity=".1"/></linearGradient><linearGradient id="paint15_linear" x1="153.8" y1="144.7" x2="153.8" y2="162.9" gradientUnits="userSpaceOnUse"><stop stop-color="#000333"/><stop offset="1" stop-color="#000333" stop-opacity=".1"/></linearGradient></defs></svg>
