<svg width="168" height="168" fill="none" xmlns="http://www.w3.org/2000/svg">
  <path
    d="M99.48 154.24l-8.6 8.7H62.24l22.97-22.97 14.27 14.27z"
    fill="url(#paint0_linear)"
    stroke="#fff"
    stroke-width="10"
    stroke-miterlimit="10"
    stroke-linejoin="round"
  />
  <path
    d="M156.06 154.94l-7.9 8h-28.64l22.27-22.26 14.27 14.26z"
    fill="url(#paint1_linear)"
    stroke="#fff"
    stroke-width="10"
    stroke-miterlimit="10"
    stroke-linejoin="round"
  />
  <path
    d="M162.94 148.06v14.88h-14.78l7.9-8 6.88-6.88z"
    fill="url(#paint2_linear)"
    stroke="#fff"
    stroke-width="10"
    stroke-miterlimit="10"
    stroke-linejoin="round"
  />
  <path
    d="M162.94 119.52v28.54l-6.88 6.88-14.27-14.26 21.15-21.16z"
    fill="url(#paint3_linear)"
    stroke="#fff"
    stroke-width="10"
    stroke-miterlimit="10"
    stroke-linejoin="round"
  />
  <path
    d="M155.35 98.47l-27.93 27.94-14.27 14.27-13.67 13.56-14.27-14.27 27.94-27.94 13.56-13.56 14.37-14.37 14.27 14.37z"
    fill="url(#paint4_linear)"
    stroke="#fff"
    stroke-width="10"
    stroke-miterlimit="10"
    stroke-linejoin="round"
  />
  <path
    d="M162.94 90.88v28.64l-21.15 21.16-14.37 14.26-7.9 8H90.88l8.6-8.7 13.67-13.56 14.27-14.28 27.93-27.93 7.59-7.59z"
    fill="url(#paint5_linear)"
    stroke="#fff"
    stroke-width="10"
    stroke-miterlimit="10"
    stroke-linejoin="round"
  />
  <path
    d="M162.94 62.24v28.64l-7.6 7.6-14.26-14.38 13.56-13.56 8.3-8.3z"
    fill="url(#paint6_linear)"
    stroke="#fff"
    stroke-width="10"
    stroke-miterlimit="10"
    stroke-linejoin="round"
  />
  <path
    d="M41.6 40.48L27.22 54.75 13.66 68.41l-8.6 8.6V48.39L27.22 26.2 41.6 40.48z"
    fill="url(#paint7_linear)"
    stroke="#fff"
    stroke-width="10"
    stroke-miterlimit="10"
    stroke-linejoin="round"
  />
  <path
    d="M105.66 5.06l-8.3 8.2L83.8 26.92l-42.2 42.2-13.67 13.56-14.27 14.38-8.6 8.6V77.02l22.16-22.27L41.6 40.48 77.02 5.06h28.64z"
    fill="url(#paint8_linear)"
    stroke="#fff"
    stroke-width="10"
    stroke-miterlimit="10"
    stroke-linejoin="round"
  />
  <path
    d="M42.3 97.06l-27.93 27.93-9.31 9.2v-28.53l8.6-8.6 14.27-14.38L42.3 97.06z"
    fill="url(#paint9_linear)"
    stroke="#fff"
    stroke-width="10"
    stroke-miterlimit="10"
    stroke-linejoin="round"
  />
  <path
    d="M98.07 41.19L83.8 55.56 70.24 69.12 55.87 83.4 42.3 97.06 27.93 82.68 41.6 69.12l42.2-42.2 14.27 14.27z"
    fill="url(#paint10_linear)"
    stroke="#fff"
    stroke-width="10"
    stroke-miterlimit="10"
    stroke-linejoin="round"
  />
  <path
    d="M70.24 69.12L55.87 83.4 42.3 97.06l13.57-13.67 14.37-14.27z"
    fill="url(#paint11_linear)"
    stroke="#fff"
    stroke-width="10"
    stroke-miterlimit="10"
    stroke-linejoin="round"
  />
  <path
    d="M70.24 69.12L55.87 83.4l14.37-14.27z"
    fill="url(#paint12_linear)"
    stroke="#fff"
    stroke-width="10"
    stroke-miterlimit="10"
    stroke-linejoin="round"
  />
  <path
    d="M162.84 5.06L126 41.9l-13.56 13.66-14.37 14.27L84.5 83.4 70.24 97.76l-13.67 13.56-51.51 51.52V134.2l9.31-9.21L42.3 97.06l13.57-13.67 14.37-14.27 41.49-41.5L126 13.27l8.3-8.2h28.54z"
    fill="url(#paint13_linear)"
    stroke="#fff"
    stroke-width="10"
    stroke-miterlimit="10"
    stroke-linejoin="round"
  />
  <path
    d="M55.87 83.4L42.3 97.05l13.57-13.67z"
    fill="url(#paint14_linear)"
    stroke="#fff"
    stroke-width="10"
    stroke-miterlimit="10"
    stroke-linejoin="round"
  />
  <path
    d="M43.01 153.53l-9.41 9.41H5.06v-.1l23.58-23.58 14.37 14.27z"
    fill="url(#paint15_linear)"
    stroke="#fff"
    stroke-width="10"
    stroke-miterlimit="10"
    stroke-linejoin="round"
  />
  <path
    d="M98.78 97.76L84.5 112.03 70.94 125.6l-14.37 14.38-13.56 13.56-14.37-14.27 27.93-27.93 13.67-13.57L84.5 83.4l14.27 14.37z"
    fill="url(#paint16_linear)"
    stroke="#fff"
    stroke-width="10"
    stroke-miterlimit="10"
    stroke-linejoin="round"
  />
  <path
    d="M43.01 153.53l-9.41 9.41 9.41-9.41z"
    fill="url(#paint17_linear)"
    stroke="#fff"
    stroke-width="10"
    stroke-miterlimit="10"
    stroke-linejoin="round"
  />
  <path
    d="M154.64 41.9l-14.27 14.37-13.66 13.56-14.27 14.27-13.66 13.66L84.5 83.4l13.56-13.56 14.37-14.27L126 41.9l14.37-14.27 14.27 14.27z"
    fill="url(#paint18_linear)"
    stroke="#fff"
    stroke-width="10"
    stroke-miterlimit="10"
    stroke-linejoin="round"
  />
  <path
    d="M162.94 5.06V33.6l-8.3 8.3-14.27-14.27 22.47-22.57h.1z"
    fill="url(#paint19_linear)"
    stroke="#fff"
    stroke-width="10"
    stroke-miterlimit="10"
    stroke-linejoin="round"
  />
  <path
    d="M162.94 33.6v28.64l-8.3 8.3-13.56 13.56-14.37 14.37-13.56 13.56-50.9 50.91H33.6l9.41-9.41 13.56-13.56 14.37-14.38 13.57-13.56 14.27-14.27 13.66-13.66 14.27-14.27 13.66-13.56 14.27-14.37 8.3-8.3z"
    fill="url(#paint20_linear)"
    stroke="#fff"
    stroke-width="10"
    stroke-miterlimit="10"
    stroke-linejoin="round"
  />
  <path
    d="M134.3 5.06l-8.3 8.2-14.27 14.37-13.66 13.56L83.8 26.92l13.56-13.66 8.3-8.2h28.64z"
    fill="url(#paint21_linear)"
    stroke="#fff"
    stroke-width="10"
    stroke-miterlimit="10"
    stroke-linejoin="round"
  />
  <path
    d="M77.02 5.06l-7.5 7.49 7.5-7.49z"
    fill="url(#paint22_linear)"
    stroke="#fff"
    stroke-width="10"
    stroke-miterlimit="10"
    stroke-linejoin="round"
  />
  <path
    d="M77.02 5.06l-7.5 7.49L41.6 40.48 27.22 26.21 48.38 5.06h28.64z"
    fill="url(#paint23_linear)"
    stroke="#fff"
    stroke-width="10"
    stroke-miterlimit="10"
    stroke-linejoin="round"
  />
  <path
    d="M77.02 5.06l-7.5 7.49 7.5-7.49z"
    fill="url(#paint24_linear)"
    stroke="#fff"
    stroke-width="10"
    stroke-miterlimit="10"
    stroke-linejoin="round"
  />
  <path
    d="M48.38 5.06L5.06 48.38V19.73l7.9-7.89 6.77-6.78h28.65z"
    fill="url(#paint25_linear)"
    stroke="#fff"
    stroke-width="10"
    stroke-miterlimit="10"
    stroke-linejoin="round"
  />
  <path
    d="M19.73 5.06l-6.78 6.78-7.89 7.9V5.05h14.67z"
    fill="url(#paint26_linear)"
    stroke="#fff"
    stroke-width="10"
    stroke-miterlimit="10"
    stroke-linejoin="round"
  />
  <defs>
    <linearGradient
      id="paint0_linear"
      x1="80.86"
      y1="139.97"
      x2="80.86"
      y2="162.94"
      gradientUnits="userSpaceOnUse"
    >
      <stop stop-color="#18181A" />
      <stop offset="1" stop-color="#18181A" stop-opacity=".1" />
    </linearGradient>
    <linearGradient
      id="paint1_linear"
      x1="137.79"
      y1="140.68"
      x2="137.79"
      y2="162.94"
      gradientUnits="userSpaceOnUse"
    >
      <stop stop-color="#18181A" />
      <stop offset="1" stop-color="#18181A" stop-opacity=".1" />
    </linearGradient>
    <linearGradient
      id="paint2_linear"
      x1="155.55"
      y1="148.06"
      x2="155.55"
      y2="162.94"
      gradientUnits="userSpaceOnUse"
    >
      <stop stop-color="#18181A" />
      <stop offset="1" stop-color="#18181A" stop-opacity=".1" />
    </linearGradient>
    <linearGradient
      id="paint3_linear"
      x1="152.36"
      y1="119.52"
      x2="152.36"
      y2="154.94"
      gradientUnits="userSpaceOnUse"
    >
      <stop stop-color="#18181A" />
      <stop offset="1" stop-color="#18181A" stop-opacity=".1" />
    </linearGradient>
    <linearGradient
      id="paint4_linear"
      x1="120.28"
      y1="84.1"
      x2="120.28"
      y2="154.24"
      gradientUnits="userSpaceOnUse"
    >
      <stop stop-color="#18181A" />
      <stop offset="1" stop-color="#18181A" stop-opacity=".1" />
    </linearGradient>
    <linearGradient
      id="paint5_linear"
      x1="126.91"
      y1="90.88"
      x2="126.91"
      y2="162.94"
      gradientUnits="userSpaceOnUse"
    >
      <stop stop-color="#18181A" />
      <stop offset="1" stop-color="#18181A" stop-opacity=".1" />
    </linearGradient>
    <linearGradient
      id="paint6_linear"
      x1="152.01"
      y1="62.24"
      x2="152.01"
      y2="98.47"
      gradientUnits="userSpaceOnUse"
    >
      <stop stop-color="#18181A" />
      <stop offset="1" stop-color="#18181A" stop-opacity=".1" />
    </linearGradient>
    <linearGradient
      id="paint7_linear"
      x1="23.33"
      y1="26.21"
      x2="23.33"
      y2="77.02"
      gradientUnits="userSpaceOnUse"
    >
      <stop stop-color="#18181A" />
      <stop offset="1" stop-color="#18181A" stop-opacity=".1" />
    </linearGradient>
    <linearGradient
      id="paint8_linear"
      x1="55.36"
      y1="5.06"
      x2="55.36"
      y2="105.66"
      gradientUnits="userSpaceOnUse"
    >
      <stop stop-color="#18181A" />
      <stop offset="1" stop-color="#18181A" stop-opacity=".1" />
    </linearGradient>
    <linearGradient
      id="paint9_linear"
      x1="23.68"
      y1="82.68"
      x2="23.68"
      y2="134.2"
      gradientUnits="userSpaceOnUse"
    >
      <stop stop-color="#18181A" />
      <stop offset="1" stop-color="#18181A" stop-opacity=".1" />
    </linearGradient>
    <linearGradient
      id="paint10_linear"
      x1="63"
      y1="26.92"
      x2="63"
      y2="97.06"
      gradientUnits="userSpaceOnUse"
    >
      <stop stop-color="#18181A" />
      <stop offset="1" stop-color="#18181A" stop-opacity=".1" />
    </linearGradient>
    <linearGradient
      id="paint11_linear"
      x1="56.27"
      y1="69.12"
      x2="56.27"
      y2="97.06"
      gradientUnits="userSpaceOnUse"
    >
      <stop stop-color="#18181A" />
      <stop offset="1" stop-color="#18181A" stop-opacity=".1" />
    </linearGradient>
    <linearGradient
      id="paint12_linear"
      x1="63.05"
      y1="69.12"
      x2="63.05"
      y2="83.39"
      gradientUnits="userSpaceOnUse"
    >
      <stop stop-color="#18181A" />
      <stop offset="1" stop-color="#18181A" stop-opacity=".1" />
    </linearGradient>
    <linearGradient
      id="paint13_linear"
      x1="83.95"
      y1="5.06"
      x2="83.95"
      y2="162.84"
      gradientUnits="userSpaceOnUse"
    >
      <stop stop-color="#18181A" />
      <stop offset="1" stop-color="#18181A" stop-opacity=".1" />
    </linearGradient>
    <linearGradient
      id="paint14_linear"
      x1="49.08"
      y1="83.39"
      x2="49.08"
      y2="97.06"
      gradientUnits="userSpaceOnUse"
    >
      <stop stop-color="#18181A" />
      <stop offset="1" stop-color="#18181A" stop-opacity=".1" />
    </linearGradient>
    <linearGradient
      id="paint15_linear"
      x1="24.04"
      y1="139.26"
      x2="24.04"
      y2="162.94"
      gradientUnits="userSpaceOnUse"
    >
      <stop stop-color="#18181A" />
      <stop offset="1" stop-color="#18181A" stop-opacity=".1" />
    </linearGradient>
    <linearGradient
      id="paint16_linear"
      x1="63.71"
      y1="83.39"
      x2="63.71"
      y2="153.53"
      gradientUnits="userSpaceOnUse"
    >
      <stop stop-color="#18181A" />
      <stop offset="1" stop-color="#18181A" stop-opacity=".1" />
    </linearGradient>
    <linearGradient
      id="paint17_linear"
      x1="38.31"
      y1="153.53"
      x2="38.31"
      y2="162.94"
      gradientUnits="userSpaceOnUse"
    >
      <stop stop-color="#18181A" />
      <stop offset="1" stop-color="#18181A" stop-opacity=".1" />
    </linearGradient>
    <linearGradient
      id="paint18_linear"
      x1="119.57"
      y1="27.63"
      x2="119.57"
      y2="97.76"
      gradientUnits="userSpaceOnUse"
    >
      <stop stop-color="#18181A" />
      <stop offset="1" stop-color="#18181A" stop-opacity=".1" />
    </linearGradient>
    <linearGradient
      id="paint19_linear"
      x1="151.66"
      y1="5.06"
      x2="151.66"
      y2="41.9"
      gradientUnits="userSpaceOnUse"
    >
      <stop stop-color="#18181A" />
      <stop offset="1" stop-color="#18181A" stop-opacity=".1" />
    </linearGradient>
    <linearGradient
      id="paint20_linear"
      x1="98.27"
      y1="33.6"
      x2="98.27"
      y2="162.94"
      gradientUnits="userSpaceOnUse"
    >
      <stop stop-color="#18181A" />
      <stop offset="1" stop-color="#18181A" stop-opacity=".1" />
    </linearGradient>
    <linearGradient
      id="paint21_linear"
      x1="109.05"
      y1="5.06"
      x2="109.05"
      y2="41.19"
      gradientUnits="userSpaceOnUse"
    >
      <stop stop-color="#18181A" />
      <stop offset="1" stop-color="#18181A" stop-opacity=".1" />
    </linearGradient>
    <linearGradient
      id="paint22_linear"
      x1="73.27"
      y1="5.06"
      x2="73.27"
      y2="12.55"
      gradientUnits="userSpaceOnUse"
    >
      <stop stop-color="#18181A" />
      <stop offset="1" stop-color="#18181A" stop-opacity=".1" />
    </linearGradient>
    <linearGradient
      id="paint23_linear"
      x1="52.12"
      y1="5.06"
      x2="52.12"
      y2="40.48"
      gradientUnits="userSpaceOnUse"
    >
      <stop stop-color="#18181A" />
      <stop offset="1" stop-color="#18181A" stop-opacity=".1" />
    </linearGradient>
    <linearGradient
      id="paint24_linear"
      x1="73.27"
      y1="5.06"
      x2="73.27"
      y2="12.55"
      gradientUnits="userSpaceOnUse"
    >
      <stop stop-color="#18181A" />
      <stop offset="1" stop-color="#18181A" stop-opacity=".1" />
    </linearGradient>
    <linearGradient
      id="paint25_linear"
      x1="26.72"
      y1="5.06"
      x2="26.72"
      y2="48.38"
      gradientUnits="userSpaceOnUse"
    >
      <stop stop-color="#18181A" />
      <stop offset="1" stop-color="#18181A" stop-opacity=".1" />
    </linearGradient>
    <linearGradient
      id="paint26_linear"
      x1="12.4"
      y1="5.06"
      x2="12.4"
      y2="19.73"
      gradientUnits="userSpaceOnUse"
    >
      <stop stop-color="#18181A" />
      <stop offset="1" stop-color="#18181A" stop-opacity=".1" />
    </linearGradient>
  </defs>
</svg>
