<svg width="168" height="168" viewBox="0 0 168 168" fill="none" xmlns="http://www.w3.org/2000/svg">
<path d="M84 5H5V84H84V5Z" fill="url(#paint0_linear)" stroke="white" stroke-width="10" stroke-miterlimit="10" stroke-linejoin="round"/>
<path d="M162.94 5.06024H84V84H162.94V5.06024Z" fill="url(#paint1_linear)" stroke="white" stroke-width="10" stroke-miterlimit="10" stroke-linejoin="round"/>
<path d="M5.06025 162.94L84 162.94L84 84L5.06026 84L5.06025 162.94Z" fill="url(#paint2_linear)" stroke="white" stroke-width="10" stroke-miterlimit="10" stroke-linejoin="round"/>
<path d="M84 162.94L162.94 162.94L162.94 84L84 84L84 162.94Z" fill="url(#paint3_linear)" stroke="white" stroke-width="10" stroke-miterlimit="10" stroke-linejoin="round"/>
<path d="M63.759 104.241H5.06024V162.94H63.759V104.241Z" stroke="white" stroke-width="10" stroke-miterlimit="10" stroke-linejoin="round"/>
<path d="M43.5181 124.482H5.06024V162.94H43.5181V124.482Z" stroke="white" stroke-width="10" stroke-miterlimit="10" stroke-linejoin="round"/>
<path d="M23.2771 144.723H5.06024V162.94H23.2771V144.723Z" stroke="white" stroke-width="10" stroke-miterlimit="10" stroke-linejoin="round"/>
<path d="M63.759 5.06024H5.06024V63.759H63.759V5.06024Z" stroke="white" stroke-width="10" stroke-miterlimit="10" stroke-linejoin="round"/>
<path d="M43.5181 5.06024H5.06024V43.5181H43.5181V5.06024Z" stroke="white" stroke-width="10" stroke-miterlimit="10" stroke-linejoin="round"/>
<path d="M23.2771 5.06024H5.06024V23.2771H23.2771V5.06024Z" stroke="white" stroke-width="10" stroke-miterlimit="10" stroke-linejoin="round"/>
<path d="M162.94 5.06024H104.241V63.759H162.94V5.06024Z" stroke="white" stroke-width="10" stroke-miterlimit="10" stroke-linejoin="round"/>
<path d="M162.94 5.06024H124.482V43.5181H162.94V5.06024Z" stroke="white" stroke-width="10" stroke-miterlimit="10" stroke-linejoin="round"/>
<path d="M162.94 5.06024H144.723V23.2771H162.94V5.06024Z" stroke="white" stroke-width="10" stroke-miterlimit="10" stroke-linejoin="round"/>
<path d="M162.94 104.241H104.241V162.94H162.94V104.241Z" stroke="white" stroke-width="10" stroke-miterlimit="10" stroke-linejoin="round"/>
<path d="M162.94 124.482H124.482V162.94H162.94V124.482Z" stroke="white" stroke-width="10" stroke-miterlimit="10" stroke-linejoin="round"/>
<path d="M162.94 144.723H144.723V162.94H162.94V144.723Z" stroke="white" stroke-width="10" stroke-miterlimit="10" stroke-linejoin="round"/>
<defs>
<linearGradient id="paint0_linear" x1="5" y1="5" x2="84" y2="84" gradientUnits="userSpaceOnUse">
<stop stop-color="#333333"/>
<stop offset="1" stop-color="#333333" stop-opacity="0.1"/>
</linearGradient>
<linearGradient id="paint1_linear" x1="163" y1="5" x2="84" y2="84" gradientUnits="userSpaceOnUse">
<stop stop-color="#333333"/>
<stop offset="1" stop-color="#333333" stop-opacity="0.1"/>
</linearGradient>
<linearGradient id="paint2_linear" x1="4.99999" y1="163" x2="84" y2="84" gradientUnits="userSpaceOnUse">
<stop stop-color="#333333"/>
<stop offset="1" stop-color="#333333" stop-opacity="0.1"/>
</linearGradient>
<linearGradient id="paint3_linear" x1="163" y1="163" x2="84" y2="84" gradientUnits="userSpaceOnUse">
<stop stop-color="#333333"/>
<stop offset="1" stop-color="#333333" stop-opacity="0.1"/>
</linearGradient>
</defs>
</svg>
