<svg width="168" height="168" viewBox="0 0 168 168" fill="none" xmlns="http://www.w3.org/2000/svg">
<path d="M99.4843 154.236L90.8819 162.94H62.241L85.2145 139.966L99.4843 154.236Z" fill="url(#paint0_linear)" stroke="white" stroke-width="10" stroke-miterlimit="10" stroke-linejoin="round"/>
<path d="M156.058 154.945L148.164 162.94H119.523L141.788 140.675L156.058 154.945Z" fill="url(#paint1_linear)" stroke="white" stroke-width="10" stroke-miterlimit="10" stroke-linejoin="round"/>
<path d="M162.94 148.063V162.94H148.164L156.058 154.945L162.94 148.063Z" fill="url(#paint2_linear)" stroke="white" stroke-width="10" stroke-miterlimit="10" stroke-linejoin="round"/>
<path d="M162.94 119.523V148.063L156.058 154.945L141.788 140.675L162.94 119.523Z" fill="url(#paint3_linear)" stroke="white" stroke-width="10" stroke-miterlimit="10" stroke-linejoin="round"/>
<path d="M155.349 98.4723L127.417 126.405L113.147 140.675L99.4843 154.236L85.2144 139.966L113.147 112.034L126.708 98.4723L141.08 84.1012L155.349 98.4723Z" fill="url(#paint4_linear)" stroke="white" stroke-width="10" stroke-miterlimit="10" stroke-linejoin="round"/>
<path d="M162.94 90.8819V119.523L141.788 140.675L127.417 154.945L119.523 162.94H90.8819L99.4843 154.236L113.147 140.675L127.417 126.405L155.349 98.4723L162.94 90.8819Z" fill="url(#paint5_linear)" stroke="white" stroke-width="10" stroke-miterlimit="10" stroke-linejoin="round"/>
<path d="M162.94 62.241V90.8819L155.349 98.4723L141.079 84.1012L154.641 70.5398L162.94 62.241Z" fill="url(#paint6_linear)" stroke="white" stroke-width="10" stroke-miterlimit="10" stroke-linejoin="round"/>
<path d="M41.5952 40.4819L27.2241 54.7518L13.6627 68.4145L5.06024 77.0169V48.3759L27.2241 26.2121L41.5952 40.4819Z" fill="url(#paint7_linear)" stroke="white" stroke-width="10" stroke-miterlimit="10" stroke-linejoin="round"/>
<path d="M105.658 5.06024L97.359 13.2578L83.7976 26.9205L41.5952 69.1229L27.9325 82.6843L13.6627 97.0554L5.06024 105.658V77.0169L27.2241 54.7518L41.5952 40.4819L77.0169 5.06024H105.658Z" fill="url(#paint8_linear)" stroke="white" stroke-width="10" stroke-miterlimit="10" stroke-linejoin="round"/>
<path d="M42.3036 97.0554L14.3711 124.988L5.06024 134.198V105.658L13.6627 97.0554L27.9325 82.6843L42.3036 97.0554Z" fill="url(#paint9_linear)" stroke="white" stroke-width="10" stroke-miterlimit="10" stroke-linejoin="round"/>
<path d="M98.0675 41.1904L83.7976 55.5614L70.2361 69.1229L55.8651 83.3928L42.3036 97.0554L27.9325 82.6843L41.5952 69.1229L83.7976 26.9205L98.0675 41.1904Z" fill="url(#paint10_linear)" stroke="white" stroke-width="10" stroke-miterlimit="10" stroke-linejoin="round"/>
<path d="M70.2362 69.1229L55.8651 83.3928L42.3036 97.0554L55.8651 83.3928L70.2362 69.1229Z" fill="url(#paint11_linear)" stroke="white" stroke-width="10" stroke-miterlimit="10" stroke-linejoin="round"/>
<path d="M70.2361 69.1229L55.8651 83.3928L70.2361 69.1229Z" fill="url(#paint12_linear)" stroke="white" stroke-width="10" stroke-miterlimit="10" stroke-linejoin="round"/>
<path d="M162.839 5.06024L126 41.8988L112.439 55.5614L98.0675 69.8313L84.506 83.3928L70.2361 97.7638L56.5735 111.325L5.06024 162.839V134.198L14.3711 124.988L42.3036 97.0554L55.8651 83.3928L70.2361 69.1229L111.73 27.6289L126 13.2578L134.299 5.06024H162.839Z" fill="url(#paint13_linear)" stroke="white" stroke-width="10" stroke-miterlimit="10" stroke-linejoin="round"/>
<path d="M55.8651 83.3928L42.3036 97.0554L55.8651 83.3928Z" fill="url(#paint14_linear)" stroke="white" stroke-width="10" stroke-miterlimit="10" stroke-linejoin="round"/>
<path d="M43.012 153.528L33.6 162.94H5.06024V162.839L28.641 139.258L43.012 153.528Z" fill="url(#paint15_linear)" stroke="white" stroke-width="10" stroke-miterlimit="10" stroke-linejoin="round"/>
<path d="M98.7759 97.7638L84.506 112.034L70.9446 125.595L56.5735 139.966L43.012 153.528L28.641 139.258L56.5735 111.325L70.2361 97.7638L84.506 83.3928L98.7759 97.7638Z" fill="url(#paint16_linear)" stroke="white" stroke-width="10" stroke-miterlimit="10" stroke-linejoin="round"/>
<path d="M43.0121 153.528L33.6 162.94L43.0121 153.528Z" fill="url(#paint17_linear)" stroke="white" stroke-width="10" stroke-miterlimit="10" stroke-linejoin="round"/>
<path d="M154.641 41.8988L140.371 56.2699L126.708 69.8313L112.439 84.1012L98.7759 97.7639L84.506 83.3928L98.0675 69.8313L112.439 55.5615L126 41.8988L140.371 27.6289L154.641 41.8988Z" fill="url(#paint18_linear)" stroke="white" stroke-width="10" stroke-miterlimit="10" stroke-linejoin="round"/>
<path d="M162.94 5.06024V33.6L154.641 41.8988L140.371 27.6289L162.839 5.06024H162.94Z" fill="url(#paint19_linear)" stroke="white" stroke-width="10" stroke-miterlimit="10" stroke-linejoin="round"/>
<path d="M162.94 33.6V62.241L154.641 70.5398L141.08 84.1012L126.708 98.4723L113.147 112.034L62.241 162.94H33.6L43.0121 153.528L56.5735 139.966L70.9446 125.595L84.506 112.034L98.7759 97.7639L112.439 84.1012L126.708 69.8313L140.371 56.2699L154.641 41.8988L162.94 33.6Z" fill="url(#paint20_linear)" stroke="white" stroke-width="10" stroke-miterlimit="10" stroke-linejoin="round"/>
<path d="M134.299 5.06024L126 13.2578L111.73 27.6289L98.0675 41.1904L83.7976 26.9205L97.359 13.2578L105.658 5.06024H134.299Z" fill="url(#paint21_linear)" stroke="white" stroke-width="10" stroke-miterlimit="10" stroke-linejoin="round"/>
<path d="M77.0169 5.06024L69.5277 12.5494L77.0169 5.06024Z" fill="url(#paint22_linear)" stroke="white" stroke-width="10" stroke-miterlimit="10" stroke-linejoin="round"/>
<path d="M77.0169 5.06024L69.5277 12.5494L41.5952 40.4819L27.2241 26.212L48.3759 5.06024H77.0169Z" fill="url(#paint23_linear)" stroke="white" stroke-width="10" stroke-miterlimit="10" stroke-linejoin="round"/>
<path d="M77.0169 5.06024L69.5277 12.5494L77.0169 5.06024Z" fill="url(#paint24_linear)" stroke="white" stroke-width="10" stroke-miterlimit="10" stroke-linejoin="round"/>
<path d="M48.3759 5.06024L5.06024 48.3759V19.7349L12.9542 11.841L19.7349 5.06024H48.3759Z" fill="url(#paint25_linear)" stroke="white" stroke-width="10" stroke-miterlimit="10" stroke-linejoin="round"/>
<path d="M19.7349 5.06024L12.9542 11.841L5.06024 19.7349V5.06024H19.7349Z" fill="url(#paint26_linear)" stroke="white" stroke-width="10" stroke-miterlimit="10" stroke-linejoin="round"/>
<defs>
<linearGradient id="paint0_linear" x1="80.8627" y1="139.966" x2="80.8627" y2="162.94" gradientUnits="userSpaceOnUse">
<stop stop-color="#333333"/>
<stop offset="1" stop-color="#333333" stop-opacity="0.1"/>
</linearGradient>
<linearGradient id="paint1_linear" x1="137.79" y1="140.675" x2="137.79" y2="162.94" gradientUnits="userSpaceOnUse">
<stop stop-color="#333333"/>
<stop offset="1" stop-color="#333333" stop-opacity="0.1"/>
</linearGradient>
<linearGradient id="paint2_linear" x1="155.552" y1="148.063" x2="155.552" y2="162.94" gradientUnits="userSpaceOnUse">
<stop stop-color="#333333"/>
<stop offset="1" stop-color="#333333" stop-opacity="0.1"/>
</linearGradient>
<linearGradient id="paint3_linear" x1="152.364" y1="119.523" x2="152.364" y2="154.945" gradientUnits="userSpaceOnUse">
<stop stop-color="#333333"/>
<stop offset="1" stop-color="#333333" stop-opacity="0.1"/>
</linearGradient>
<linearGradient id="paint4_linear" x1="120.282" y1="84.1012" x2="120.282" y2="154.236" gradientUnits="userSpaceOnUse">
<stop stop-color="#333333"/>
<stop offset="1" stop-color="#333333" stop-opacity="0.1"/>
</linearGradient>
<linearGradient id="paint5_linear" x1="126.911" y1="90.8819" x2="126.911" y2="162.94" gradientUnits="userSpaceOnUse">
<stop stop-color="#333333"/>
<stop offset="1" stop-color="#333333" stop-opacity="0.1"/>
</linearGradient>
<linearGradient id="paint6_linear" x1="152.01" y1="62.241" x2="152.01" y2="98.4723" gradientUnits="userSpaceOnUse">
<stop stop-color="#333333"/>
<stop offset="1" stop-color="#333333" stop-opacity="0.1"/>
</linearGradient>
<linearGradient id="paint7_linear" x1="23.3277" y1="26.2121" x2="23.3277" y2="77.0169" gradientUnits="userSpaceOnUse">
<stop stop-color="#333333"/>
<stop offset="1" stop-color="#333333" stop-opacity="0.1"/>
</linearGradient>
<linearGradient id="paint8_linear" x1="55.359" y1="5.06024" x2="55.359" y2="105.658" gradientUnits="userSpaceOnUse">
<stop stop-color="#333333"/>
<stop offset="1" stop-color="#333333" stop-opacity="0.1"/>
</linearGradient>
<linearGradient id="paint9_linear" x1="23.6819" y1="82.6843" x2="23.6819" y2="134.198" gradientUnits="userSpaceOnUse">
<stop stop-color="#333333"/>
<stop offset="1" stop-color="#333333" stop-opacity="0.1"/>
</linearGradient>
<linearGradient id="paint10_linear" x1="63" y1="26.9205" x2="63" y2="97.0554" gradientUnits="userSpaceOnUse">
<stop stop-color="#333333"/>
<stop offset="1" stop-color="#333333" stop-opacity="0.1"/>
</linearGradient>
<linearGradient id="paint11_linear" x1="56.2699" y1="69.1229" x2="56.2699" y2="97.0554" gradientUnits="userSpaceOnUse">
<stop stop-color="#333333"/>
<stop offset="1" stop-color="#333333" stop-opacity="0.1"/>
</linearGradient>
<linearGradient id="paint12_linear" x1="63.0506" y1="69.1229" x2="63.0506" y2="83.3928" gradientUnits="userSpaceOnUse">
<stop stop-color="#333333"/>
<stop offset="1" stop-color="#333333" stop-opacity="0.1"/>
</linearGradient>
<linearGradient id="paint13_linear" x1="83.9494" y1="5.06024" x2="83.9494" y2="162.839" gradientUnits="userSpaceOnUse">
<stop stop-color="#333333"/>
<stop offset="1" stop-color="#333333" stop-opacity="0.1"/>
</linearGradient>
<linearGradient id="paint14_linear" x1="49.0843" y1="83.3928" x2="49.0843" y2="97.0554" gradientUnits="userSpaceOnUse">
<stop stop-color="#333333"/>
<stop offset="1" stop-color="#333333" stop-opacity="0.1"/>
</linearGradient>
<linearGradient id="paint15_linear" x1="24.0361" y1="139.258" x2="24.0361" y2="162.94" gradientUnits="userSpaceOnUse">
<stop stop-color="#333333"/>
<stop offset="1" stop-color="#333333" stop-opacity="0.1"/>
</linearGradient>
<linearGradient id="paint16_linear" x1="63.7084" y1="83.3928" x2="63.7084" y2="153.528" gradientUnits="userSpaceOnUse">
<stop stop-color="#333333"/>
<stop offset="1" stop-color="#333333" stop-opacity="0.1"/>
</linearGradient>
<linearGradient id="paint17_linear" x1="38.306" y1="153.528" x2="38.306" y2="162.94" gradientUnits="userSpaceOnUse">
<stop stop-color="#333333"/>
<stop offset="1" stop-color="#333333" stop-opacity="0.1"/>
</linearGradient>
<linearGradient id="paint18_linear" x1="119.574" y1="27.6289" x2="119.574" y2="97.7639" gradientUnits="userSpaceOnUse">
<stop stop-color="#333333"/>
<stop offset="1" stop-color="#333333" stop-opacity="0.1"/>
</linearGradient>
<linearGradient id="paint19_linear" x1="151.655" y1="5.06024" x2="151.655" y2="41.8988" gradientUnits="userSpaceOnUse">
<stop stop-color="#333333"/>
<stop offset="1" stop-color="#333333" stop-opacity="0.1"/>
</linearGradient>
<linearGradient id="paint20_linear" x1="98.2699" y1="33.6" x2="98.2699" y2="162.94" gradientUnits="userSpaceOnUse">
<stop stop-color="#333333"/>
<stop offset="1" stop-color="#333333" stop-opacity="0.1"/>
</linearGradient>
<linearGradient id="paint21_linear" x1="109.048" y1="5.06024" x2="109.048" y2="41.1904" gradientUnits="userSpaceOnUse">
<stop stop-color="#333333"/>
<stop offset="1" stop-color="#333333" stop-opacity="0.1"/>
</linearGradient>
<linearGradient id="paint22_linear" x1="73.2723" y1="5.06024" x2="73.2723" y2="12.5494" gradientUnits="userSpaceOnUse">
<stop stop-color="#333333"/>
<stop offset="1" stop-color="#333333" stop-opacity="0.1"/>
</linearGradient>
<linearGradient id="paint23_linear" x1="52.1205" y1="5.06024" x2="52.1205" y2="40.4819" gradientUnits="userSpaceOnUse">
<stop stop-color="#333333"/>
<stop offset="1" stop-color="#333333" stop-opacity="0.1"/>
</linearGradient>
<linearGradient id="paint24_linear" x1="73.2723" y1="5.06024" x2="73.2723" y2="12.5494" gradientUnits="userSpaceOnUse">
<stop stop-color="#333333"/>
<stop offset="1" stop-color="#333333" stop-opacity="0.1"/>
</linearGradient>
<linearGradient id="paint25_linear" x1="26.7181" y1="5.06024" x2="26.7181" y2="48.3759" gradientUnits="userSpaceOnUse">
<stop stop-color="#333333"/>
<stop offset="1" stop-color="#333333" stop-opacity="0.1"/>
</linearGradient>
<linearGradient id="paint26_linear" x1="12.3976" y1="5.06024" x2="12.3976" y2="19.7349" gradientUnits="userSpaceOnUse">
<stop stop-color="#333333"/>
<stop offset="1" stop-color="#333333" stop-opacity="0.1"/>
</linearGradient>
</defs>
</svg>
