<svg width="168" height="168" fill="none" xmlns="http://www.w3.org/2000/svg"><path d="M163 5L84 84 5 5h158z" fill="url(#paint0_linear)" stroke="#fff" stroke-width="10" stroke-miterlimit="10" stroke-linejoin="round"/><path d="M132.6 5L84 53.7 35.4 5.1h97.2z" fill="url(#paint1_linear)" stroke="#fff" stroke-width="10" stroke-miterlimit="10" stroke-linejoin="round"/><path d="M102.2 5L84 23.4 65.8 5h36.4z" fill="url(#paint2_linear)" stroke="#fff" stroke-width="10" stroke-miterlimit="10" stroke-linejoin="round"/><path d="M163 5v158H84V84l79-79z" fill="url(#paint3_linear)" stroke="#fff" stroke-width="10" stroke-miterlimit="10" stroke-linejoin="round"/><path d="M163 35.4V163h-58.8V94.1L163 35.4z" fill="url(#paint4_linear)" stroke="#fff" stroke-width="10" stroke-miterlimit="10" stroke-linejoin="round"/><path d="M163 65.8v97.1h-38.5v-58.7l38.4-38.4z" fill="url(#paint5_linear)" stroke="#fff" stroke-width="10" stroke-miterlimit="10" stroke-linejoin="round"/><path d="M163 96.1V163h-18.3v-48.5L163 96z" fill="url(#paint6_linear)" stroke="#fff" stroke-width="10" stroke-miterlimit="10" stroke-linejoin="round"/><path d="M84 84v79H5V5l79 79z" fill="url(#paint7_linear)" stroke="#fff" stroke-width="10" stroke-miterlimit="10" stroke-linejoin="round"/><path d="M63.8 94.1V163H5V35.4l58.7 58.7z" fill="url(#paint8_linear)" stroke="#fff" stroke-width="10" stroke-miterlimit="10" stroke-linejoin="round"/><path d="M43.5 104.2V163H5.1V65.8l38.4 38.4z" fill="url(#paint9_linear)" stroke="#fff" stroke-width="10" stroke-miterlimit="10" stroke-linejoin="round"/><path d="M23.3 114.4v48.5H5V96.1l18.2 18.3z" fill="url(#paint10_linear)" stroke="#fff" stroke-width="10" stroke-miterlimit="10" stroke-linejoin="round"/><defs><linearGradient id="paint0_linear" x1="84" y1="5.1" x2="84" y2="84" gradientUnits="userSpaceOnUse"><stop stop-color="#000333"/><stop offset="1" stop-color="#000333" stop-opacity=".1"/></linearGradient><linearGradient id="paint1_linear" x1="84" y1="5.1" x2="84" y2="53.6" gradientUnits="userSpaceOnUse"><stop stop-color="#000333"/><stop offset="1" stop-color="#000333" stop-opacity=".1"/></linearGradient><linearGradient id="paint2_linear" x1="84" y1="5.1" x2="84" y2="23.3" gradientUnits="userSpaceOnUse"><stop stop-color="#000333"/><stop offset="1" stop-color="#000333" stop-opacity=".1"/></linearGradient><linearGradient id="paint3_linear" x1="123.5" y1="5.1" x2="123.5" y2="162.9" gradientUnits="userSpaceOnUse"><stop stop-color="#000333"/><stop offset="1" stop-color="#000333" stop-opacity=".1"/></linearGradient><linearGradient id="paint4_linear" x1="133.6" y1="35.4" x2="133.6" y2="162.9" gradientUnits="userSpaceOnUse"><stop stop-color="#000333"/><stop offset="1" stop-color="#000333" stop-opacity=".1"/></linearGradient><linearGradient id="paint5_linear" x1="143.7" y1="65.8" x2="143.7" y2="162.9" gradientUnits="userSpaceOnUse"><stop stop-color="#000333"/><stop offset="1" stop-color="#000333" stop-opacity=".1"/></linearGradient><linearGradient id="paint6_linear" x1="153.8" y1="96.1" x2="153.8" y2="162.9" gradientUnits="userSpaceOnUse"><stop stop-color="#000333"/><stop offset="1" stop-color="#000333" stop-opacity=".1"/></linearGradient><linearGradient id="paint7_linear" x1="44.5" y1="5.1" x2="44.5" y2="162.9" gradientUnits="userSpaceOnUse"><stop stop-color="#000333"/><stop offset="1" stop-color="#000333" stop-opacity=".1"/></linearGradient><linearGradient id="paint8_linear" x1="34.4" y1="35.4" x2="34.4" y2="162.9" gradientUnits="userSpaceOnUse"><stop stop-color="#000333"/><stop offset="1" stop-color="#000333" stop-opacity=".1"/></linearGradient><linearGradient id="paint9_linear" x1="24.3" y1="65.8" x2="24.3" y2="162.9" gradientUnits="userSpaceOnUse"><stop stop-color="#000333"/><stop offset="1" stop-color="#000333" stop-opacity=".1"/></linearGradient><linearGradient id="paint10_linear" x1="14.2" y1="96.1" x2="14.2" y2="162.9" gradientUnits="userSpaceOnUse"><stop stop-color="#000333"/><stop offset="1" stop-color="#000333" stop-opacity=".1"/></linearGradient></defs></svg>
