<svg
  width="498"
  height="431"
  viewBox="0 0 498 431"
  fill="none"
  xmlns="http://www.w3.org/2000/svg"
>
  <path
    d="M485.472 430.999H5.14872C2.30971 430.999 0 428.69 0 425.851V403.475C0 400.636 2.30971 398.327 5.14872 398.327H485.52C488.359 398.327 490.669 400.636 490.669 403.475V425.851C490.62 428.69 488.311 430.999 485.472 430.999Z"
    fill="#F2F2F2"
  />
  <path
    d="M393.035 80C414.85 80 432.535 62.3152 432.535 40.5C432.535 18.6848 414.85 1 393.035 1C371.22 1 353.535 18.6848 353.535 40.5C353.535 62.3152 371.22 80 393.035 80Z"
    stroke="#D3D3D3"
    stroke-miterlimit="10"
    stroke-dasharray="11.93 11.93"
  />
  <path
    d="M469.4 64.4313V328.604C469.4 331.78 466.801 334.378 463.626 334.378H57.5021C54.3262 334.378 51.7278 331.78 51.7278 328.604V64.4313C51.7278 61.2554 54.3262 58.657 57.5021 58.657H463.626C466.801 58.657 469.4 61.2554 469.4 64.4313Z"
    stroke="#DCF2FF"
    stroke-width="5"
    stroke-miterlimit="10"
  />
  <path
    d="M449.334 46.098V310.271C449.334 313.447 446.736 316.045 443.56 316.045H37.4365C34.2607 316.045 31.6622 313.447 31.6622 310.271V46.098C31.6622 42.9222 34.2607 40.3237 37.4365 40.3237H443.56C446.736 40.3237 449.334 42.9222 449.334 46.098Z"
    fill="#DCF2FF"
  />
  <path
    d="M95.8048 78.6747C113.705 78.6747 128.285 93.2548 128.285 111.155C128.285 129.055 113.705 143.635 95.8048 143.635C77.9046 143.635 63.3245 129.055 63.3245 111.155C63.3245 93.2548 77.9046 78.6747 95.8048 78.6747ZM95.8048 68.1848C72.0341 68.1848 52.7865 87.4324 52.7865 111.203C52.7865 134.974 72.0341 154.221 95.8048 154.221C119.576 154.221 138.823 134.974 138.823 111.203C138.823 87.4324 119.576 68.1848 95.8048 68.1848Z"
    fill="#0D4972"
  />
  <path
    d="M95.8048 68.1848C72.0341 68.1848 52.7865 87.4324 52.7865 111.203C52.7865 134.974 72.0341 154.221 95.8048 154.221C119.576 154.221 138.823 134.974 138.823 111.203H128.285C128.285 129.103 113.705 143.683 95.8048 143.683C77.9046 143.683 63.3245 129.103 63.3245 111.203C63.3245 93.3029 77.9046 78.7229 95.8048 78.7229V68.1848Z"
    fill="#2A94F4"
  />
  <path
    d="M207.922 118.373C209.028 132.664 198.298 145.223 183.958 146.33C169.667 147.437 157.108 136.706 156.001 122.367C154.895 108.027 165.625 95.5163 179.965 94.4095C194.256 93.3028 206.815 104.033 207.922 118.373ZM216.294 117.699C214.803 98.7402 198.25 84.5452 179.291 85.9887C160.332 87.4804 146.137 104.033 147.581 122.992C149.072 141.951 165.625 156.146 184.584 154.703C203.543 153.259 217.786 136.706 216.294 117.699Z"
    fill="#0D4972"
  />
  <path
    d="M216.294 117.699C214.803 98.7402 198.25 84.5452 179.291 85.9887C160.332 87.4804 146.137 104.033 147.581 122.992C149.072 141.951 165.625 156.146 184.584 154.703L183.91 146.282C169.619 147.388 157.06 136.658 155.953 122.318C154.846 107.979 165.577 95.4682 179.916 94.3614C194.208 93.2547 206.767 103.985 207.874 118.325L216.294 117.699Z"
    fill="#2A94F4"
  />
  <path d="M426.237 100.712H230.634V107.112H426.237V100.712Z" fill="#F9F9F9" />
  <path d="M358.534 115.967H230.634V122.222H358.534V115.967Z" fill="#F9F9F9" />
  <path d="M426.237 131.269H230.634V137.525H426.237V131.269Z" fill="#F9F9F9" />
  <path d="M426.237 146.521H230.634V152.776H426.237V146.521Z" fill="#F9F9F9" />
  <path d="M426.237 179.772H343.713V298.674H426.237V179.772Z" fill="#2A94F4" />
  <path
    d="M281.544 239.777L314.698 206.575C322.926 215.814 327.738 227.411 328.46 239.777H281.544Z"
    fill="#F9F9F9"
  />
  <path
    d="M234.868 199.309C244.925 190.359 257.725 185.45 271.246 185.45C284.816 185.45 297.615 190.359 307.624 199.261L271.246 235.687L234.868 199.309Z"
    fill="#2A94F4"
  />
  <path
    d="M321.482 250.122C320.039 276.877 297.856 298.145 270.717 298.145C242.615 298.145 219.855 275.385 219.855 247.283C219.855 234.243 224.763 222.31 232.847 213.312L232.895 213.36L269.658 250.122H321.482Z"
    fill="#FFBE55"
  />
  <path d="M128.478 188.578H51.2948V196.469H128.478V188.578Z" fill="#0069FF" />
  <path d="M181.938 202.437H51.2948V205.179H181.938V202.437Z" fill="#F9F9F9" />
  <path d="M181.938 209.991H51.2948V212.734H181.938V209.991Z" fill="#F9F9F9" />
  <path d="M181.938 217.545H51.2948V220.288H181.938V217.545Z" fill="#F9F9F9" />
  <path d="M181.938 225.099H51.2948V227.842H181.938V225.099Z" fill="#F9F9F9" />
  <path d="M118.806 232.605H51.2948V235.348H118.806V232.605Z" fill="#F9F9F9" />
  <path d="M128.478 249.593H51.2948V257.484H128.478V249.593Z" fill="#0069FF" />
  <path d="M181.938 263.497H51.2948V266.24H181.938V263.497Z" fill="#F9F9F9" />
  <path d="M181.938 271.054H51.2948V273.796H181.938V271.054Z" fill="#F9F9F9" />
  <path d="M181.938 278.561H51.2948V281.304H181.938V278.561Z" fill="#F9F9F9" />
  <path d="M181.938 286.116H51.2948V288.859H181.938V286.116Z" fill="#F9F9F9" />
  <path d="M118.806 293.67H51.2948V296.413H118.806V293.67Z" fill="#F9F9F9" />
  <path
    d="M175.249 152.922V147.629C175.249 147.629 173.324 142.335 171.399 138.486C172.843 138.967 175.249 142.335 175.249 142.335C175.249 142.335 176.211 134.155 175.249 132.23C181.504 137.524 181.504 139.448 181.504 139.448L179.098 148.11L179.58 154.846L175.249 152.922Z"
    fill="#D3B192"
  />
  <path
    d="M84.7853 276.587L81.8982 281.88C81.8982 281.88 76.1239 285.729 76.1239 287.654C76.1239 289.579 76.1239 291.985 76.1239 291.985L80.4546 297.278C80.4546 297.278 84.3041 286.692 84.7853 287.173C85.2665 289.579 85.2665 292.466 86.2289 292.947C86.7101 290.06 85.2665 282.842 87.1913 280.436C89.116 278.03 84.7853 276.587 84.7853 276.587Z"
    fill="#D3B192"
  />
  <path
    d="M93.1552 391.509L84.5206 390.831L83.0521 409.539L91.6867 410.217L93.1552 391.509Z"
    fill="#FFE3CA"
  />
  <path
    d="M83.0528 409.587C79.3958 413.147 76.7492 415.842 76.6049 417.767C79.7807 420.413 90.1744 423.156 95.1788 420.654C96.1892 413.965 91.6661 410.26 91.6661 410.26L83.0528 409.587Z"
    fill="#0D2B46"
  />
  <path d="M143.971 391.109H135.31V409.876H143.971V391.109Z" fill="#FFE3CA" />
  <path
    d="M138.438 256.136C144.212 273.94 166.347 346.6 147.58 399.049C139.641 404.583 130.979 399.29 130.979 399.29C130.979 399.29 111.491 322.059 116.784 290.782C122.077 259.505 122.799 256.136 122.799 256.136H138.438Z"
    fill="#0D2B46"
  />
  <path d="M128.573 184.919H121.596V199.836H128.573V184.919Z" fill="#D3B192" />
  <path
    d="M136.946 181.264C136.946 188.337 134.251 194.111 128.525 194.111C122.799 194.111 116.255 188.385 116.255 181.264C116.255 174.19 120.874 168.416 126.601 168.416C132.327 168.416 136.946 174.19 136.946 181.264Z"
    fill="#D3B192"
  />
  <path
    d="M134.829 168.608C133.289 174.72 132.134 188.915 123.713 193.871C118.372 196.566 102.637 182.371 110.288 169.763C117.987 157.156 134.059 165.192 134.829 168.608Z"
    fill="#0E538C"
  />
  <path
    d="M115.678 177.077C121.816 177.077 126.793 172.101 126.793 165.962C126.793 159.823 121.816 154.846 115.678 154.846C109.539 154.846 104.562 159.823 104.562 165.962C104.562 172.101 109.539 177.077 115.678 177.077Z"
    fill="#0E538C"
  />
  <path
    d="M121.596 199.836C112.935 200.799 100.424 207.054 100.424 207.054C100.424 207.054 85.9881 261.91 83.101 278.751C87.4317 281.639 88.8752 283.082 88.8752 283.082L105.236 229.189L111.491 256.135H138.438L144.693 221.49C144.693 221.49 185.113 201.761 181.745 153.161C174.046 149.793 174.046 149.793 174.046 149.793C174.046 149.793 175.97 201.28 138.438 200.318C138.438 200.318 126.408 197.912 121.596 199.836Z"
    fill="#FFBE55"
  />
  <path
    d="M111.539 256.136C94.6978 285.489 73.5254 360.073 81.2245 400.974C89.1641 407.47 95.6601 400.974 95.6601 400.974C95.6601 400.974 124.531 337.938 124.05 292.707C125.975 265.76 124.05 256.136 124.05 256.136H111.539Z"
    fill="#0D2B46"
  />
  <path
    d="M135.31 409.875C131.942 413.725 129.536 416.612 129.536 418.537C132.904 420.943 143.49 422.867 148.302 419.98C148.783 413.244 143.971 409.875 143.971 409.875H135.31Z"
    fill="#0D2B46"
  />
  <path
    d="M457.419 368.109C453.473 349.584 441.203 333.031 424.698 323.792C433.552 340.489 444.09 356.224 456.216 370.756L457.419 368.109Z"
    fill="#1A87D8"
  />
  <path
    d="M461.846 375.086C446.111 353.095 438.219 325.571 439.904 298.577C450.105 323.502 457.804 349.438 462.856 375.856L461.846 375.086Z"
    fill="#2A94F4"
  />
  <path
    d="M457.371 375.856C456.89 362.335 456.408 348.669 458.526 335.292C460.643 321.915 465.551 308.682 474.645 298.625C476.041 326.342 469.304 354.395 455.59 378.503L457.371 375.856Z"
    fill="#1A87D8"
  />
  <path
    d="M457.996 377.061C449.142 351.462 450.586 322.494 461.942 297.905C469.064 323.601 462.76 350.836 456.456 376.724L457.996 377.061Z"
    fill="#B0E1FF"
  />
  <path
    d="M459.199 367.582C461.653 345.11 476.618 324.467 497.213 315.18C488.888 337.555 474.597 357.717 456.264 373.067L459.199 367.582Z"
    fill="#2A94F4"
  />
  <path
    d="M480.371 363.636L477.821 407.232C477.821 409.349 476.089 411.033 474.02 411.033H443.801C441.684 411.033 440 409.301 440 407.232L439.422 397.368L437.449 363.636C437.449 361.519 439.182 359.835 441.251 359.835H476.57C477.965 359.835 479.168 360.557 479.842 361.663C480.179 362.241 480.371 362.915 480.371 363.636Z"
    fill="#CCE9FF"
  />
  <path
    d="M480.371 363.635L477.821 407.231C477.821 409.348 476.089 411.032 474.02 411.032H443.801C441.684 411.032 440 409.3 440 407.231L439.422 397.366C453.521 393.324 468.053 375.905 479.842 361.662C480.179 362.24 480.371 362.913 480.371 363.635Z"
    fill="#CCE9FF"
  />
  <path
    d="M32.3362 382.932C29.7378 370.806 21.7501 359.979 10.9233 353.916C16.6976 364.839 23.6267 375.137 31.5663 384.664L32.3362 382.932Z"
    fill="#1A87D8"
  />
  <path
    d="M35.2234 387.502C24.926 373.114 19.7292 355.118 20.8359 337.41C27.5244 353.722 32.5769 370.708 35.849 388.031L35.2234 387.502Z"
    fill="#2A94F4"
  />
  <path
    d="M32.2882 387.983C31.9513 379.129 31.6626 370.179 33.0581 361.421C34.4535 352.664 37.6775 344.002 43.6442 337.41C44.5585 355.551 40.1797 373.932 31.1333 389.715L32.2882 387.983Z"
    fill="#1A87D8"
  />
  <path
    d="M32.6729 388.802C26.8505 372.056 27.8128 353.049 35.2713 336.978C39.9388 353.771 35.8006 371.623 31.6624 388.561L32.6729 388.802Z"
    fill="#B0E1FF"
  />
  <path
    d="M33.4428 382.594C35.0307 367.918 44.847 354.348 58.3203 348.285C52.8347 362.962 43.4997 376.146 31.5181 386.203L33.4428 382.594Z"
    fill="#2A94F4"
  />
  <path
    d="M47.3495 379.995L45.6654 408.529C45.6654 409.925 44.5586 411.031 43.1632 411.031H23.3863C21.9909 411.031 20.8841 409.925 20.8841 408.529L20.4992 402.081L19.2 379.995C19.2 378.599 20.3067 377.492 21.7021 377.492H44.8473C45.7616 377.492 46.5315 377.974 46.9646 378.695C47.2052 379.08 47.3495 379.513 47.3495 379.995Z"
    fill="#CCE9FF"
  />
  <path
    d="M47.3494 379.997L45.6652 408.532C45.6652 409.927 44.5585 411.034 43.163 411.034H23.3862C21.9907 411.034 20.884 409.927 20.884 408.532L20.499 402.084C29.7379 399.437 39.2654 388.033 46.9644 378.698C47.205 379.083 47.3494 379.516 47.3494 379.997Z"
    fill="#CCE9FF"
  />
</svg>
