<svg width="168" height="168" fill="none" xmlns="http://www.w3.org/2000/svg"><path d="M99.5 154.2l-8.6 8.7H62.2l23-23 14.3 14.3z" fill="url(#paint0_linear)" stroke="#fff" stroke-width="10" stroke-miterlimit="10" stroke-linejoin="round"/><path d="M156 155l-7.8 8h-28.7l22.3-22.3 14.3 14.2z" fill="url(#paint1_linear)" stroke="#fff" stroke-width="10" stroke-miterlimit="10" stroke-linejoin="round"/><path d="M163 148v15h-14.8l7.9-8 6.8-7z" fill="url(#paint2_linear)" stroke="#fff" stroke-width="10" stroke-miterlimit="10" stroke-linejoin="round"/><path d="M163 119.5v28.6l-7 6.8-14.2-14.2 21.1-21.2z" fill="url(#paint3_linear)" stroke="#fff" stroke-width="10" stroke-miterlimit="10" stroke-linejoin="round"/><path d="M155.3 98.5l-27.9 28-14.3 14.2-13.6 13.5L85.2 140l28-28 13.5-13.5L141.1 84l14.2 14.4z" fill="url(#paint4_linear)" stroke="#fff" stroke-width="10" stroke-miterlimit="10" stroke-linejoin="round"/><path d="M163 90.9v28.6l-21.2 21.2-14.4 14.2-7.9 8H91l8.6-8.7 13.6-13.5 14.3-14.3 28-28 7.5-7.5z" fill="url(#paint5_linear)" stroke="#fff" stroke-width="10" stroke-miterlimit="10" stroke-linejoin="round"/><path d="M163 62.2V91l-7.7 7.6L141.1 84l13.5-13.6 8.3-8.3z" fill="url(#paint6_linear)" stroke="#fff" stroke-width="10" stroke-miterlimit="10" stroke-linejoin="round"/><path d="M41.6 40.5L27.2 54.8 13.7 68.4 5 77V48.4l22.1-22.2 14.4 14.3z" fill="url(#paint7_linear)" stroke="#fff" stroke-width="10" stroke-miterlimit="10" stroke-linejoin="round"/><path d="M105.7 5l-8.3 8.3-13.6 13.6-42.2 42.2-13.7 13.6L13.7 97 5 105.7V77l22.1-22.2 14.4-14.3L77 5h28.7z" fill="url(#paint8_linear)" stroke="#fff" stroke-width="10" stroke-miterlimit="10" stroke-linejoin="round"/><path d="M42.3 97l-28 28-9.2 9.2v-28.5l8.6-8.6 14.2-14.4L42.3 97z" fill="url(#paint9_linear)" stroke="#fff" stroke-width="10" stroke-miterlimit="10" stroke-linejoin="round"/><path d="M98 41.2L83.9 55.6 70.2 69 56 83.4 42.3 97 27.9 82.7 41.6 69 83.8 27l14.3 14.3z" fill="url(#paint10_linear)" stroke="#fff" stroke-width="10" stroke-miterlimit="10" stroke-linejoin="round"/><path d="M70.2 69.1L56 83.4 42.3 97l13.6-13.7L70.2 69z" fill="url(#paint11_linear)" stroke="#fff" stroke-width="10" stroke-miterlimit="10" stroke-linejoin="round"/><path d="M70.2 69.1L56 83.4 70.2 69z" fill="url(#paint12_linear)" stroke="#fff" stroke-width="10" stroke-miterlimit="10" stroke-linejoin="round"/><path d="M162.8 5L126 42l-13.6 13.7-14.3 14.2-13.6 13.6-14.3 14.4-13.6 13.5L5 162.8v-28.6l9.3-9.2 27.9-28 13.6-13.6L70.2 69l41.5-41.5L126 13.3l8.3-8.2h28.5z" fill="url(#paint13_linear)" stroke="#fff" stroke-width="10" stroke-miterlimit="10" stroke-linejoin="round"/><path d="M55.9 83.4L42.3 97l13.6-13.7z" fill="url(#paint14_linear)" stroke="#fff" stroke-width="10" stroke-miterlimit="10" stroke-linejoin="round"/><path d="M43 153.5l-9.4 9.4H5.1v0l23.5-23.6L43 153.5z" fill="url(#paint15_linear)" stroke="#fff" stroke-width="10" stroke-miterlimit="10" stroke-linejoin="round"/><path d="M98.8 97.8L84.5 112 71 125.6 56.6 140 43 153.5l-14.4-14.2 28-28 13.6-13.5 14.3-14.4 14.3 14.4z" fill="url(#paint16_linear)" stroke="#fff" stroke-width="10" stroke-miterlimit="10" stroke-linejoin="round"/><path d="M43 153.5l-9.4 9.4 9.4-9.4z" fill="url(#paint17_linear)" stroke="#fff" stroke-width="10" stroke-miterlimit="10" stroke-linejoin="round"/><path d="M154.6 41.9l-14.2 14.4-13.7 13.5-14.3 14.3-13.6 13.7-14.3-14.4 13.6-13.6 14.3-14.2L126 41.9l14.4-14.3L154.6 42z" fill="url(#paint18_linear)" stroke="#fff" stroke-width="10" stroke-miterlimit="10" stroke-linejoin="round"/><path d="M163 5v28.6l-8.4 8.3-14.2-14.3 22.4-22.5h.1z" fill="url(#paint19_linear)" stroke="#fff" stroke-width="10" stroke-miterlimit="10" stroke-linejoin="round"/><path d="M163 33.6v28.6l-8.4 8.3-13.5 13.6-14.4 14.4-13.6 13.5-50.9 51H33.6l9.4-9.5L56.6 140l14.3-14.4L84.5 112l14.3-14.2L112.4 84l14.3-14.3 13.7-13.5 14.2-14.4 8.3-8.3z" fill="url(#paint20_linear)" stroke="#fff" stroke-width="10" stroke-miterlimit="10" stroke-linejoin="round"/><path d="M134.3 5l-8.3 8.3-14.3 14.3-13.6 13.6-14.3-14.3 13.6-13.6 8.3-8.2h28.6z" fill="url(#paint21_linear)" stroke="#fff" stroke-width="10" stroke-miterlimit="10" stroke-linejoin="round"/><path d="M77 5l-7.5 7.5L77 5.1z" fill="url(#paint22_linear)" stroke="#fff" stroke-width="10" stroke-miterlimit="10" stroke-linejoin="round"/><path d="M77 5l-7.5 7.5-27.9 28-14.4-14.3L48.4 5.1H77z" fill="url(#paint23_linear)" stroke="#fff" stroke-width="10" stroke-miterlimit="10" stroke-linejoin="round"/><path d="M77 5l-7.5 7.5L77 5.1z" fill="url(#paint24_linear)" stroke="#fff" stroke-width="10" stroke-miterlimit="10" stroke-linejoin="round"/><path d="M48.4 5L5 48.5V19.7l7.9-7.9 6.7-6.7h28.7z" fill="url(#paint25_linear)" stroke="#fff" stroke-width="10" stroke-miterlimit="10" stroke-linejoin="round"/><path d="M19.7 5L13 11.9l-8 8V5h14.7z" fill="url(#paint26_linear)" stroke="#fff" stroke-width="10" stroke-miterlimit="10" stroke-linejoin="round"/><defs><linearGradient id="paint0_linear" x1="80.9" y1="140" x2="80.9" y2="162.9" gradientUnits="userSpaceOnUse"><stop stop-color="#000333"/><stop offset="1" stop-color="#000333" stop-opacity=".1"/></linearGradient><linearGradient id="paint1_linear" x1="137.8" y1="140.7" x2="137.8" y2="162.9" gradientUnits="userSpaceOnUse"><stop stop-color="#000333"/><stop offset="1" stop-color="#000333" stop-opacity=".1"/></linearGradient><linearGradient id="paint2_linear" x1="155.6" y1="148.1" x2="155.6" y2="162.9" gradientUnits="userSpaceOnUse"><stop stop-color="#000333"/><stop offset="1" stop-color="#000333" stop-opacity=".1"/></linearGradient><linearGradient id="paint3_linear" x1="152.4" y1="119.5" x2="152.4" y2="154.9" gradientUnits="userSpaceOnUse"><stop stop-color="#000333"/><stop offset="1" stop-color="#000333" stop-opacity=".1"/></linearGradient><linearGradient id="paint4_linear" x1="120.3" y1="84.1" x2="120.3" y2="154.2" gradientUnits="userSpaceOnUse"><stop stop-color="#000333"/><stop offset="1" stop-color="#000333" stop-opacity=".1"/></linearGradient><linearGradient id="paint5_linear" x1="126.9" y1="90.9" x2="126.9" y2="162.9" gradientUnits="userSpaceOnUse"><stop stop-color="#000333"/><stop offset="1" stop-color="#000333" stop-opacity=".1"/></linearGradient><linearGradient id="paint6_linear" x1="152" y1="62.2" x2="152" y2="98.5" gradientUnits="userSpaceOnUse"><stop stop-color="#000333"/><stop offset="1" stop-color="#000333" stop-opacity=".1"/></linearGradient><linearGradient id="paint7_linear" x1="23.3" y1="26.2" x2="23.3" y2="77" gradientUnits="userSpaceOnUse"><stop stop-color="#000333"/><stop offset="1" stop-color="#000333" stop-opacity=".1"/></linearGradient><linearGradient id="paint8_linear" x1="55.4" y1="5.1" x2="55.4" y2="105.7" gradientUnits="userSpaceOnUse"><stop stop-color="#000333"/><stop offset="1" stop-color="#000333" stop-opacity=".1"/></linearGradient><linearGradient id="paint9_linear" x1="23.7" y1="82.7" x2="23.7" y2="134.2" gradientUnits="userSpaceOnUse"><stop stop-color="#000333"/><stop offset="1" stop-color="#000333" stop-opacity=".1"/></linearGradient><linearGradient id="paint10_linear" x1="63" y1="26.9" x2="63" y2="97.1" gradientUnits="userSpaceOnUse"><stop stop-color="#000333"/><stop offset="1" stop-color="#000333" stop-opacity=".1"/></linearGradient><linearGradient id="paint11_linear" x1="56.3" y1="69.1" x2="56.3" y2="97.1" gradientUnits="userSpaceOnUse"><stop stop-color="#000333"/><stop offset="1" stop-color="#000333" stop-opacity=".1"/></linearGradient><linearGradient id="paint12_linear" x1="63.1" y1="69.1" x2="63.1" y2="83.4" gradientUnits="userSpaceOnUse"><stop stop-color="#000333"/><stop offset="1" stop-color="#000333" stop-opacity=".1"/></linearGradient><linearGradient id="paint13_linear" x1="83.9" y1="5.1" x2="83.9" y2="162.8" gradientUnits="userSpaceOnUse"><stop stop-color="#000333"/><stop offset="1" stop-color="#000333" stop-opacity=".1"/></linearGradient><linearGradient id="paint14_linear" x1="49.1" y1="83.4" x2="49.1" y2="97.1" gradientUnits="userSpaceOnUse"><stop stop-color="#000333"/><stop offset="1" stop-color="#000333" stop-opacity=".1"/></linearGradient><linearGradient id="paint15_linear" x1="24" y1="139.3" x2="24" y2="162.9" gradientUnits="userSpaceOnUse"><stop stop-color="#000333"/><stop offset="1" stop-color="#000333" stop-opacity=".1"/></linearGradient><linearGradient id="paint16_linear" x1="63.7" y1="83.4" x2="63.7" y2="153.5" gradientUnits="userSpaceOnUse"><stop stop-color="#000333"/><stop offset="1" stop-color="#000333" stop-opacity=".1"/></linearGradient><linearGradient id="paint17_linear" x1="38.3" y1="153.5" x2="38.3" y2="162.9" gradientUnits="userSpaceOnUse"><stop stop-color="#000333"/><stop offset="1" stop-color="#000333" stop-opacity=".1"/></linearGradient><linearGradient id="paint18_linear" x1="119.6" y1="27.6" x2="119.6" y2="97.8" gradientUnits="userSpaceOnUse"><stop stop-color="#000333"/><stop offset="1" stop-color="#000333" stop-opacity=".1"/></linearGradient><linearGradient id="paint19_linear" x1="151.7" y1="5.1" x2="151.7" y2="41.9" gradientUnits="userSpaceOnUse"><stop stop-color="#000333"/><stop offset="1" stop-color="#000333" stop-opacity=".1"/></linearGradient><linearGradient id="paint20_linear" x1="98.3" y1="33.6" x2="98.3" y2="162.9" gradientUnits="userSpaceOnUse"><stop stop-color="#000333"/><stop offset="1" stop-color="#000333" stop-opacity=".1"/></linearGradient><linearGradient id="paint21_linear" x1="109" y1="5.1" x2="109" y2="41.2" gradientUnits="userSpaceOnUse"><stop stop-color="#000333"/><stop offset="1" stop-color="#000333" stop-opacity=".1"/></linearGradient><linearGradient id="paint22_linear" x1="73.3" y1="5.1" x2="73.3" y2="12.5" gradientUnits="userSpaceOnUse"><stop stop-color="#000333"/><stop offset="1" stop-color="#000333" stop-opacity=".1"/></linearGradient><linearGradient id="paint23_linear" x1="52.1" y1="5.1" x2="52.1" y2="40.5" gradientUnits="userSpaceOnUse"><stop stop-color="#000333"/><stop offset="1" stop-color="#000333" stop-opacity=".1"/></linearGradient><linearGradient id="paint24_linear" x1="73.3" y1="5.1" x2="73.3" y2="12.5" gradientUnits="userSpaceOnUse"><stop stop-color="#000333"/><stop offset="1" stop-color="#000333" stop-opacity=".1"/></linearGradient><linearGradient id="paint25_linear" x1="26.7" y1="5.1" x2="26.7" y2="48.4" gradientUnits="userSpaceOnUse"><stop stop-color="#000333"/><stop offset="1" stop-color="#000333" stop-opacity=".1"/></linearGradient><linearGradient id="paint26_linear" x1="12.4" y1="5.1" x2="12.4" y2="19.7" gradientUnits="userSpaceOnUse"><stop stop-color="#000333"/><stop offset="1" stop-color="#000333" stop-opacity=".1"/></linearGradient></defs></svg>
