<svg
  width="83"
  height="143"
  viewBox="0 0 83 143"
  fill="none"
  xmlns="http://www.w3.org/2000/svg"
>
  <path
    d="M82.1209 142.19H0.870943C0.390703 142.19 0 141.425 0 140.484V133.07C0 132.13 0.390703 131.364 0.870943 131.364H82.1291C82.6093 131.364 83 132.13 83 133.07V140.484C82.9919 141.425 82.6012 142.19 82.1209 142.19Z"
    fill="#F2F2F2"
  />
  <path
    d="M59.4344 26.945C66.5989 26.945 72.4069 21.137 72.4069 13.9725C72.4069 6.80798 66.5989 1 59.4344 1C52.2699 1 46.4619 6.80798 46.4619 13.9725C46.4619 21.137 52.2699 26.945 59.4344 26.945Z"
    stroke="#D3D3D3"
    stroke-width="0.451087"
    stroke-miterlimit="10"
    stroke-dasharray="5.38 5.38"
  />
  <path
    d="M81.1957 21.8441V108.715C81.1957 109.759 80.7972 110.614 80.3102 110.614H18.0269C17.5399 110.614 17.1414 109.759 17.1414 108.715V21.8441C17.1414 20.7998 17.5399 19.9453 18.0269 19.9453H80.3102C80.7972 19.9453 81.1957 20.7998 81.1957 21.8441Z"
    stroke="#DCF2FF"
    stroke-width="2.25543"
    stroke-miterlimit="10"
  />
  <path
    d="M75.7826 15.9704V102.409C75.7826 103.448 75.3757 104.298 74.8784 104.298H11.2793C10.7819 104.298 10.375 103.448 10.375 102.409V15.9704C10.375 14.9313 10.7819 14.0811 11.2793 14.0811H74.8784C75.3757 14.0811 75.7826 14.9313 75.7826 15.9704Z"
    fill="#DCF2FF"
  />
  <path
    d="M31.464 26.5095C37.3428 26.5095 42.1311 31.2979 42.1311 37.1766C42.1311 43.0554 37.3428 47.8437 31.464 47.8437C25.5853 47.8437 20.7969 43.0554 20.7969 37.1766C20.7969 31.2979 25.5853 26.5095 31.464 26.5095ZM31.464 23.0645C23.6573 23.0645 17.3361 29.3857 17.3361 37.1924C17.3361 44.9992 23.6573 51.3204 31.464 51.3204C39.2708 51.3204 45.592 44.9992 45.592 37.1924C45.592 29.3857 39.2708 23.0645 31.464 23.0645Z"
    fill="#0D4972"
  />
  <path
    d="M31.464 23.0645C23.6573 23.0645 17.3361 29.3857 17.3361 37.1924C17.3361 44.9992 23.6573 51.3204 31.464 51.3204C39.2707 51.3204 45.592 44.9992 45.592 37.1924H42.1311C42.1311 43.0712 37.3428 47.8595 31.464 47.8595C25.5853 47.8595 20.7969 43.0712 20.7969 37.1924C20.7969 31.3137 25.5853 26.5253 31.464 26.5253V23.0645V23.0645Z"
    fill="#2A94F4"
  />
  <path
    d="M68.2852 39.5466C68.6487 44.2401 65.1246 48.3647 60.4153 48.7282C55.7217 49.0917 51.5971 45.5676 51.2337 40.8582C50.8702 36.1489 54.3943 32.0401 59.1036 31.6767C63.7971 31.3132 67.9217 34.8373 68.2852 39.5466ZM71.0349 39.3253C70.5451 33.0989 65.1088 28.437 58.8824 28.9111C52.6559 29.401 47.994 34.8373 48.4681 41.0637C48.958 47.2901 54.3943 51.952 60.6207 51.4779C66.8471 51.0038 71.5248 45.5676 71.0349 39.3253Z"
    fill="#0D4972"
  />
  <path
    d="M71.0349 39.3253C70.545 33.0989 65.1088 28.437 58.8824 28.9111C52.6559 29.401 47.994 34.8373 48.4681 41.0637C48.958 47.2901 54.3943 51.952 60.6207 51.4779L60.3995 48.7124C55.7059 49.0759 51.5813 45.5518 51.2179 40.8424C50.8544 36.1331 54.3785 32.0243 59.0878 31.6608C63.7813 31.2974 67.9059 34.8215 68.2694 39.5308L71.0349 39.3253Z"
    fill="#2A94F4"
  />
  <path d="M42.1946 62.6045H16.8464V65.1962H42.1946V62.6045Z" fill="#0069FF" />
  <path d="M59.7516 67.1562H16.8462V68.057H59.7516V67.1562Z" fill="#F9F9F9" />
  <path d="M59.7516 69.6377H16.8462V70.5384H59.7516V69.6377Z" fill="#F9F9F9" />
  <path d="M59.7516 72.1182H16.8462V73.0189H59.7516V72.1182Z" fill="#F9F9F9" />
  <path d="M59.7516 74.5996H16.8462V75.5004H59.7516V74.5996Z" fill="#F9F9F9" />
  <path d="M39.0179 77.0645H16.8462V77.9652H39.0179V77.0645Z" fill="#F9F9F9" />
  <path d="M42.1946 82.6426H16.8464V85.2343H42.1946V82.6426Z" fill="#0069FF" />
  <path d="M59.7516 87.209H16.8462V88.1098H59.7516V87.209Z" fill="#F9F9F9" />
  <path d="M59.7516 89.6904H16.8462V90.5912H59.7516V89.6904Z" fill="#F9F9F9" />
  <path d="M59.7516 92.1553H16.8462V93.0561H59.7516V92.1553Z" fill="#F9F9F9" />
  <path d="M59.7516 94.6377H16.8462V95.5385H59.7516V94.6377Z" fill="#F9F9F9" />
  <path d="M39.0179 97.1182H16.8462V98.0189H39.0179V97.1182Z" fill="#F9F9F9" />
  <path
    d="M57.5549 50.893V49.1546C57.5549 49.1546 56.9228 47.4163 56.2906 46.1521C56.7647 46.3101 57.5549 47.4163 57.5549 47.4163C57.5549 47.4163 57.871 44.7298 57.5549 44.0977C59.6093 45.836 59.6093 46.4681 59.6093 46.4681L58.8191 49.3127L58.9772 51.5251L57.5549 50.893Z"
    fill="#D3B192"
  />
  <path
    d="M27.845 91.5068L26.8969 93.2452C26.8969 93.2452 25.0005 94.5094 25.0005 95.1416C25.0005 95.7737 25.0005 96.5638 25.0005 96.5638L26.4228 98.3022C26.4228 98.3022 27.687 94.8255 27.845 94.9835C28.0031 95.7737 28.0031 96.7219 28.3191 96.8799C28.4772 95.9317 28.0031 93.5612 28.6352 92.7711C29.2673 91.9809 27.845 91.5068 27.845 91.5068Z"
    fill="#D3B192"
  />
  <path
    d="M30.5938 129.25L27.7581 129.027L27.2758 135.171L30.1115 135.394L30.5938 129.25Z"
    fill="#FFE3CA"
  />
  <path
    d="M27.2762 135.186C26.0752 136.355 25.206 137.24 25.1586 137.872C26.2016 138.741 29.615 139.642 31.2586 138.82C31.5904 136.624 30.1049 135.407 30.1049 135.407L27.2762 135.186Z"
    fill="#0D4972"
  />
  <path d="M47.2829 129.118H44.4384V135.281H47.2829V129.118Z" fill="#FFE3CA" />
  <path
    d="M45.4654 84.791C47.3618 90.6382 54.6312 114.501 48.468 131.726C45.8605 133.544 43.0159 131.805 43.0159 131.805C43.0159 131.805 36.6157 106.441 38.354 96.1692C40.0924 85.8972 40.3294 84.791 40.3294 84.791H45.4654Z"
    fill="#0D4972"
  />
  <path d="M42.2259 61.4014H39.9344V66.3003H42.2259V61.4014Z" fill="#D3B192" />
  <path
    d="M44.9756 60.2009C44.9756 62.5239 44.0907 64.4203 42.2101 64.4203C40.3295 64.4203 38.1803 62.5397 38.1803 60.2009C38.1803 57.8778 39.6974 55.9814 41.578 55.9814C43.4585 55.9814 44.9756 57.8778 44.9756 60.2009Z"
    fill="#D3B192"
  />
  <path
    d="M44.2802 56.0452C43.7745 58.0522 43.3952 62.7141 40.6297 64.3418C38.8755 65.2268 33.7079 60.5649 36.2206 56.4244C38.7491 52.284 44.0273 54.9231 44.2802 56.0452Z"
    fill="#0E538C"
  />
  <path
    d="M37.9906 58.8264C40.0067 58.8264 41.6411 57.192 41.6411 55.1759C41.6411 53.1598 40.0067 51.5254 37.9906 51.5254C35.9745 51.5254 34.3401 53.1598 34.3401 55.1759C34.3401 57.192 35.9745 58.8264 37.9906 58.8264Z"
    fill="#0E538C"
  />
  <path
    d="M39.9345 66.3014C37.0899 66.6175 32.9811 68.6719 32.9811 68.6719C32.9811 68.6719 28.2402 86.6874 27.292 92.2185C28.7143 93.1667 29.1884 93.6408 29.1884 93.6408L34.5614 75.9413L36.6158 84.791H45.4656L47.52 73.4128C47.52 73.4128 60.7946 66.9336 59.6883 50.9724C57.1599 49.8662 57.1599 49.8662 57.1599 49.8662C57.1599 49.8662 57.792 66.7755 45.4656 66.4595C45.4656 66.4595 41.5148 65.6693 39.9345 66.3014Z"
    fill="#FFBE55"
  />
  <path
    d="M36.6315 84.791C31.1004 94.4309 24.1471 118.926 26.6756 132.358C29.2831 134.492 31.4165 132.358 31.4165 132.358C31.4165 132.358 40.8984 111.656 40.7403 96.8014C41.3725 87.9516 40.7403 84.791 40.7403 84.791H36.6315Z"
    fill="#0D4972"
  />
  <path
    d="M44.4382 135.28C43.332 136.545 42.5419 137.493 42.5419 138.125C43.6481 138.915 47.1248 139.547 48.7051 138.599C48.8631 136.386 47.2828 135.28 47.2828 135.28H44.4382Z"
    fill="#0D4972"
  />
  <path
    d="M10.6198 126.433C9.76641 122.45 7.1431 118.895 3.5874 116.903C5.48377 120.491 7.75942 123.872 10.3669 127.001L10.6198 126.433Z"
    fill="#1A87D8"
  />
  <path
    d="M11.5678 127.932C8.18595 123.207 6.47922 117.297 6.84269 111.481C9.03932 116.839 10.6986 122.417 11.7733 128.106L11.5678 127.932Z"
    fill="#2A94F4"
  />
  <path
    d="M10.6039 128.09C10.4933 125.183 10.3984 122.243 10.8567 119.367C11.315 116.491 12.3738 113.646 14.3334 111.481C14.6337 117.439 13.1956 123.476 10.2246 128.659L10.6039 128.09Z"
    fill="#1A87D8"
  />
  <path
    d="M10.7304 128.361C8.81819 122.861 9.13426 116.619 11.5837 111.341C13.1166 116.856 11.7576 122.719 10.3985 128.282L10.7304 128.361Z"
    fill="#B0E1FF"
  />
  <path
    d="M10.9832 126.322C11.5047 121.502 14.7285 117.046 19.1534 115.055C17.3518 119.875 14.286 124.205 10.3511 127.508L10.9832 126.322Z"
    fill="#2A94F4"
  />
  <path
    d="M15.5504 125.469L14.9972 134.84C14.9972 135.299 14.6338 135.662 14.1755 135.662H7.68041C7.22212 135.662 6.85865 135.299 6.85865 134.84L6.73223 132.723L6.30554 125.469C6.30554 125.011 6.66901 124.647 7.1273 124.647H14.7286C15.0289 124.647 15.2817 124.805 15.4239 125.043C15.5029 125.169 15.5504 125.311 15.5504 125.469Z"
    fill="#CCE9FF"
  />
  <path
    d="M15.5503 125.468L14.9972 134.839C14.9972 135.297 14.6337 135.661 14.1754 135.661H7.68036C7.22207 135.661 6.8586 135.297 6.8586 134.839L6.73218 132.721C9.76637 131.852 12.8954 128.107 15.4239 125.041C15.5029 125.167 15.5503 125.31 15.5503 125.468Z"
    fill="#CCE9FF"
  />
</svg>
