<svg width="168" height="168" fill="none" xmlns="http://www.w3.org/2000/svg"><path d="M163 163V5H5v158h158z" fill="url(#paint0_angular)" stroke="#fff" stroke-width="10" stroke-miterlimit="10" stroke-linejoin="round"/><path d="M24.3 163V84H5v79h19.2z" stroke="#fff" stroke-width="10" stroke-miterlimit="10" stroke-linejoin="round"/><path d="M44.5 163V84H5.1v79h39.4zM163 163v-18.3h-57.7V163h57.6z" stroke="#fff" stroke-width="10" stroke-miterlimit="10" stroke-linejoin="round"/><path d="M163 163v-38.5H85v38.4h78z" stroke="#fff" stroke-width="10" stroke-miterlimit="10" stroke-linejoin="round"/><path d="M163 163v-58.8H64.7V163h98.1z" stroke="#fff" stroke-width="10" stroke-miterlimit="10" stroke-linejoin="round"/><path d="M163 163V84H44.4v79H163zM163 84V5h-19.3v79H163z" stroke="#fff" stroke-width="10" stroke-miterlimit="10" stroke-linejoin="round"/><path d="M163 84V5h-39.5v79h39.4zM83 43.5V5.1H5v38.4h78z" stroke="#fff" stroke-width="10" stroke-miterlimit="10" stroke-linejoin="round"/><path d="M62.7 23.3V5H5.1v18.2h57.6z" stroke="#fff" stroke-width="10" stroke-miterlimit="10" stroke-linejoin="round"/><path d="M103.2 63.8V5H5.1v58.7h98.1z" stroke="#fff" stroke-width="10" stroke-miterlimit="10" stroke-linejoin="round"/><path d="M123.5 84V5H5v79h118.4z" stroke="#fff" stroke-width="10" stroke-miterlimit="10" stroke-linejoin="round"/><defs><radialGradient id="paint0_angular" cx="0" cy="0" r="1" gradientUnits="userSpaceOnUse" gradientTransform="rotate(-180 42 42) scale(78.9398)"><stop stop-color="#000333"/><stop offset="1" stop-color="#000333" stop-opacity=".1"/></radialGradient></defs></svg>
