<svg
  width="14"
  height="24"
  viewBox="0 0 14 24"
  fill="none"
  xmlns="http://www.w3.org/2000/svg"
>
  <style>
    path {
      fill: #505050;
    }

    @media (prefers-color-scheme: dark) {
      path {
        fill: #e8ea8f;
      }
    }
  </style>
  <path
    d="M8.1106 5.3453C7.87153 4.98671 7.35926 4.79888 6.84698 4.79888C6.16395 4.79888 5.37846 5.12332 5.37846 5.96003C5.37846 6.79675 6.02734 7.13827 7.03482 7.13827V7.8213C6.91529 7.8213 6.77868 7.8213 6.64207 7.83838C5.7029 7.92376 4.95157 8.35065 4.95157 9.39228C4.95157 10.4681 5.77121 10.9974 6.7616 10.9974C7.752 10.9974 8.41796 10.3315 8.41796 9.20444V7.13827H9.92064V7.8213H9.13515V9.18737C9.13515 10.6559 8.33258 11.6975 6.7616 11.6975C5.15648 11.6975 4.13192 10.7071 4.13192 9.40936C4.13192 8.3848 4.69543 7.71885 5.6346 7.42856C4.96864 7.22365 4.61005 6.67722 4.61005 5.97711C4.61005 4.7135 5.68583 4.11584 6.88114 4.11584C7.70078 4.11584 8.38381 4.37198 8.7424 4.8501L8.1106 5.3453Z"
  />
  <path
    d="M6.76197 11.7652C5.17392 11.7652 4.06399 10.7919 4.06399 9.40873C4.06399 8.45248 4.54211 7.76944 5.43005 7.42793C4.84947 7.17179 4.52503 6.65951 4.52503 5.99356C4.52503 4.57626 5.78865 4.06399 6.86442 4.06399C7.71822 4.06399 8.41833 4.3372 8.794 4.8324L8.82815 4.88363L8.09389 5.46421L8.05973 5.41298C7.85482 5.10561 7.3767 4.9007 6.86442 4.9007C6.33507 4.9007 5.46421 5.13976 5.46421 5.99356C5.46421 6.72782 5.99356 7.10349 7.05226 7.10349H7.12056V7.90605H7.05226C6.93273 7.90605 6.79612 7.90605 6.65952 7.92313C5.90818 7.99143 5.02023 8.2988 5.02023 9.40873C5.02023 10.3479 5.70327 10.9456 6.76197 10.9456C7.73529 10.9456 8.35002 10.2796 8.35002 9.22089V7.06933H9.98931V7.88898H9.20382V9.18674C9.20382 10.7919 8.2988 11.7652 6.76197 11.7652ZM6.86442 4.18352C5.83987 4.18352 4.66164 4.66164 4.66164 5.97648C4.66164 6.65951 5.02023 7.15471 5.63496 7.35962L5.83987 7.42793L5.63496 7.47916C4.67872 7.78652 4.18352 8.45248 4.18352 9.39165C4.18352 10.7065 5.24222 11.6286 6.76197 11.6286C8.21342 11.6286 9.06721 10.7236 9.06721 9.18674V7.75237H9.8527V7.20594H8.48663V9.16966C8.48663 10.3137 7.82067 11.0309 6.76197 11.0309C5.61789 11.0309 4.88363 10.382 4.88363 9.3575C4.88363 8.41833 5.49836 7.83775 6.64244 7.75237C6.76197 7.73529 6.86442 7.73529 6.98396 7.73529V7.18887C5.8911 7.17179 5.3276 6.74489 5.3276 5.94233C5.3276 5.08854 6.09601 4.71287 6.86442 4.71287C7.39378 4.71287 7.88898 4.91778 8.12804 5.22514L8.64031 4.81532C8.28172 4.42258 7.64991 4.18352 6.86442 4.18352Z"
  />
  <path d="M7.37651 11.3217H6.45441V17.247H7.37651V11.3217Z" fill="#505050" />
  <path
    d="M6.96694 0C3.9616 0 2.28816 1.38314 1.41729 2.52723C0.375669 3.89329 0 5.53258 0 6.59128C0 9.30634 1.09285 11.0481 2.01495 12.0385C2.35647 12.3971 2.71506 12.6874 3.02242 12.9435C3.38102 13.2338 3.73961 13.5241 3.79084 13.729C3.89329 14.2925 3.97867 15.1121 3.99575 15.9488C4.01282 16.4782 4.23481 16.7856 4.42264 16.9392C4.76416 17.2295 5.19106 17.2295 5.32766 17.2125H6.91572V16.2904H5.24228C5.24228 16.2904 5.10568 16.2904 5.0203 16.2391C4.93492 16.1708 4.93492 16.0171 4.91784 15.9318C4.90077 15.0267 4.81539 14.173 4.69586 13.5582C4.5934 13.0289 4.13235 12.6703 3.603 12.2263C3.31271 11.9872 2.98827 11.7311 2.68091 11.4067C1.89542 10.5529 0.922096 9.01605 0.922096 6.60835C0.922096 5.03738 2.01495 0.939172 6.96694 0.939172C11.697 0.939172 12.9435 4.62756 12.9435 6.59128C12.9435 8.40132 12.4312 9.90399 11.4408 11.0822C11.2359 11.3213 10.9627 11.5604 10.6895 11.8165C10.0577 12.3971 9.40879 12.9947 9.23803 13.8144C9.03312 14.856 9.10143 17.1954 9.10143 17.2978V17.3832C9.10143 17.776 8.98189 17.9467 8.72576 17.9467L5.12275 17.9638C5.0203 17.9638 4.4568 17.9809 4.08113 18.3395C3.85914 18.5444 3.75669 18.8347 3.75669 19.1591C3.75669 20.047 4.61048 20.3544 5.19106 20.3544H8.93067C9.28926 20.3544 9.28926 20.9179 8.93067 20.9179H4.93492C4.64463 20.9179 4.38849 21.0033 4.13235 21.2253C3.9616 21.379 3.75669 21.6522 3.75669 22.1303C3.75669 22.4547 3.87622 22.728 4.0982 22.9329C4.4568 23.2744 5.00322 23.3085 5.22521 23.3085C5.25936 23.3085 5.29351 23.3085 5.31059 23.3085H10.0064V22.3352H4.95199C4.5934 22.3352 4.5934 21.7717 4.95199 21.7717H8.81114C9.0502 21.7717 9.46002 21.7034 9.75031 21.4302C9.97229 21.2082 10.0918 20.9179 10.0918 20.5935C10.0918 20.252 9.97229 19.9787 9.75031 19.7568C9.34049 19.3811 8.75991 19.4152 8.58915 19.4152H4.93492C4.57633 19.4152 4.57633 18.8517 4.93492 18.8517H9.10143C9.34049 18.8517 9.52832 18.7493 9.69908 18.5956C10.0747 18.237 10.0235 17.6223 10.0235 17.2295C10.0235 17.0588 9.95522 14.8731 10.126 13.968C10.2284 13.4387 10.7407 12.9776 11.2871 12.4824C11.5774 12.2263 11.8677 11.9531 12.1068 11.6628C13.2509 10.3309 13.8485 8.60623 13.8485 6.5742C13.8827 4.30311 12.4312 0 6.96694 0Z"
  />
</svg>
